%TF.GenerationSoftware,KiCad,Pcbnew,7.0.7*%
%TF.CreationDate,2026-03-20T17:50:21-05:00*%
%TF.ProjectId,esc_schematic,6573635f-7363-4686-956d-617469632e6b,rev?*%
%TF.SameCoordinates,Original*%
%TF.FileFunction,Legend,Bot*%
%TF.FilePolarity,Positive*%
%FSLAX46Y46*%
G04 Gerber Fmt 4.6, Leading zero omitted, Abs format (unit mm)*
G04 Created by KiCad (PCBNEW 7.0.7) date 2026-03-20 17:50:21*
%MOMM*%
%LPD*%
G01*
G04 APERTURE LIST*
%ADD10C,0.150000*%
%ADD11C,0.120000*%
G04 APERTURE END LIST*
D10*
X131142857Y-82954819D02*
X131476190Y-82478628D01*
X131714285Y-82954819D02*
X131714285Y-81954819D01*
X131714285Y-81954819D02*
X131333333Y-81954819D01*
X131333333Y-81954819D02*
X131238095Y-82002438D01*
X131238095Y-82002438D02*
X131190476Y-82050057D01*
X131190476Y-82050057D02*
X131142857Y-82145295D01*
X131142857Y-82145295D02*
X131142857Y-82288152D01*
X131142857Y-82288152D02*
X131190476Y-82383390D01*
X131190476Y-82383390D02*
X131238095Y-82431009D01*
X131238095Y-82431009D02*
X131333333Y-82478628D01*
X131333333Y-82478628D02*
X131714285Y-82478628D01*
X130190476Y-82954819D02*
X130761904Y-82954819D01*
X130476190Y-82954819D02*
X130476190Y-81954819D01*
X130476190Y-81954819D02*
X130571428Y-82097676D01*
X130571428Y-82097676D02*
X130666666Y-82192914D01*
X130666666Y-82192914D02*
X130761904Y-82240533D01*
X129571428Y-81954819D02*
X129476190Y-81954819D01*
X129476190Y-81954819D02*
X129380952Y-82002438D01*
X129380952Y-82002438D02*
X129333333Y-82050057D01*
X129333333Y-82050057D02*
X129285714Y-82145295D01*
X129285714Y-82145295D02*
X129238095Y-82335771D01*
X129238095Y-82335771D02*
X129238095Y-82573866D01*
X129238095Y-82573866D02*
X129285714Y-82764342D01*
X129285714Y-82764342D02*
X129333333Y-82859580D01*
X129333333Y-82859580D02*
X129380952Y-82907200D01*
X129380952Y-82907200D02*
X129476190Y-82954819D01*
X129476190Y-82954819D02*
X129571428Y-82954819D01*
X129571428Y-82954819D02*
X129666666Y-82907200D01*
X129666666Y-82907200D02*
X129714285Y-82859580D01*
X129714285Y-82859580D02*
X129761904Y-82764342D01*
X129761904Y-82764342D02*
X129809523Y-82573866D01*
X129809523Y-82573866D02*
X129809523Y-82335771D01*
X129809523Y-82335771D02*
X129761904Y-82145295D01*
X129761904Y-82145295D02*
X129714285Y-82050057D01*
X129714285Y-82050057D02*
X129666666Y-82002438D01*
X129666666Y-82002438D02*
X129571428Y-81954819D01*
X135408966Y-111859580D02*
X135456585Y-111907200D01*
X135456585Y-111907200D02*
X135599442Y-111954819D01*
X135599442Y-111954819D02*
X135694680Y-111954819D01*
X135694680Y-111954819D02*
X135837537Y-111907200D01*
X135837537Y-111907200D02*
X135932775Y-111811961D01*
X135932775Y-111811961D02*
X135980394Y-111716723D01*
X135980394Y-111716723D02*
X136028013Y-111526247D01*
X136028013Y-111526247D02*
X136028013Y-111383390D01*
X136028013Y-111383390D02*
X135980394Y-111192914D01*
X135980394Y-111192914D02*
X135932775Y-111097676D01*
X135932775Y-111097676D02*
X135837537Y-111002438D01*
X135837537Y-111002438D02*
X135694680Y-110954819D01*
X135694680Y-110954819D02*
X135599442Y-110954819D01*
X135599442Y-110954819D02*
X135456585Y-111002438D01*
X135456585Y-111002438D02*
X135408966Y-111050057D01*
X134837537Y-111383390D02*
X134932775Y-111335771D01*
X134932775Y-111335771D02*
X134980394Y-111288152D01*
X134980394Y-111288152D02*
X135028013Y-111192914D01*
X135028013Y-111192914D02*
X135028013Y-111145295D01*
X135028013Y-111145295D02*
X134980394Y-111050057D01*
X134980394Y-111050057D02*
X134932775Y-111002438D01*
X134932775Y-111002438D02*
X134837537Y-110954819D01*
X134837537Y-110954819D02*
X134647061Y-110954819D01*
X134647061Y-110954819D02*
X134551823Y-111002438D01*
X134551823Y-111002438D02*
X134504204Y-111050057D01*
X134504204Y-111050057D02*
X134456585Y-111145295D01*
X134456585Y-111145295D02*
X134456585Y-111192914D01*
X134456585Y-111192914D02*
X134504204Y-111288152D01*
X134504204Y-111288152D02*
X134551823Y-111335771D01*
X134551823Y-111335771D02*
X134647061Y-111383390D01*
X134647061Y-111383390D02*
X134837537Y-111383390D01*
X134837537Y-111383390D02*
X134932775Y-111431009D01*
X134932775Y-111431009D02*
X134980394Y-111478628D01*
X134980394Y-111478628D02*
X135028013Y-111573866D01*
X135028013Y-111573866D02*
X135028013Y-111764342D01*
X135028013Y-111764342D02*
X134980394Y-111859580D01*
X134980394Y-111859580D02*
X134932775Y-111907200D01*
X134932775Y-111907200D02*
X134837537Y-111954819D01*
X134837537Y-111954819D02*
X134647061Y-111954819D01*
X134647061Y-111954819D02*
X134551823Y-111907200D01*
X134551823Y-111907200D02*
X134504204Y-111859580D01*
X134504204Y-111859580D02*
X134456585Y-111764342D01*
X134456585Y-111764342D02*
X134456585Y-111573866D01*
X134456585Y-111573866D02*
X134504204Y-111478628D01*
X134504204Y-111478628D02*
X134551823Y-111431009D01*
X134551823Y-111431009D02*
X134647061Y-111383390D01*
X135166666Y-103359580D02*
X135214285Y-103407200D01*
X135214285Y-103407200D02*
X135357142Y-103454819D01*
X135357142Y-103454819D02*
X135452380Y-103454819D01*
X135452380Y-103454819D02*
X135595237Y-103407200D01*
X135595237Y-103407200D02*
X135690475Y-103311961D01*
X135690475Y-103311961D02*
X135738094Y-103216723D01*
X135738094Y-103216723D02*
X135785713Y-103026247D01*
X135785713Y-103026247D02*
X135785713Y-102883390D01*
X135785713Y-102883390D02*
X135738094Y-102692914D01*
X135738094Y-102692914D02*
X135690475Y-102597676D01*
X135690475Y-102597676D02*
X135595237Y-102502438D01*
X135595237Y-102502438D02*
X135452380Y-102454819D01*
X135452380Y-102454819D02*
X135357142Y-102454819D01*
X135357142Y-102454819D02*
X135214285Y-102502438D01*
X135214285Y-102502438D02*
X135166666Y-102550057D01*
X134833332Y-102454819D02*
X134166666Y-102454819D01*
X134166666Y-102454819D02*
X134595237Y-103454819D01*
X147642857Y-106359580D02*
X147690476Y-106407200D01*
X147690476Y-106407200D02*
X147833333Y-106454819D01*
X147833333Y-106454819D02*
X147928571Y-106454819D01*
X147928571Y-106454819D02*
X148071428Y-106407200D01*
X148071428Y-106407200D02*
X148166666Y-106311961D01*
X148166666Y-106311961D02*
X148214285Y-106216723D01*
X148214285Y-106216723D02*
X148261904Y-106026247D01*
X148261904Y-106026247D02*
X148261904Y-105883390D01*
X148261904Y-105883390D02*
X148214285Y-105692914D01*
X148214285Y-105692914D02*
X148166666Y-105597676D01*
X148166666Y-105597676D02*
X148071428Y-105502438D01*
X148071428Y-105502438D02*
X147928571Y-105454819D01*
X147928571Y-105454819D02*
X147833333Y-105454819D01*
X147833333Y-105454819D02*
X147690476Y-105502438D01*
X147690476Y-105502438D02*
X147642857Y-105550057D01*
X146690476Y-106454819D02*
X147261904Y-106454819D01*
X146976190Y-106454819D02*
X146976190Y-105454819D01*
X146976190Y-105454819D02*
X147071428Y-105597676D01*
X147071428Y-105597676D02*
X147166666Y-105692914D01*
X147166666Y-105692914D02*
X147261904Y-105740533D01*
X146071428Y-105454819D02*
X145976190Y-105454819D01*
X145976190Y-105454819D02*
X145880952Y-105502438D01*
X145880952Y-105502438D02*
X145833333Y-105550057D01*
X145833333Y-105550057D02*
X145785714Y-105645295D01*
X145785714Y-105645295D02*
X145738095Y-105835771D01*
X145738095Y-105835771D02*
X145738095Y-106073866D01*
X145738095Y-106073866D02*
X145785714Y-106264342D01*
X145785714Y-106264342D02*
X145833333Y-106359580D01*
X145833333Y-106359580D02*
X145880952Y-106407200D01*
X145880952Y-106407200D02*
X145976190Y-106454819D01*
X145976190Y-106454819D02*
X146071428Y-106454819D01*
X146071428Y-106454819D02*
X146166666Y-106407200D01*
X146166666Y-106407200D02*
X146214285Y-106359580D01*
X146214285Y-106359580D02*
X146261904Y-106264342D01*
X146261904Y-106264342D02*
X146309523Y-106073866D01*
X146309523Y-106073866D02*
X146309523Y-105835771D01*
X146309523Y-105835771D02*
X146261904Y-105645295D01*
X146261904Y-105645295D02*
X146214285Y-105550057D01*
X146214285Y-105550057D02*
X146166666Y-105502438D01*
X146166666Y-105502438D02*
X146071428Y-105454819D01*
X132167333Y-98640419D02*
X132119714Y-98592800D01*
X132119714Y-98592800D02*
X131976857Y-98545180D01*
X131976857Y-98545180D02*
X131881619Y-98545180D01*
X131881619Y-98545180D02*
X131738762Y-98592800D01*
X131738762Y-98592800D02*
X131643524Y-98688038D01*
X131643524Y-98688038D02*
X131595905Y-98783276D01*
X131595905Y-98783276D02*
X131548286Y-98973752D01*
X131548286Y-98973752D02*
X131548286Y-99116609D01*
X131548286Y-99116609D02*
X131595905Y-99307085D01*
X131595905Y-99307085D02*
X131643524Y-99402323D01*
X131643524Y-99402323D02*
X131738762Y-99497561D01*
X131738762Y-99497561D02*
X131881619Y-99545180D01*
X131881619Y-99545180D02*
X131976857Y-99545180D01*
X131976857Y-99545180D02*
X132119714Y-99497561D01*
X132119714Y-99497561D02*
X132167333Y-99449942D01*
X133024476Y-99545180D02*
X132834000Y-99545180D01*
X132834000Y-99545180D02*
X132738762Y-99497561D01*
X132738762Y-99497561D02*
X132691143Y-99449942D01*
X132691143Y-99449942D02*
X132595905Y-99307085D01*
X132595905Y-99307085D02*
X132548286Y-99116609D01*
X132548286Y-99116609D02*
X132548286Y-98735657D01*
X132548286Y-98735657D02*
X132595905Y-98640419D01*
X132595905Y-98640419D02*
X132643524Y-98592800D01*
X132643524Y-98592800D02*
X132738762Y-98545180D01*
X132738762Y-98545180D02*
X132929238Y-98545180D01*
X132929238Y-98545180D02*
X133024476Y-98592800D01*
X133024476Y-98592800D02*
X133072095Y-98640419D01*
X133072095Y-98640419D02*
X133119714Y-98735657D01*
X133119714Y-98735657D02*
X133119714Y-98973752D01*
X133119714Y-98973752D02*
X133072095Y-99068990D01*
X133072095Y-99068990D02*
X133024476Y-99116609D01*
X133024476Y-99116609D02*
X132929238Y-99164228D01*
X132929238Y-99164228D02*
X132738762Y-99164228D01*
X132738762Y-99164228D02*
X132643524Y-99116609D01*
X132643524Y-99116609D02*
X132595905Y-99068990D01*
X132595905Y-99068990D02*
X132548286Y-98973752D01*
D11*
%TO.C,R10*%
X130727064Y-84735000D02*
X130272936Y-84735000D01*
X130727064Y-83265000D02*
X130272936Y-83265000D01*
%TD*%
M02*
