%TF.GenerationSoftware,KiCad,Pcbnew,7.0.7*%
%TF.CreationDate,2026-03-20T17:50:21-05:00*%
%TF.ProjectId,esc_schematic,6573635f-7363-4686-956d-617469632e6b,rev?*%
%TF.SameCoordinates,Original*%
%TF.FileFunction,Soldermask,Bot*%
%TF.FilePolarity,Negative*%
%FSLAX46Y46*%
G04 Gerber Fmt 4.6, Leading zero omitted, Abs format (unit mm)*
G04 Created by KiCad (PCBNEW 7.0.7) date 2026-03-20 17:50:21*
%MOMM*%
%LPD*%
G01*
G04 APERTURE LIST*
G04 APERTURE END LIST*
G36*
X205460008Y-122627679D02*
G01*
X203460008Y-122627679D01*
X203460008Y-120722679D01*
X205460008Y-120722679D01*
X205460008Y-122627679D01*
G37*
G36*
X188189420Y-117429055D02*
G01*
X188439355Y-117506150D01*
X188675008Y-117619635D01*
X188891115Y-117766974D01*
X189082849Y-117944877D01*
X189245926Y-118149369D01*
X189376704Y-118375882D01*
X189472260Y-118619357D01*
X189530462Y-118874355D01*
X189550008Y-119135179D01*
X189530462Y-119396003D01*
X189472260Y-119651001D01*
X189376704Y-119894476D01*
X189245926Y-120120989D01*
X189082849Y-120325481D01*
X188891115Y-120503384D01*
X188675008Y-120650723D01*
X188439355Y-120764208D01*
X188189420Y-120841303D01*
X187930786Y-120880286D01*
X187669230Y-120880286D01*
X187410596Y-120841303D01*
X187160661Y-120764208D01*
X186925008Y-120650723D01*
X186708901Y-120503384D01*
X186517167Y-120325481D01*
X186354090Y-120120989D01*
X186223312Y-119894476D01*
X186127756Y-119651001D01*
X186069554Y-119396003D01*
X186050008Y-119135179D01*
X186069554Y-118874355D01*
X186127756Y-118619357D01*
X186223312Y-118375882D01*
X186354090Y-118149369D01*
X186517167Y-117944877D01*
X186708901Y-117766974D01*
X186925008Y-117619635D01*
X187160661Y-117506150D01*
X187410596Y-117429055D01*
X187669230Y-117390072D01*
X187930786Y-117390072D01*
X188189420Y-117429055D01*
G37*
G36*
X204603871Y-118187566D02*
G01*
X204649599Y-118196963D01*
X204693276Y-118201265D01*
X204741046Y-118215756D01*
X204792651Y-118226361D01*
X204832790Y-118243586D01*
X204871903Y-118255451D01*
X204918591Y-118280406D01*
X204969758Y-118302364D01*
X205003141Y-118325599D01*
X205036524Y-118343443D01*
X205079773Y-118378937D01*
X205127940Y-118412462D01*
X205153898Y-118439770D01*
X205180821Y-118461865D01*
X205218222Y-118507439D01*
X205260722Y-118552148D01*
X205279060Y-118581570D01*
X205299243Y-118606162D01*
X205328463Y-118660828D01*
X205362667Y-118715704D01*
X205373659Y-118745385D01*
X205387235Y-118770783D01*
X205406107Y-118832998D01*
X205429601Y-118896432D01*
X205433937Y-118924741D01*
X205441421Y-118949410D01*
X205448089Y-119017120D01*
X205458785Y-119086936D01*
X205457486Y-119112534D01*
X205459717Y-119135178D01*
X205452752Y-119205893D01*
X205449024Y-119279414D01*
X205443355Y-119301308D01*
X205441421Y-119320947D01*
X205419909Y-119391859D01*
X205400717Y-119465987D01*
X205392085Y-119483582D01*
X205387235Y-119499574D01*
X205350866Y-119567614D01*
X205315842Y-119639017D01*
X205305692Y-119652129D01*
X205299243Y-119664195D01*
X205248366Y-119726187D01*
X205197873Y-119791420D01*
X205187579Y-119800256D01*
X205180821Y-119808492D01*
X205116428Y-119861337D01*
X205051641Y-119916956D01*
X205042424Y-119922071D01*
X205036524Y-119926914D01*
X204960184Y-119967718D01*
X204883132Y-120010486D01*
X204875965Y-120012734D01*
X204871903Y-120014906D01*
X204785708Y-120041052D01*
X204699245Y-120068181D01*
X204694783Y-120068634D01*
X204693276Y-120069092D01*
X204598243Y-120078451D01*
X204507508Y-120087679D01*
X204504561Y-120087679D01*
X204415455Y-120087679D01*
X204412508Y-120087679D01*
X204316145Y-120082792D01*
X204270409Y-120073393D01*
X204226739Y-120069092D01*
X204178976Y-120054603D01*
X204127365Y-120043997D01*
X204087219Y-120026769D01*
X204048112Y-120014906D01*
X204001428Y-119989953D01*
X203950258Y-119967994D01*
X203916871Y-119944756D01*
X203883491Y-119926914D01*
X203840243Y-119891421D01*
X203792076Y-119857896D01*
X203766116Y-119830587D01*
X203739194Y-119808492D01*
X203701791Y-119762917D01*
X203659294Y-119718210D01*
X203640955Y-119688788D01*
X203620772Y-119664195D01*
X203591549Y-119609524D01*
X203557349Y-119554654D01*
X203546357Y-119524975D01*
X203532780Y-119499574D01*
X203513904Y-119437349D01*
X203490415Y-119373926D01*
X203486078Y-119345621D01*
X203478594Y-119320947D01*
X203471923Y-119253221D01*
X203461231Y-119183422D01*
X203462528Y-119157829D01*
X203460298Y-119135178D01*
X203467264Y-119064440D01*
X203470992Y-118990944D01*
X203476659Y-118969056D01*
X203478594Y-118949410D01*
X203500113Y-118878469D01*
X203519299Y-118804371D01*
X203527926Y-118786782D01*
X203532780Y-118770783D01*
X203569166Y-118702708D01*
X203604174Y-118631341D01*
X203614318Y-118618234D01*
X203620772Y-118606162D01*
X203671679Y-118544131D01*
X203722143Y-118478938D01*
X203732430Y-118470106D01*
X203739194Y-118461865D01*
X203803635Y-118408978D01*
X203868375Y-118353402D01*
X203877584Y-118348290D01*
X203883491Y-118343443D01*
X203959905Y-118302598D01*
X204036884Y-118259872D01*
X204044043Y-118257625D01*
X204048112Y-118255451D01*
X204134432Y-118229265D01*
X204220771Y-118202177D01*
X204225225Y-118201723D01*
X204226739Y-118201265D01*
X204321942Y-118191888D01*
X204412508Y-118182679D01*
X204507508Y-118182679D01*
X204603871Y-118187566D01*
G37*
G36*
X132396743Y-115345123D02*
G01*
X132457869Y-115345123D01*
X132512427Y-115354227D01*
X132568623Y-115358650D01*
X132636304Y-115374899D01*
X132702228Y-115385900D01*
X132748986Y-115401952D01*
X132797465Y-115413591D01*
X132868026Y-115442818D01*
X132936543Y-115466340D01*
X132974813Y-115487050D01*
X133014902Y-115503656D01*
X133085959Y-115547200D01*
X133154422Y-115584250D01*
X133184046Y-115607307D01*
X133215568Y-115626624D01*
X133284449Y-115685454D01*
X133349922Y-115736414D01*
X133371281Y-115759616D01*
X133394528Y-115779471D01*
X133458365Y-115854214D01*
X133517711Y-115918681D01*
X133531659Y-115940030D01*
X133547375Y-115958431D01*
X133603221Y-116049564D01*
X133653211Y-116126079D01*
X133661022Y-116143886D01*
X133670343Y-116159097D01*
X133715261Y-116267540D01*
X133752726Y-116352951D01*
X133756008Y-116365911D01*
X133760408Y-116376534D01*
X133791623Y-116506553D01*
X133813542Y-116593108D01*
X133814141Y-116600348D01*
X133815349Y-116605376D01*
X133830297Y-116795322D01*
X133834000Y-116840000D01*
X133830295Y-116884711D01*
X133815349Y-117074623D01*
X133814142Y-117079650D01*
X133813542Y-117086892D01*
X133791618Y-117173464D01*
X133760408Y-117303465D01*
X133756008Y-117314085D01*
X133752726Y-117327049D01*
X133715254Y-117412476D01*
X133670343Y-117520902D01*
X133661023Y-117536109D01*
X133653211Y-117553921D01*
X133603211Y-117630450D01*
X133547375Y-117721568D01*
X133531661Y-117739965D01*
X133517711Y-117761319D01*
X133458353Y-117825798D01*
X133394528Y-117900528D01*
X133371285Y-117920378D01*
X133349922Y-117943586D01*
X133284436Y-117994555D01*
X133215568Y-118053375D01*
X133184052Y-118072687D01*
X133154422Y-118095750D01*
X133085945Y-118132807D01*
X133014902Y-118176343D01*
X132974820Y-118192945D01*
X132936543Y-118213660D01*
X132868011Y-118237186D01*
X132797465Y-118266408D01*
X132748996Y-118278044D01*
X132702228Y-118294100D01*
X132636290Y-118305103D01*
X132568623Y-118321349D01*
X132512439Y-118325770D01*
X132457869Y-118334877D01*
X132396731Y-118334877D01*
X132333999Y-118339814D01*
X132271268Y-118334877D01*
X132210131Y-118334877D01*
X132155561Y-118325770D01*
X132099376Y-118321349D01*
X132031706Y-118305102D01*
X131965772Y-118294100D01*
X131919005Y-118278045D01*
X131870534Y-118266408D01*
X131799982Y-118237184D01*
X131731457Y-118213660D01*
X131693182Y-118192946D01*
X131653097Y-118176343D01*
X131582045Y-118132802D01*
X131513578Y-118095750D01*
X131483951Y-118072690D01*
X131452431Y-118053375D01*
X131383552Y-117994546D01*
X131318078Y-117943586D01*
X131296717Y-117920382D01*
X131273471Y-117900528D01*
X131209632Y-117825783D01*
X131150289Y-117761319D01*
X131136341Y-117739970D01*
X131120624Y-117721568D01*
X131064771Y-117630425D01*
X131014789Y-117553921D01*
X131006978Y-117536115D01*
X130997656Y-117520902D01*
X130952727Y-117412435D01*
X130915274Y-117327049D01*
X130911992Y-117314092D01*
X130907591Y-117303465D01*
X130876361Y-117173388D01*
X130854458Y-117086892D01*
X130853858Y-117079656D01*
X130852650Y-117074623D01*
X130837684Y-116884471D01*
X130834000Y-116840000D01*
X130837682Y-116795562D01*
X130852650Y-116605376D01*
X130853858Y-116600342D01*
X130854458Y-116593108D01*
X130876357Y-116506629D01*
X130907591Y-116376534D01*
X130911993Y-116365905D01*
X130915274Y-116352951D01*
X130952720Y-116267581D01*
X130997656Y-116159097D01*
X131006980Y-116143881D01*
X131014789Y-116126079D01*
X131064762Y-116049589D01*
X131120624Y-115958431D01*
X131136344Y-115940025D01*
X131150289Y-115918681D01*
X131209620Y-115854229D01*
X131273471Y-115779471D01*
X131296722Y-115759612D01*
X131318078Y-115736414D01*
X131383539Y-115685463D01*
X131452431Y-115626624D01*
X131483957Y-115607304D01*
X131513578Y-115584250D01*
X131582031Y-115547204D01*
X131653097Y-115503656D01*
X131693190Y-115487048D01*
X131731457Y-115466340D01*
X131799968Y-115442820D01*
X131870534Y-115413591D01*
X131919015Y-115401951D01*
X131965772Y-115385900D01*
X132031692Y-115374899D01*
X132099376Y-115358650D01*
X132155573Y-115354227D01*
X132210131Y-115345123D01*
X132271255Y-115345123D01*
X132333999Y-115340185D01*
X132396743Y-115345123D01*
G37*
G36*
X137222743Y-115345123D02*
G01*
X137283869Y-115345123D01*
X137338427Y-115354227D01*
X137394623Y-115358650D01*
X137462304Y-115374899D01*
X137528228Y-115385900D01*
X137574986Y-115401952D01*
X137623465Y-115413591D01*
X137694026Y-115442818D01*
X137762543Y-115466340D01*
X137800813Y-115487050D01*
X137840902Y-115503656D01*
X137911959Y-115547200D01*
X137980422Y-115584250D01*
X138010046Y-115607307D01*
X138041568Y-115626624D01*
X138110449Y-115685454D01*
X138175922Y-115736414D01*
X138197281Y-115759616D01*
X138220528Y-115779471D01*
X138284365Y-115854214D01*
X138343711Y-115918681D01*
X138357659Y-115940030D01*
X138373375Y-115958431D01*
X138429221Y-116049564D01*
X138479211Y-116126079D01*
X138487022Y-116143886D01*
X138496343Y-116159097D01*
X138541261Y-116267540D01*
X138578726Y-116352951D01*
X138582008Y-116365911D01*
X138586408Y-116376534D01*
X138617623Y-116506553D01*
X138639542Y-116593108D01*
X138640141Y-116600348D01*
X138641349Y-116605376D01*
X138656296Y-116795307D01*
X138660000Y-116840000D01*
X138656296Y-116884696D01*
X138641349Y-117074623D01*
X138640142Y-117079650D01*
X138639542Y-117086892D01*
X138617618Y-117173464D01*
X138586408Y-117303465D01*
X138582008Y-117314085D01*
X138578726Y-117327049D01*
X138541254Y-117412476D01*
X138496343Y-117520902D01*
X138487023Y-117536109D01*
X138479211Y-117553921D01*
X138429211Y-117630450D01*
X138373375Y-117721568D01*
X138357661Y-117739965D01*
X138343711Y-117761319D01*
X138284353Y-117825798D01*
X138220528Y-117900528D01*
X138197285Y-117920378D01*
X138175922Y-117943586D01*
X138110436Y-117994555D01*
X138041568Y-118053375D01*
X138010052Y-118072687D01*
X137980422Y-118095750D01*
X137911945Y-118132807D01*
X137840902Y-118176343D01*
X137800820Y-118192945D01*
X137762543Y-118213660D01*
X137694011Y-118237186D01*
X137623465Y-118266408D01*
X137574996Y-118278044D01*
X137528228Y-118294100D01*
X137462290Y-118305103D01*
X137394623Y-118321349D01*
X137338439Y-118325770D01*
X137283869Y-118334877D01*
X137222731Y-118334877D01*
X137160000Y-118339814D01*
X137097268Y-118334877D01*
X137036131Y-118334877D01*
X136981561Y-118325770D01*
X136925376Y-118321349D01*
X136857706Y-118305102D01*
X136791772Y-118294100D01*
X136745005Y-118278045D01*
X136696534Y-118266408D01*
X136625982Y-118237184D01*
X136557457Y-118213660D01*
X136519182Y-118192946D01*
X136479097Y-118176343D01*
X136408045Y-118132802D01*
X136339578Y-118095750D01*
X136309951Y-118072690D01*
X136278431Y-118053375D01*
X136209552Y-117994546D01*
X136144078Y-117943586D01*
X136122717Y-117920382D01*
X136099471Y-117900528D01*
X136035632Y-117825783D01*
X135976289Y-117761319D01*
X135962341Y-117739970D01*
X135946624Y-117721568D01*
X135890771Y-117630425D01*
X135840789Y-117553921D01*
X135832978Y-117536115D01*
X135823656Y-117520902D01*
X135778727Y-117412435D01*
X135741274Y-117327049D01*
X135737992Y-117314092D01*
X135733591Y-117303465D01*
X135702361Y-117173388D01*
X135680458Y-117086892D01*
X135679858Y-117079656D01*
X135678650Y-117074623D01*
X135663684Y-116884471D01*
X135660000Y-116840000D01*
X135663682Y-116795562D01*
X135678650Y-116605376D01*
X135679858Y-116600342D01*
X135680458Y-116593108D01*
X135702357Y-116506629D01*
X135733591Y-116376534D01*
X135737993Y-116365905D01*
X135741274Y-116352951D01*
X135778720Y-116267581D01*
X135823656Y-116159097D01*
X135832980Y-116143881D01*
X135840789Y-116126079D01*
X135890762Y-116049589D01*
X135946624Y-115958431D01*
X135962344Y-115940025D01*
X135976289Y-115918681D01*
X136035620Y-115854229D01*
X136099471Y-115779471D01*
X136122722Y-115759612D01*
X136144078Y-115736414D01*
X136209539Y-115685463D01*
X136278431Y-115626624D01*
X136309957Y-115607304D01*
X136339578Y-115584250D01*
X136408031Y-115547204D01*
X136479097Y-115503656D01*
X136519190Y-115487048D01*
X136557457Y-115466340D01*
X136625968Y-115442820D01*
X136696534Y-115413591D01*
X136745015Y-115401951D01*
X136791772Y-115385900D01*
X136857692Y-115374899D01*
X136925376Y-115358650D01*
X136981573Y-115354227D01*
X137036131Y-115345123D01*
X137097255Y-115345123D01*
X137159999Y-115340185D01*
X137222743Y-115345123D01*
G37*
G36*
X204603871Y-115647566D02*
G01*
X204649599Y-115656963D01*
X204693276Y-115661265D01*
X204741046Y-115675756D01*
X204792651Y-115686361D01*
X204832790Y-115703586D01*
X204871903Y-115715451D01*
X204918591Y-115740406D01*
X204969758Y-115762364D01*
X205003141Y-115785599D01*
X205036524Y-115803443D01*
X205079773Y-115838937D01*
X205127940Y-115872462D01*
X205153898Y-115899770D01*
X205180821Y-115921865D01*
X205218222Y-115967439D01*
X205260722Y-116012148D01*
X205279060Y-116041570D01*
X205299243Y-116066162D01*
X205328463Y-116120828D01*
X205362667Y-116175704D01*
X205373659Y-116205385D01*
X205387235Y-116230783D01*
X205406107Y-116292998D01*
X205429601Y-116356432D01*
X205433937Y-116384741D01*
X205441421Y-116409410D01*
X205448089Y-116477119D01*
X205458785Y-116546936D01*
X205457486Y-116572534D01*
X205459717Y-116595179D01*
X205452752Y-116665894D01*
X205449024Y-116739414D01*
X205443355Y-116761308D01*
X205441421Y-116780947D01*
X205419909Y-116851859D01*
X205400717Y-116925987D01*
X205392085Y-116943582D01*
X205387235Y-116959574D01*
X205350866Y-117027614D01*
X205315842Y-117099017D01*
X205305692Y-117112129D01*
X205299243Y-117124195D01*
X205248366Y-117186187D01*
X205197873Y-117251420D01*
X205187579Y-117260256D01*
X205180821Y-117268492D01*
X205116428Y-117321337D01*
X205051641Y-117376956D01*
X205042424Y-117382071D01*
X205036524Y-117386914D01*
X204960184Y-117427718D01*
X204883132Y-117470486D01*
X204875965Y-117472734D01*
X204871903Y-117474906D01*
X204785708Y-117501052D01*
X204699245Y-117528181D01*
X204694783Y-117528634D01*
X204693276Y-117529092D01*
X204598243Y-117538451D01*
X204507508Y-117547679D01*
X204504561Y-117547679D01*
X204415455Y-117547679D01*
X204412508Y-117547679D01*
X204316145Y-117542792D01*
X204270409Y-117533393D01*
X204226739Y-117529092D01*
X204178976Y-117514603D01*
X204127365Y-117503997D01*
X204087219Y-117486769D01*
X204048112Y-117474906D01*
X204001428Y-117449953D01*
X203950258Y-117427994D01*
X203916871Y-117404756D01*
X203883491Y-117386914D01*
X203840243Y-117351421D01*
X203792076Y-117317896D01*
X203766116Y-117290587D01*
X203739194Y-117268492D01*
X203701791Y-117222917D01*
X203659294Y-117178210D01*
X203640955Y-117148788D01*
X203620772Y-117124195D01*
X203591549Y-117069524D01*
X203557349Y-117014654D01*
X203546357Y-116984975D01*
X203532780Y-116959574D01*
X203513904Y-116897349D01*
X203490415Y-116833926D01*
X203486078Y-116805621D01*
X203478594Y-116780947D01*
X203471923Y-116713221D01*
X203461231Y-116643422D01*
X203462528Y-116617829D01*
X203460298Y-116595179D01*
X203467264Y-116524441D01*
X203470992Y-116450944D01*
X203476659Y-116429056D01*
X203478594Y-116409410D01*
X203500113Y-116338469D01*
X203519299Y-116264371D01*
X203527926Y-116246782D01*
X203532780Y-116230783D01*
X203569166Y-116162708D01*
X203604174Y-116091341D01*
X203614318Y-116078234D01*
X203620772Y-116066162D01*
X203671679Y-116004131D01*
X203722143Y-115938938D01*
X203732430Y-115930106D01*
X203739194Y-115921865D01*
X203803635Y-115868978D01*
X203868375Y-115813402D01*
X203877584Y-115808290D01*
X203883491Y-115803443D01*
X203959905Y-115762598D01*
X204036884Y-115719872D01*
X204044043Y-115717625D01*
X204048112Y-115715451D01*
X204134432Y-115689265D01*
X204220771Y-115662177D01*
X204225225Y-115661723D01*
X204226739Y-115661265D01*
X204321942Y-115651888D01*
X204412508Y-115642679D01*
X204507508Y-115642679D01*
X204603871Y-115647566D01*
G37*
G36*
X181591600Y-115086100D02*
G01*
X179591600Y-115086100D01*
X179591600Y-113181100D01*
X181591600Y-113181100D01*
X181591600Y-115086100D01*
G37*
G36*
X118493500Y-114429500D02*
G01*
X117218500Y-114429500D01*
X117218500Y-113154500D01*
X118493500Y-113154500D01*
X118493500Y-114429500D01*
G37*
G36*
X164321012Y-109887476D02*
G01*
X164570947Y-109964571D01*
X164806600Y-110078056D01*
X165022707Y-110225395D01*
X165214441Y-110403298D01*
X165377518Y-110607790D01*
X165508296Y-110834303D01*
X165603852Y-111077778D01*
X165662054Y-111332776D01*
X165681600Y-111593600D01*
X165662054Y-111854424D01*
X165603852Y-112109422D01*
X165508296Y-112352897D01*
X165377518Y-112579410D01*
X165214441Y-112783902D01*
X165022707Y-112961805D01*
X164806600Y-113109144D01*
X164570947Y-113222629D01*
X164321012Y-113299724D01*
X164062378Y-113338707D01*
X163800822Y-113338707D01*
X163542188Y-113299724D01*
X163292253Y-113222629D01*
X163056600Y-113109144D01*
X162840493Y-112961805D01*
X162648759Y-112783902D01*
X162485682Y-112579410D01*
X162354904Y-112352897D01*
X162259348Y-112109422D01*
X162201146Y-111854424D01*
X162181600Y-111593600D01*
X162201146Y-111332776D01*
X162259348Y-111077778D01*
X162354904Y-110834303D01*
X162485682Y-110607790D01*
X162648759Y-110403298D01*
X162840493Y-110225395D01*
X163056600Y-110078056D01*
X163292253Y-109964571D01*
X163542188Y-109887476D01*
X163800822Y-109848493D01*
X164062378Y-109848493D01*
X164321012Y-109887476D01*
G37*
G36*
X125792743Y-109757123D02*
G01*
X125853869Y-109757123D01*
X125908427Y-109766227D01*
X125964623Y-109770650D01*
X126032304Y-109786899D01*
X126098228Y-109797900D01*
X126144986Y-109813952D01*
X126193465Y-109825591D01*
X126264026Y-109854818D01*
X126332543Y-109878340D01*
X126370813Y-109899050D01*
X126410902Y-109915656D01*
X126481959Y-109959200D01*
X126550422Y-109996250D01*
X126580046Y-110019307D01*
X126611568Y-110038624D01*
X126680449Y-110097454D01*
X126745922Y-110148414D01*
X126767281Y-110171616D01*
X126790528Y-110191471D01*
X126854365Y-110266214D01*
X126913711Y-110330681D01*
X126927659Y-110352030D01*
X126943375Y-110370431D01*
X126999221Y-110461564D01*
X127049211Y-110538079D01*
X127057022Y-110555886D01*
X127066343Y-110571097D01*
X127111261Y-110679540D01*
X127148726Y-110764951D01*
X127152008Y-110777911D01*
X127156408Y-110788534D01*
X127187623Y-110918553D01*
X127209542Y-111005108D01*
X127210141Y-111012348D01*
X127211349Y-111017376D01*
X127226297Y-111207322D01*
X127230000Y-111252000D01*
X127226295Y-111296711D01*
X127211349Y-111486623D01*
X127210142Y-111491650D01*
X127209542Y-111498892D01*
X127187618Y-111585464D01*
X127156408Y-111715465D01*
X127152008Y-111726085D01*
X127148726Y-111739049D01*
X127111254Y-111824476D01*
X127066343Y-111932902D01*
X127057023Y-111948109D01*
X127049211Y-111965921D01*
X126999211Y-112042450D01*
X126943375Y-112133568D01*
X126927661Y-112151965D01*
X126913711Y-112173319D01*
X126854353Y-112237798D01*
X126790528Y-112312528D01*
X126767285Y-112332378D01*
X126745922Y-112355586D01*
X126680436Y-112406555D01*
X126611568Y-112465375D01*
X126580052Y-112484687D01*
X126550422Y-112507750D01*
X126481945Y-112544807D01*
X126410902Y-112588343D01*
X126370820Y-112604945D01*
X126332543Y-112625660D01*
X126264011Y-112649186D01*
X126193465Y-112678408D01*
X126144996Y-112690044D01*
X126098228Y-112706100D01*
X126032290Y-112717103D01*
X125964623Y-112733349D01*
X125908439Y-112737770D01*
X125853869Y-112746877D01*
X125792731Y-112746877D01*
X125729999Y-112751814D01*
X125667268Y-112746877D01*
X125606131Y-112746877D01*
X125551561Y-112737770D01*
X125495376Y-112733349D01*
X125427706Y-112717102D01*
X125361772Y-112706100D01*
X125315005Y-112690045D01*
X125266534Y-112678408D01*
X125195982Y-112649184D01*
X125127457Y-112625660D01*
X125089182Y-112604946D01*
X125049097Y-112588343D01*
X124978045Y-112544802D01*
X124909578Y-112507750D01*
X124879951Y-112484690D01*
X124848431Y-112465375D01*
X124779552Y-112406546D01*
X124714078Y-112355586D01*
X124692717Y-112332382D01*
X124669471Y-112312528D01*
X124605632Y-112237783D01*
X124546289Y-112173319D01*
X124532341Y-112151970D01*
X124516624Y-112133568D01*
X124460771Y-112042425D01*
X124410789Y-111965921D01*
X124402978Y-111948115D01*
X124393656Y-111932902D01*
X124348727Y-111824435D01*
X124311274Y-111739049D01*
X124307992Y-111726092D01*
X124303591Y-111715465D01*
X124272361Y-111585388D01*
X124250458Y-111498892D01*
X124249858Y-111491656D01*
X124248650Y-111486623D01*
X124233684Y-111296471D01*
X124230000Y-111252000D01*
X124233682Y-111207562D01*
X124248650Y-111017376D01*
X124249858Y-111012342D01*
X124250458Y-111005108D01*
X124272357Y-110918629D01*
X124303591Y-110788534D01*
X124307993Y-110777905D01*
X124311274Y-110764951D01*
X124348720Y-110679581D01*
X124393656Y-110571097D01*
X124402980Y-110555881D01*
X124410789Y-110538079D01*
X124460762Y-110461589D01*
X124516624Y-110370431D01*
X124532344Y-110352025D01*
X124546289Y-110330681D01*
X124605620Y-110266229D01*
X124669471Y-110191471D01*
X124692722Y-110171612D01*
X124714078Y-110148414D01*
X124779539Y-110097463D01*
X124848431Y-110038624D01*
X124879957Y-110019304D01*
X124909578Y-109996250D01*
X124978031Y-109959204D01*
X125049097Y-109915656D01*
X125089190Y-109899048D01*
X125127457Y-109878340D01*
X125195968Y-109854820D01*
X125266534Y-109825591D01*
X125315015Y-109813951D01*
X125361772Y-109797900D01*
X125427692Y-109786899D01*
X125495376Y-109770650D01*
X125551573Y-109766227D01*
X125606131Y-109757123D01*
X125667255Y-109757123D01*
X125729999Y-109752185D01*
X125792743Y-109757123D01*
G37*
G36*
X130364744Y-109757123D02*
G01*
X130425869Y-109757123D01*
X130480427Y-109766227D01*
X130536623Y-109770650D01*
X130604304Y-109786899D01*
X130670228Y-109797900D01*
X130716986Y-109813952D01*
X130765465Y-109825591D01*
X130836026Y-109854818D01*
X130904543Y-109878340D01*
X130942813Y-109899050D01*
X130982902Y-109915656D01*
X131053959Y-109959200D01*
X131122422Y-109996250D01*
X131152046Y-110019307D01*
X131183568Y-110038624D01*
X131252449Y-110097454D01*
X131317922Y-110148414D01*
X131339281Y-110171616D01*
X131362528Y-110191471D01*
X131426365Y-110266214D01*
X131485711Y-110330681D01*
X131499659Y-110352030D01*
X131515375Y-110370431D01*
X131571221Y-110461564D01*
X131621211Y-110538079D01*
X131629022Y-110555886D01*
X131638343Y-110571097D01*
X131683261Y-110679540D01*
X131720726Y-110764951D01*
X131724008Y-110777911D01*
X131728408Y-110788534D01*
X131759623Y-110918553D01*
X131781542Y-111005108D01*
X131782141Y-111012348D01*
X131783349Y-111017376D01*
X131798297Y-111207322D01*
X131802000Y-111252000D01*
X131798295Y-111296711D01*
X131783349Y-111486623D01*
X131782142Y-111491650D01*
X131781542Y-111498892D01*
X131759618Y-111585464D01*
X131728408Y-111715465D01*
X131724008Y-111726085D01*
X131720726Y-111739049D01*
X131683254Y-111824476D01*
X131638343Y-111932902D01*
X131629023Y-111948109D01*
X131621211Y-111965921D01*
X131571211Y-112042450D01*
X131515375Y-112133568D01*
X131499661Y-112151965D01*
X131485711Y-112173319D01*
X131426353Y-112237798D01*
X131362528Y-112312528D01*
X131339285Y-112332378D01*
X131317922Y-112355586D01*
X131252436Y-112406555D01*
X131183568Y-112465375D01*
X131152052Y-112484687D01*
X131122422Y-112507750D01*
X131053945Y-112544807D01*
X130982902Y-112588343D01*
X130942820Y-112604945D01*
X130904543Y-112625660D01*
X130836011Y-112649186D01*
X130765465Y-112678408D01*
X130716996Y-112690044D01*
X130670228Y-112706100D01*
X130604290Y-112717103D01*
X130536623Y-112733349D01*
X130480439Y-112737770D01*
X130425869Y-112746877D01*
X130364731Y-112746877D01*
X130302000Y-112751814D01*
X130239268Y-112746877D01*
X130178131Y-112746877D01*
X130123561Y-112737770D01*
X130067376Y-112733349D01*
X129999706Y-112717102D01*
X129933772Y-112706100D01*
X129887005Y-112690045D01*
X129838534Y-112678408D01*
X129767982Y-112649184D01*
X129699457Y-112625660D01*
X129661182Y-112604946D01*
X129621097Y-112588343D01*
X129550045Y-112544802D01*
X129481578Y-112507750D01*
X129451951Y-112484690D01*
X129420431Y-112465375D01*
X129351552Y-112406546D01*
X129286078Y-112355586D01*
X129264717Y-112332382D01*
X129241471Y-112312528D01*
X129177632Y-112237783D01*
X129118289Y-112173319D01*
X129104341Y-112151970D01*
X129088624Y-112133568D01*
X129032771Y-112042425D01*
X128982789Y-111965921D01*
X128974978Y-111948115D01*
X128965656Y-111932902D01*
X128920727Y-111824435D01*
X128883274Y-111739049D01*
X128879992Y-111726092D01*
X128875591Y-111715465D01*
X128844361Y-111585388D01*
X128822458Y-111498892D01*
X128821858Y-111491656D01*
X128820650Y-111486623D01*
X128805684Y-111296471D01*
X128802000Y-111252000D01*
X128805682Y-111207562D01*
X128820650Y-111017376D01*
X128821858Y-111012342D01*
X128822458Y-111005108D01*
X128844357Y-110918629D01*
X128875591Y-110788534D01*
X128879993Y-110777905D01*
X128883274Y-110764951D01*
X128920720Y-110679581D01*
X128965656Y-110571097D01*
X128974980Y-110555881D01*
X128982789Y-110538079D01*
X129032762Y-110461589D01*
X129088624Y-110370431D01*
X129104344Y-110352025D01*
X129118289Y-110330681D01*
X129177620Y-110266229D01*
X129241471Y-110191471D01*
X129264722Y-110171612D01*
X129286078Y-110148414D01*
X129351539Y-110097463D01*
X129420431Y-110038624D01*
X129451957Y-110019304D01*
X129481578Y-109996250D01*
X129550031Y-109959204D01*
X129621097Y-109915656D01*
X129661190Y-109899048D01*
X129699457Y-109878340D01*
X129767968Y-109854820D01*
X129838534Y-109825591D01*
X129887015Y-109813951D01*
X129933772Y-109797900D01*
X129999692Y-109786899D01*
X130067376Y-109770650D01*
X130123573Y-109766227D01*
X130178131Y-109757123D01*
X130239256Y-109757123D01*
X130302000Y-109752185D01*
X130364744Y-109757123D01*
G37*
G36*
X180735463Y-110645987D02*
G01*
X180781191Y-110655384D01*
X180824868Y-110659686D01*
X180872638Y-110674177D01*
X180924243Y-110684782D01*
X180964382Y-110702007D01*
X181003495Y-110713872D01*
X181050183Y-110738827D01*
X181101350Y-110760785D01*
X181134733Y-110784020D01*
X181168116Y-110801864D01*
X181211365Y-110837358D01*
X181259532Y-110870883D01*
X181285490Y-110898191D01*
X181312413Y-110920286D01*
X181349814Y-110965860D01*
X181392314Y-111010569D01*
X181410652Y-111039991D01*
X181430835Y-111064583D01*
X181460055Y-111119249D01*
X181494259Y-111174125D01*
X181505251Y-111203806D01*
X181518827Y-111229204D01*
X181537699Y-111291419D01*
X181561193Y-111354853D01*
X181565529Y-111383162D01*
X181573013Y-111407831D01*
X181579681Y-111475541D01*
X181590377Y-111545357D01*
X181589078Y-111570955D01*
X181591309Y-111593599D01*
X181584344Y-111664314D01*
X181580616Y-111737835D01*
X181574947Y-111759729D01*
X181573013Y-111779368D01*
X181551501Y-111850280D01*
X181532309Y-111924408D01*
X181523677Y-111942003D01*
X181518827Y-111957995D01*
X181482458Y-112026035D01*
X181447434Y-112097438D01*
X181437284Y-112110550D01*
X181430835Y-112122616D01*
X181379958Y-112184608D01*
X181329465Y-112249841D01*
X181319171Y-112258677D01*
X181312413Y-112266913D01*
X181248020Y-112319758D01*
X181183233Y-112375377D01*
X181174016Y-112380492D01*
X181168116Y-112385335D01*
X181091776Y-112426139D01*
X181014724Y-112468907D01*
X181007557Y-112471155D01*
X181003495Y-112473327D01*
X180917300Y-112499473D01*
X180830837Y-112526602D01*
X180826375Y-112527055D01*
X180824868Y-112527513D01*
X180729835Y-112536872D01*
X180639100Y-112546100D01*
X180636153Y-112546100D01*
X180547047Y-112546100D01*
X180544100Y-112546100D01*
X180447737Y-112541213D01*
X180402001Y-112531814D01*
X180358331Y-112527513D01*
X180310568Y-112513024D01*
X180258957Y-112502418D01*
X180218811Y-112485190D01*
X180179704Y-112473327D01*
X180133020Y-112448374D01*
X180081850Y-112426415D01*
X180048463Y-112403177D01*
X180015083Y-112385335D01*
X179971835Y-112349842D01*
X179923668Y-112316317D01*
X179897708Y-112289008D01*
X179870786Y-112266913D01*
X179833383Y-112221338D01*
X179790886Y-112176631D01*
X179772547Y-112147209D01*
X179752364Y-112122616D01*
X179723141Y-112067945D01*
X179688941Y-112013075D01*
X179677949Y-111983396D01*
X179664372Y-111957995D01*
X179645496Y-111895770D01*
X179622007Y-111832347D01*
X179617670Y-111804042D01*
X179610186Y-111779368D01*
X179603515Y-111711642D01*
X179592823Y-111641843D01*
X179594120Y-111616250D01*
X179591890Y-111593600D01*
X179598856Y-111522862D01*
X179602584Y-111449365D01*
X179608251Y-111427477D01*
X179610186Y-111407831D01*
X179631705Y-111336890D01*
X179650891Y-111262792D01*
X179659518Y-111245203D01*
X179664372Y-111229204D01*
X179700758Y-111161129D01*
X179735766Y-111089762D01*
X179745910Y-111076655D01*
X179752364Y-111064583D01*
X179803271Y-111002552D01*
X179853735Y-110937359D01*
X179864022Y-110928527D01*
X179870786Y-110920286D01*
X179935227Y-110867399D01*
X179999967Y-110811823D01*
X180009176Y-110806711D01*
X180015083Y-110801864D01*
X180091497Y-110761019D01*
X180168476Y-110718293D01*
X180175635Y-110716046D01*
X180179704Y-110713872D01*
X180266024Y-110687686D01*
X180352363Y-110660598D01*
X180356817Y-110660144D01*
X180358331Y-110659686D01*
X180453534Y-110650309D01*
X180544100Y-110641100D01*
X180639100Y-110641100D01*
X180735463Y-110645987D01*
G37*
G36*
X118082061Y-109695927D02*
G01*
X118218141Y-109767348D01*
X118333176Y-109869259D01*
X118420478Y-109995739D01*
X118474975Y-110139436D01*
X118493500Y-110292000D01*
X118474975Y-110444564D01*
X118420478Y-110588261D01*
X118333176Y-110714741D01*
X118218141Y-110816652D01*
X118082061Y-110888073D01*
X117932842Y-110924852D01*
X117779158Y-110924852D01*
X117629939Y-110888073D01*
X117493859Y-110816652D01*
X117378824Y-110714741D01*
X117291522Y-110588261D01*
X117237025Y-110444564D01*
X117218500Y-110292000D01*
X117237025Y-110139436D01*
X117291522Y-109995739D01*
X117378824Y-109869259D01*
X117493859Y-109767348D01*
X117629939Y-109695927D01*
X117779158Y-109659148D01*
X117932842Y-109659148D01*
X118082061Y-109695927D01*
G37*
G36*
X134899400Y-110451900D02*
G01*
X133781800Y-110451900D01*
X133781800Y-109004100D01*
X134899400Y-109004100D01*
X134899400Y-110451900D01*
G37*
G36*
X136702800Y-110451900D02*
G01*
X135585200Y-110451900D01*
X135585200Y-109004100D01*
X136702800Y-109004100D01*
X136702800Y-110451900D01*
G37*
G36*
X180735463Y-108105987D02*
G01*
X180781191Y-108115384D01*
X180824868Y-108119686D01*
X180872638Y-108134177D01*
X180924243Y-108144782D01*
X180964382Y-108162007D01*
X181003495Y-108173872D01*
X181050183Y-108198827D01*
X181101350Y-108220785D01*
X181134733Y-108244020D01*
X181168116Y-108261864D01*
X181211365Y-108297358D01*
X181259532Y-108330883D01*
X181285490Y-108358191D01*
X181312413Y-108380286D01*
X181349814Y-108425860D01*
X181392314Y-108470569D01*
X181410652Y-108499991D01*
X181430835Y-108524583D01*
X181460055Y-108579249D01*
X181494259Y-108634125D01*
X181505251Y-108663806D01*
X181518827Y-108689204D01*
X181537699Y-108751419D01*
X181561193Y-108814853D01*
X181565529Y-108843162D01*
X181573013Y-108867831D01*
X181579681Y-108935541D01*
X181590377Y-109005357D01*
X181589078Y-109030955D01*
X181591309Y-109053599D01*
X181584344Y-109124314D01*
X181580616Y-109197835D01*
X181574947Y-109219729D01*
X181573013Y-109239368D01*
X181551501Y-109310280D01*
X181532309Y-109384408D01*
X181523677Y-109402003D01*
X181518827Y-109417995D01*
X181482458Y-109486035D01*
X181447434Y-109557438D01*
X181437284Y-109570550D01*
X181430835Y-109582616D01*
X181379958Y-109644608D01*
X181329465Y-109709841D01*
X181319171Y-109718677D01*
X181312413Y-109726913D01*
X181248020Y-109779758D01*
X181183233Y-109835377D01*
X181174016Y-109840492D01*
X181168116Y-109845335D01*
X181091776Y-109886139D01*
X181014724Y-109928907D01*
X181007557Y-109931155D01*
X181003495Y-109933327D01*
X180917300Y-109959473D01*
X180830837Y-109986602D01*
X180826375Y-109987055D01*
X180824868Y-109987513D01*
X180729835Y-109996872D01*
X180639100Y-110006100D01*
X180636153Y-110006100D01*
X180547047Y-110006100D01*
X180544100Y-110006100D01*
X180447737Y-110001213D01*
X180402001Y-109991814D01*
X180358331Y-109987513D01*
X180310568Y-109973024D01*
X180258957Y-109962418D01*
X180218811Y-109945190D01*
X180179704Y-109933327D01*
X180133020Y-109908374D01*
X180081850Y-109886415D01*
X180048463Y-109863177D01*
X180015083Y-109845335D01*
X179971835Y-109809842D01*
X179923668Y-109776317D01*
X179897708Y-109749008D01*
X179870786Y-109726913D01*
X179833383Y-109681338D01*
X179790886Y-109636631D01*
X179772547Y-109607209D01*
X179752364Y-109582616D01*
X179723141Y-109527945D01*
X179688941Y-109473075D01*
X179677949Y-109443396D01*
X179664372Y-109417995D01*
X179645496Y-109355770D01*
X179622007Y-109292347D01*
X179617670Y-109264042D01*
X179610186Y-109239368D01*
X179603515Y-109171642D01*
X179592823Y-109101843D01*
X179594120Y-109076250D01*
X179591890Y-109053600D01*
X179598856Y-108982862D01*
X179602584Y-108909365D01*
X179608251Y-108887477D01*
X179610186Y-108867831D01*
X179631705Y-108796890D01*
X179650891Y-108722792D01*
X179659518Y-108705203D01*
X179664372Y-108689204D01*
X179700758Y-108621129D01*
X179735766Y-108549762D01*
X179745910Y-108536655D01*
X179752364Y-108524583D01*
X179803271Y-108462552D01*
X179853735Y-108397359D01*
X179864022Y-108388527D01*
X179870786Y-108380286D01*
X179935227Y-108327399D01*
X179999967Y-108271823D01*
X180009176Y-108266711D01*
X180015083Y-108261864D01*
X180091497Y-108221019D01*
X180168476Y-108178293D01*
X180175635Y-108176046D01*
X180179704Y-108173872D01*
X180266024Y-108147686D01*
X180352363Y-108120598D01*
X180356817Y-108120144D01*
X180358331Y-108119686D01*
X180453534Y-108110309D01*
X180544100Y-108101100D01*
X180639100Y-108101100D01*
X180735463Y-108105987D01*
G37*
G36*
X146837400Y-108673900D02*
G01*
X145719800Y-108673900D01*
X145719800Y-107226100D01*
X146837400Y-107226100D01*
X146837400Y-108673900D01*
G37*
G36*
X148640800Y-108673900D02*
G01*
X147523200Y-108673900D01*
X147523200Y-107226100D01*
X148640800Y-107226100D01*
X148640800Y-108673900D01*
G37*
G36*
X134645400Y-105625900D02*
G01*
X133527800Y-105625900D01*
X133527800Y-104178100D01*
X134645400Y-104178100D01*
X134645400Y-105625900D01*
G37*
G36*
X136448800Y-105625900D02*
G01*
X135331200Y-105625900D01*
X135331200Y-104178100D01*
X136448800Y-104178100D01*
X136448800Y-105625900D01*
G37*
G36*
X205620000Y-103688500D02*
G01*
X203620000Y-103688500D01*
X203620000Y-101783500D01*
X205620000Y-101783500D01*
X205620000Y-103688500D01*
G37*
G36*
X181591600Y-103536100D02*
G01*
X179591600Y-103536100D01*
X179591600Y-101631100D01*
X181591600Y-101631100D01*
X181591600Y-103536100D01*
G37*
G36*
X133057900Y-103354102D02*
G01*
X131610100Y-103354102D01*
X131610100Y-102236502D01*
X133057900Y-102236502D01*
X133057900Y-103354102D01*
G37*
G36*
X122490744Y-99597123D02*
G01*
X122551869Y-99597123D01*
X122606427Y-99606227D01*
X122662623Y-99610650D01*
X122730304Y-99626899D01*
X122796228Y-99637900D01*
X122842986Y-99653952D01*
X122891465Y-99665591D01*
X122962026Y-99694818D01*
X123030543Y-99718340D01*
X123068813Y-99739050D01*
X123108902Y-99755656D01*
X123179959Y-99799200D01*
X123248422Y-99836250D01*
X123278046Y-99859307D01*
X123309568Y-99878624D01*
X123378449Y-99937454D01*
X123443922Y-99988414D01*
X123465281Y-100011616D01*
X123488528Y-100031471D01*
X123552365Y-100106214D01*
X123611711Y-100170681D01*
X123625659Y-100192030D01*
X123641375Y-100210431D01*
X123697221Y-100301564D01*
X123747211Y-100378079D01*
X123755022Y-100395886D01*
X123764343Y-100411097D01*
X123809261Y-100519540D01*
X123846726Y-100604951D01*
X123850008Y-100617911D01*
X123854408Y-100628534D01*
X123885623Y-100758553D01*
X123907542Y-100845108D01*
X123908141Y-100852348D01*
X123909349Y-100857376D01*
X123924297Y-101047322D01*
X123928000Y-101092000D01*
X123924295Y-101136711D01*
X123909349Y-101326623D01*
X123908142Y-101331650D01*
X123907542Y-101338892D01*
X123885618Y-101425464D01*
X123854408Y-101555465D01*
X123850008Y-101566085D01*
X123846726Y-101579049D01*
X123809254Y-101664476D01*
X123764343Y-101772902D01*
X123755023Y-101788109D01*
X123747211Y-101805921D01*
X123697211Y-101882450D01*
X123641375Y-101973568D01*
X123625661Y-101991965D01*
X123611711Y-102013319D01*
X123552353Y-102077798D01*
X123488528Y-102152528D01*
X123465285Y-102172378D01*
X123443922Y-102195586D01*
X123378436Y-102246555D01*
X123309568Y-102305375D01*
X123278052Y-102324687D01*
X123248422Y-102347750D01*
X123179945Y-102384807D01*
X123108902Y-102428343D01*
X123068820Y-102444945D01*
X123030543Y-102465660D01*
X122962011Y-102489186D01*
X122891465Y-102518408D01*
X122842996Y-102530044D01*
X122796228Y-102546100D01*
X122730290Y-102557103D01*
X122662623Y-102573349D01*
X122606439Y-102577770D01*
X122551869Y-102586877D01*
X122490731Y-102586877D01*
X122428000Y-102591814D01*
X122365268Y-102586877D01*
X122304131Y-102586877D01*
X122249561Y-102577770D01*
X122193376Y-102573349D01*
X122125706Y-102557102D01*
X122059772Y-102546100D01*
X122013005Y-102530045D01*
X121964534Y-102518408D01*
X121893982Y-102489184D01*
X121825457Y-102465660D01*
X121787182Y-102444946D01*
X121747097Y-102428343D01*
X121676045Y-102384802D01*
X121607578Y-102347750D01*
X121577951Y-102324690D01*
X121546431Y-102305375D01*
X121477552Y-102246546D01*
X121412078Y-102195586D01*
X121390717Y-102172382D01*
X121367471Y-102152528D01*
X121303632Y-102077783D01*
X121244289Y-102013319D01*
X121230341Y-101991970D01*
X121214624Y-101973568D01*
X121158771Y-101882425D01*
X121108789Y-101805921D01*
X121100978Y-101788115D01*
X121091656Y-101772902D01*
X121046727Y-101664435D01*
X121009274Y-101579049D01*
X121005992Y-101566092D01*
X121001591Y-101555465D01*
X120970361Y-101425388D01*
X120948458Y-101338892D01*
X120947858Y-101331656D01*
X120946650Y-101326623D01*
X120931684Y-101136471D01*
X120928000Y-101092000D01*
X120931682Y-101047562D01*
X120946650Y-100857376D01*
X120947858Y-100852342D01*
X120948458Y-100845108D01*
X120970357Y-100758629D01*
X121001591Y-100628534D01*
X121005993Y-100617905D01*
X121009274Y-100604951D01*
X121046720Y-100519581D01*
X121091656Y-100411097D01*
X121100980Y-100395881D01*
X121108789Y-100378079D01*
X121158762Y-100301589D01*
X121214624Y-100210431D01*
X121230344Y-100192025D01*
X121244289Y-100170681D01*
X121303620Y-100106229D01*
X121367471Y-100031471D01*
X121390722Y-100011612D01*
X121412078Y-99988414D01*
X121477539Y-99937463D01*
X121546431Y-99878624D01*
X121577957Y-99859304D01*
X121607578Y-99836250D01*
X121676031Y-99799204D01*
X121747097Y-99755656D01*
X121787190Y-99739048D01*
X121825457Y-99718340D01*
X121893968Y-99694820D01*
X121964534Y-99665591D01*
X122013015Y-99653951D01*
X122059772Y-99637900D01*
X122125692Y-99626899D01*
X122193376Y-99610650D01*
X122249573Y-99606227D01*
X122304131Y-99597123D01*
X122365256Y-99597123D01*
X122428000Y-99592185D01*
X122490744Y-99597123D01*
G37*
G36*
X188349412Y-98489876D02*
G01*
X188599347Y-98566971D01*
X188835000Y-98680456D01*
X189051107Y-98827795D01*
X189242841Y-99005698D01*
X189405918Y-99210190D01*
X189536696Y-99436703D01*
X189632252Y-99680178D01*
X189690454Y-99935176D01*
X189710000Y-100196000D01*
X189690454Y-100456824D01*
X189632252Y-100711822D01*
X189536696Y-100955297D01*
X189405918Y-101181810D01*
X189242841Y-101386302D01*
X189051107Y-101564205D01*
X188835000Y-101711544D01*
X188599347Y-101825029D01*
X188349412Y-101902124D01*
X188090778Y-101941107D01*
X187829222Y-101941107D01*
X187570588Y-101902124D01*
X187320653Y-101825029D01*
X187085000Y-101711544D01*
X186868893Y-101564205D01*
X186677159Y-101386302D01*
X186514082Y-101181810D01*
X186383304Y-100955297D01*
X186287748Y-100711822D01*
X186229546Y-100456824D01*
X186210000Y-100196000D01*
X186229546Y-99935176D01*
X186287748Y-99680178D01*
X186383304Y-99436703D01*
X186514082Y-99210190D01*
X186677159Y-99005698D01*
X186868893Y-98827795D01*
X187085000Y-98680456D01*
X187320653Y-98566971D01*
X187570588Y-98489876D01*
X187829222Y-98450893D01*
X188090778Y-98450893D01*
X188349412Y-98489876D01*
G37*
G36*
X164321012Y-98337476D02*
G01*
X164570947Y-98414571D01*
X164806600Y-98528056D01*
X165022707Y-98675395D01*
X165214441Y-98853298D01*
X165377518Y-99057790D01*
X165508296Y-99284303D01*
X165603852Y-99527778D01*
X165662054Y-99782776D01*
X165681600Y-100043600D01*
X165662054Y-100304424D01*
X165603852Y-100559422D01*
X165508296Y-100802897D01*
X165377518Y-101029410D01*
X165214441Y-101233902D01*
X165022707Y-101411805D01*
X164806600Y-101559144D01*
X164570947Y-101672629D01*
X164321012Y-101749724D01*
X164062378Y-101788707D01*
X163800822Y-101788707D01*
X163542188Y-101749724D01*
X163292253Y-101672629D01*
X163056600Y-101559144D01*
X162840493Y-101411805D01*
X162648759Y-101233902D01*
X162485682Y-101029410D01*
X162354904Y-100802897D01*
X162259348Y-100559422D01*
X162201146Y-100304424D01*
X162181600Y-100043600D01*
X162201146Y-99782776D01*
X162259348Y-99527778D01*
X162354904Y-99284303D01*
X162485682Y-99057790D01*
X162648759Y-98853298D01*
X162840493Y-98675395D01*
X163056600Y-98528056D01*
X163292253Y-98414571D01*
X163542188Y-98337476D01*
X163800822Y-98298493D01*
X164062378Y-98298493D01*
X164321012Y-98337476D01*
G37*
G36*
X133057900Y-101550702D02*
G01*
X131610100Y-101550702D01*
X131610100Y-100433102D01*
X133057900Y-100433102D01*
X133057900Y-101550702D01*
G37*
G36*
X204763863Y-99248387D02*
G01*
X204809591Y-99257784D01*
X204853268Y-99262086D01*
X204901038Y-99276577D01*
X204952643Y-99287182D01*
X204992782Y-99304407D01*
X205031895Y-99316272D01*
X205078583Y-99341227D01*
X205129750Y-99363185D01*
X205163133Y-99386420D01*
X205196516Y-99404264D01*
X205239765Y-99439758D01*
X205287932Y-99473283D01*
X205313890Y-99500591D01*
X205340813Y-99522686D01*
X205378214Y-99568260D01*
X205420714Y-99612969D01*
X205439052Y-99642391D01*
X205459235Y-99666983D01*
X205488455Y-99721649D01*
X205522659Y-99776525D01*
X205533651Y-99806206D01*
X205547227Y-99831604D01*
X205566099Y-99893819D01*
X205589593Y-99957253D01*
X205593929Y-99985562D01*
X205601413Y-100010231D01*
X205608081Y-100077941D01*
X205618777Y-100147757D01*
X205617478Y-100173355D01*
X205619709Y-100195999D01*
X205612744Y-100266714D01*
X205609016Y-100340235D01*
X205603347Y-100362129D01*
X205601413Y-100381768D01*
X205579901Y-100452680D01*
X205560709Y-100526808D01*
X205552077Y-100544403D01*
X205547227Y-100560395D01*
X205510858Y-100628435D01*
X205475834Y-100699838D01*
X205465684Y-100712950D01*
X205459235Y-100725016D01*
X205408358Y-100787008D01*
X205357865Y-100852241D01*
X205347571Y-100861077D01*
X205340813Y-100869313D01*
X205276420Y-100922158D01*
X205211633Y-100977777D01*
X205202416Y-100982892D01*
X205196516Y-100987735D01*
X205120176Y-101028539D01*
X205043124Y-101071307D01*
X205035957Y-101073555D01*
X205031895Y-101075727D01*
X204945700Y-101101873D01*
X204859237Y-101129002D01*
X204854775Y-101129455D01*
X204853268Y-101129913D01*
X204758235Y-101139272D01*
X204667500Y-101148500D01*
X204664553Y-101148500D01*
X204575447Y-101148500D01*
X204572500Y-101148500D01*
X204476137Y-101143613D01*
X204430401Y-101134214D01*
X204386731Y-101129913D01*
X204338968Y-101115424D01*
X204287357Y-101104818D01*
X204247211Y-101087590D01*
X204208104Y-101075727D01*
X204161420Y-101050774D01*
X204110250Y-101028815D01*
X204076863Y-101005577D01*
X204043483Y-100987735D01*
X204000235Y-100952242D01*
X203952068Y-100918717D01*
X203926108Y-100891408D01*
X203899186Y-100869313D01*
X203861783Y-100823738D01*
X203819286Y-100779031D01*
X203800947Y-100749609D01*
X203780764Y-100725016D01*
X203751541Y-100670345D01*
X203717341Y-100615475D01*
X203706349Y-100585796D01*
X203692772Y-100560395D01*
X203673896Y-100498170D01*
X203650407Y-100434747D01*
X203646070Y-100406442D01*
X203638586Y-100381768D01*
X203631915Y-100314042D01*
X203621223Y-100244243D01*
X203622520Y-100218650D01*
X203620290Y-100195999D01*
X203627256Y-100125261D01*
X203630984Y-100051765D01*
X203636651Y-100029877D01*
X203638586Y-100010231D01*
X203660105Y-99939290D01*
X203679291Y-99865192D01*
X203687918Y-99847603D01*
X203692772Y-99831604D01*
X203729158Y-99763529D01*
X203764166Y-99692162D01*
X203774310Y-99679055D01*
X203780764Y-99666983D01*
X203831671Y-99604952D01*
X203882135Y-99539759D01*
X203892422Y-99530927D01*
X203899186Y-99522686D01*
X203963627Y-99469799D01*
X204028367Y-99414223D01*
X204037576Y-99409111D01*
X204043483Y-99404264D01*
X204119897Y-99363419D01*
X204196876Y-99320693D01*
X204204035Y-99318446D01*
X204208104Y-99316272D01*
X204294424Y-99290086D01*
X204380763Y-99262998D01*
X204385217Y-99262544D01*
X204386731Y-99262086D01*
X204481934Y-99252709D01*
X204572500Y-99243500D01*
X204667500Y-99243500D01*
X204763863Y-99248387D01*
G37*
G36*
X180735463Y-99095987D02*
G01*
X180781191Y-99105384D01*
X180824868Y-99109686D01*
X180872638Y-99124177D01*
X180924243Y-99134782D01*
X180964382Y-99152007D01*
X181003495Y-99163872D01*
X181050183Y-99188827D01*
X181101350Y-99210785D01*
X181134733Y-99234020D01*
X181168116Y-99251864D01*
X181211365Y-99287358D01*
X181259532Y-99320883D01*
X181285490Y-99348191D01*
X181312413Y-99370286D01*
X181349814Y-99415860D01*
X181392314Y-99460569D01*
X181410652Y-99489991D01*
X181430835Y-99514583D01*
X181460055Y-99569249D01*
X181494259Y-99624125D01*
X181505251Y-99653806D01*
X181518827Y-99679204D01*
X181537699Y-99741419D01*
X181561193Y-99804853D01*
X181565529Y-99833162D01*
X181573013Y-99857831D01*
X181579681Y-99925540D01*
X181590377Y-99995357D01*
X181589078Y-100020955D01*
X181591309Y-100043600D01*
X181584344Y-100114315D01*
X181580616Y-100187835D01*
X181574947Y-100209729D01*
X181573013Y-100229368D01*
X181551501Y-100300280D01*
X181532309Y-100374408D01*
X181523677Y-100392003D01*
X181518827Y-100407995D01*
X181482458Y-100476035D01*
X181447434Y-100547438D01*
X181437284Y-100560550D01*
X181430835Y-100572616D01*
X181379958Y-100634608D01*
X181329465Y-100699841D01*
X181319171Y-100708677D01*
X181312413Y-100716913D01*
X181248020Y-100769758D01*
X181183233Y-100825377D01*
X181174016Y-100830492D01*
X181168116Y-100835335D01*
X181091776Y-100876139D01*
X181014724Y-100918907D01*
X181007557Y-100921155D01*
X181003495Y-100923327D01*
X180917300Y-100949473D01*
X180830837Y-100976602D01*
X180826375Y-100977055D01*
X180824868Y-100977513D01*
X180729835Y-100986872D01*
X180639100Y-100996100D01*
X180636153Y-100996100D01*
X180547047Y-100996100D01*
X180544100Y-100996100D01*
X180447737Y-100991213D01*
X180402001Y-100981814D01*
X180358331Y-100977513D01*
X180310568Y-100963024D01*
X180258957Y-100952418D01*
X180218811Y-100935190D01*
X180179704Y-100923327D01*
X180133020Y-100898374D01*
X180081850Y-100876415D01*
X180048463Y-100853177D01*
X180015083Y-100835335D01*
X179971835Y-100799842D01*
X179923668Y-100766317D01*
X179897708Y-100739008D01*
X179870786Y-100716913D01*
X179833383Y-100671338D01*
X179790886Y-100626631D01*
X179772547Y-100597209D01*
X179752364Y-100572616D01*
X179723141Y-100517945D01*
X179688941Y-100463075D01*
X179677949Y-100433396D01*
X179664372Y-100407995D01*
X179645496Y-100345770D01*
X179622007Y-100282347D01*
X179617670Y-100254042D01*
X179610186Y-100229368D01*
X179603515Y-100161642D01*
X179592823Y-100091843D01*
X179594120Y-100066250D01*
X179591890Y-100043599D01*
X179598856Y-99972861D01*
X179602584Y-99899365D01*
X179608251Y-99877477D01*
X179610186Y-99857831D01*
X179631705Y-99786890D01*
X179650891Y-99712792D01*
X179659518Y-99695203D01*
X179664372Y-99679204D01*
X179700758Y-99611129D01*
X179735766Y-99539762D01*
X179745910Y-99526655D01*
X179752364Y-99514583D01*
X179803271Y-99452552D01*
X179853735Y-99387359D01*
X179864022Y-99378527D01*
X179870786Y-99370286D01*
X179935227Y-99317399D01*
X179999967Y-99261823D01*
X180009176Y-99256711D01*
X180015083Y-99251864D01*
X180091497Y-99211019D01*
X180168476Y-99168293D01*
X180175635Y-99166046D01*
X180179704Y-99163872D01*
X180266024Y-99137686D01*
X180352363Y-99110598D01*
X180356817Y-99110144D01*
X180358331Y-99109686D01*
X180453534Y-99100309D01*
X180544100Y-99091100D01*
X180639100Y-99091100D01*
X180735463Y-99095987D01*
G37*
G36*
X204763863Y-96708387D02*
G01*
X204809591Y-96717784D01*
X204853268Y-96722086D01*
X204901038Y-96736577D01*
X204952643Y-96747182D01*
X204992782Y-96764407D01*
X205031895Y-96776272D01*
X205078583Y-96801227D01*
X205129750Y-96823185D01*
X205163133Y-96846420D01*
X205196516Y-96864264D01*
X205239765Y-96899758D01*
X205287932Y-96933283D01*
X205313890Y-96960591D01*
X205340813Y-96982686D01*
X205378214Y-97028260D01*
X205420714Y-97072969D01*
X205439052Y-97102391D01*
X205459235Y-97126983D01*
X205488455Y-97181649D01*
X205522659Y-97236525D01*
X205533651Y-97266206D01*
X205547227Y-97291604D01*
X205566099Y-97353819D01*
X205589593Y-97417253D01*
X205593929Y-97445562D01*
X205601413Y-97470231D01*
X205608081Y-97537941D01*
X205618777Y-97607757D01*
X205617478Y-97633355D01*
X205619709Y-97655999D01*
X205612744Y-97726714D01*
X205609016Y-97800235D01*
X205603347Y-97822129D01*
X205601413Y-97841768D01*
X205579901Y-97912680D01*
X205560709Y-97986808D01*
X205552077Y-98004403D01*
X205547227Y-98020395D01*
X205510858Y-98088435D01*
X205475834Y-98159838D01*
X205465684Y-98172950D01*
X205459235Y-98185016D01*
X205408358Y-98247008D01*
X205357865Y-98312241D01*
X205347571Y-98321077D01*
X205340813Y-98329313D01*
X205276420Y-98382158D01*
X205211633Y-98437777D01*
X205202416Y-98442892D01*
X205196516Y-98447735D01*
X205120176Y-98488539D01*
X205043124Y-98531307D01*
X205035957Y-98533555D01*
X205031895Y-98535727D01*
X204945700Y-98561873D01*
X204859237Y-98589002D01*
X204854775Y-98589455D01*
X204853268Y-98589913D01*
X204758235Y-98599272D01*
X204667500Y-98608500D01*
X204664553Y-98608500D01*
X204575447Y-98608500D01*
X204572500Y-98608500D01*
X204476137Y-98603613D01*
X204430401Y-98594214D01*
X204386731Y-98589913D01*
X204338968Y-98575424D01*
X204287357Y-98564818D01*
X204247211Y-98547590D01*
X204208104Y-98535727D01*
X204161420Y-98510774D01*
X204110250Y-98488815D01*
X204076863Y-98465577D01*
X204043483Y-98447735D01*
X204000235Y-98412242D01*
X203952068Y-98378717D01*
X203926108Y-98351408D01*
X203899186Y-98329313D01*
X203861783Y-98283738D01*
X203819286Y-98239031D01*
X203800947Y-98209609D01*
X203780764Y-98185016D01*
X203751541Y-98130345D01*
X203717341Y-98075475D01*
X203706349Y-98045796D01*
X203692772Y-98020395D01*
X203673896Y-97958170D01*
X203650407Y-97894747D01*
X203646070Y-97866442D01*
X203638586Y-97841768D01*
X203631915Y-97774042D01*
X203621223Y-97704243D01*
X203622520Y-97678650D01*
X203620290Y-97656000D01*
X203627256Y-97585262D01*
X203630984Y-97511765D01*
X203636651Y-97489877D01*
X203638586Y-97470231D01*
X203660105Y-97399290D01*
X203679291Y-97325192D01*
X203687918Y-97307603D01*
X203692772Y-97291604D01*
X203729158Y-97223529D01*
X203764166Y-97152162D01*
X203774310Y-97139055D01*
X203780764Y-97126983D01*
X203831671Y-97064952D01*
X203882135Y-96999759D01*
X203892422Y-96990927D01*
X203899186Y-96982686D01*
X203963627Y-96929799D01*
X204028367Y-96874223D01*
X204037576Y-96869111D01*
X204043483Y-96864264D01*
X204119897Y-96823419D01*
X204196876Y-96780693D01*
X204204035Y-96778446D01*
X204208104Y-96776272D01*
X204294424Y-96750086D01*
X204380763Y-96722998D01*
X204385217Y-96722544D01*
X204386731Y-96722086D01*
X204481934Y-96712709D01*
X204572500Y-96703500D01*
X204667500Y-96703500D01*
X204763863Y-96708387D01*
G37*
G36*
X180735463Y-96555987D02*
G01*
X180781191Y-96565384D01*
X180824868Y-96569686D01*
X180872638Y-96584177D01*
X180924243Y-96594782D01*
X180964382Y-96612007D01*
X181003495Y-96623872D01*
X181050183Y-96648827D01*
X181101350Y-96670785D01*
X181134733Y-96694020D01*
X181168116Y-96711864D01*
X181211365Y-96747358D01*
X181259532Y-96780883D01*
X181285490Y-96808191D01*
X181312413Y-96830286D01*
X181349814Y-96875860D01*
X181392314Y-96920569D01*
X181410652Y-96949991D01*
X181430835Y-96974583D01*
X181460055Y-97029249D01*
X181494259Y-97084125D01*
X181505251Y-97113806D01*
X181518827Y-97139204D01*
X181537699Y-97201419D01*
X181561193Y-97264853D01*
X181565529Y-97293162D01*
X181573013Y-97317831D01*
X181579681Y-97385540D01*
X181590377Y-97455357D01*
X181589078Y-97480955D01*
X181591309Y-97503600D01*
X181584344Y-97574315D01*
X181580616Y-97647835D01*
X181574947Y-97669729D01*
X181573013Y-97689368D01*
X181551501Y-97760280D01*
X181532309Y-97834408D01*
X181523677Y-97852003D01*
X181518827Y-97867995D01*
X181482458Y-97936035D01*
X181447434Y-98007438D01*
X181437284Y-98020550D01*
X181430835Y-98032616D01*
X181379958Y-98094608D01*
X181329465Y-98159841D01*
X181319171Y-98168677D01*
X181312413Y-98176913D01*
X181248020Y-98229758D01*
X181183233Y-98285377D01*
X181174016Y-98290492D01*
X181168116Y-98295335D01*
X181091776Y-98336139D01*
X181014724Y-98378907D01*
X181007557Y-98381155D01*
X181003495Y-98383327D01*
X180917300Y-98409473D01*
X180830837Y-98436602D01*
X180826375Y-98437055D01*
X180824868Y-98437513D01*
X180729835Y-98446872D01*
X180639100Y-98456100D01*
X180636153Y-98456100D01*
X180547047Y-98456100D01*
X180544100Y-98456100D01*
X180447737Y-98451213D01*
X180402001Y-98441814D01*
X180358331Y-98437513D01*
X180310568Y-98423024D01*
X180258957Y-98412418D01*
X180218811Y-98395190D01*
X180179704Y-98383327D01*
X180133020Y-98358374D01*
X180081850Y-98336415D01*
X180048463Y-98313177D01*
X180015083Y-98295335D01*
X179971835Y-98259842D01*
X179923668Y-98226317D01*
X179897708Y-98199008D01*
X179870786Y-98176913D01*
X179833383Y-98131338D01*
X179790886Y-98086631D01*
X179772547Y-98057209D01*
X179752364Y-98032616D01*
X179723141Y-97977945D01*
X179688941Y-97923075D01*
X179677949Y-97893396D01*
X179664372Y-97867995D01*
X179645496Y-97805770D01*
X179622007Y-97742347D01*
X179617670Y-97714042D01*
X179610186Y-97689368D01*
X179603515Y-97621642D01*
X179592823Y-97551843D01*
X179594120Y-97526250D01*
X179591890Y-97503600D01*
X179598856Y-97432862D01*
X179602584Y-97359365D01*
X179608251Y-97337477D01*
X179610186Y-97317831D01*
X179631705Y-97246890D01*
X179650891Y-97172792D01*
X179659518Y-97155203D01*
X179664372Y-97139204D01*
X179700758Y-97071129D01*
X179735766Y-96999762D01*
X179745910Y-96986655D01*
X179752364Y-96974583D01*
X179803271Y-96912552D01*
X179853735Y-96847359D01*
X179864022Y-96838527D01*
X179870786Y-96830286D01*
X179935227Y-96777399D01*
X179999967Y-96721823D01*
X180009176Y-96716711D01*
X180015083Y-96711864D01*
X180091497Y-96671019D01*
X180168476Y-96628293D01*
X180175635Y-96626046D01*
X180179704Y-96623872D01*
X180266024Y-96597686D01*
X180352363Y-96570598D01*
X180356817Y-96570144D01*
X180358331Y-96569686D01*
X180453534Y-96560309D01*
X180544100Y-96551100D01*
X180639100Y-96551100D01*
X180735463Y-96555987D01*
G37*
G36*
X118934744Y-94263123D02*
G01*
X118995869Y-94263123D01*
X119050427Y-94272227D01*
X119106623Y-94276650D01*
X119174304Y-94292899D01*
X119240228Y-94303900D01*
X119286986Y-94319952D01*
X119335465Y-94331591D01*
X119406026Y-94360818D01*
X119474543Y-94384340D01*
X119512813Y-94405050D01*
X119552902Y-94421656D01*
X119623959Y-94465200D01*
X119692422Y-94502250D01*
X119722046Y-94525307D01*
X119753568Y-94544624D01*
X119822449Y-94603454D01*
X119887922Y-94654414D01*
X119909281Y-94677616D01*
X119932528Y-94697471D01*
X119996365Y-94772214D01*
X120055711Y-94836681D01*
X120069659Y-94858030D01*
X120085375Y-94876431D01*
X120141221Y-94967564D01*
X120191211Y-95044079D01*
X120199022Y-95061886D01*
X120208343Y-95077097D01*
X120253261Y-95185540D01*
X120290726Y-95270951D01*
X120294008Y-95283911D01*
X120298408Y-95294534D01*
X120329623Y-95424553D01*
X120351542Y-95511108D01*
X120352141Y-95518348D01*
X120353349Y-95523376D01*
X120368297Y-95713322D01*
X120372000Y-95758000D01*
X120368295Y-95802711D01*
X120353349Y-95992623D01*
X120352142Y-95997650D01*
X120351542Y-96004892D01*
X120329618Y-96091464D01*
X120298408Y-96221465D01*
X120294008Y-96232085D01*
X120290726Y-96245049D01*
X120253254Y-96330476D01*
X120208343Y-96438902D01*
X120199023Y-96454109D01*
X120191211Y-96471921D01*
X120141211Y-96548450D01*
X120085375Y-96639568D01*
X120069661Y-96657965D01*
X120055711Y-96679319D01*
X119996353Y-96743798D01*
X119932528Y-96818528D01*
X119909285Y-96838378D01*
X119887922Y-96861586D01*
X119822436Y-96912555D01*
X119753568Y-96971375D01*
X119722052Y-96990687D01*
X119692422Y-97013750D01*
X119623945Y-97050807D01*
X119552902Y-97094343D01*
X119512820Y-97110945D01*
X119474543Y-97131660D01*
X119406011Y-97155186D01*
X119335465Y-97184408D01*
X119286996Y-97196044D01*
X119240228Y-97212100D01*
X119174290Y-97223103D01*
X119106623Y-97239349D01*
X119050439Y-97243770D01*
X118995869Y-97252877D01*
X118934731Y-97252877D01*
X118872000Y-97257814D01*
X118809268Y-97252877D01*
X118748131Y-97252877D01*
X118693561Y-97243770D01*
X118637376Y-97239349D01*
X118569706Y-97223102D01*
X118503772Y-97212100D01*
X118457005Y-97196045D01*
X118408534Y-97184408D01*
X118337982Y-97155184D01*
X118269457Y-97131660D01*
X118231182Y-97110946D01*
X118191097Y-97094343D01*
X118120045Y-97050802D01*
X118051578Y-97013750D01*
X118021951Y-96990690D01*
X117990431Y-96971375D01*
X117921552Y-96912546D01*
X117856078Y-96861586D01*
X117834717Y-96838382D01*
X117811471Y-96818528D01*
X117747632Y-96743783D01*
X117688289Y-96679319D01*
X117674341Y-96657970D01*
X117658624Y-96639568D01*
X117602771Y-96548425D01*
X117552789Y-96471921D01*
X117544978Y-96454115D01*
X117535656Y-96438902D01*
X117490727Y-96330435D01*
X117453274Y-96245049D01*
X117449992Y-96232092D01*
X117445591Y-96221465D01*
X117414361Y-96091388D01*
X117392458Y-96004892D01*
X117391858Y-95997656D01*
X117390650Y-95992623D01*
X117375684Y-95802471D01*
X117372000Y-95758000D01*
X117375682Y-95713562D01*
X117390650Y-95523376D01*
X117391858Y-95518342D01*
X117392458Y-95511108D01*
X117414357Y-95424629D01*
X117445591Y-95294534D01*
X117449993Y-95283905D01*
X117453274Y-95270951D01*
X117490720Y-95185581D01*
X117535656Y-95077097D01*
X117544980Y-95061881D01*
X117552789Y-95044079D01*
X117602762Y-94967589D01*
X117658624Y-94876431D01*
X117674344Y-94858025D01*
X117688289Y-94836681D01*
X117747620Y-94772229D01*
X117811471Y-94697471D01*
X117834722Y-94677612D01*
X117856078Y-94654414D01*
X117921539Y-94603463D01*
X117990431Y-94544624D01*
X118021957Y-94525304D01*
X118051578Y-94502250D01*
X118120031Y-94465204D01*
X118191097Y-94421656D01*
X118231190Y-94405048D01*
X118269457Y-94384340D01*
X118337968Y-94360820D01*
X118408534Y-94331591D01*
X118457015Y-94319951D01*
X118503772Y-94303900D01*
X118569692Y-94292899D01*
X118637376Y-94276650D01*
X118693573Y-94272227D01*
X118748131Y-94263123D01*
X118809256Y-94263123D01*
X118872000Y-94258185D01*
X118934744Y-94263123D01*
G37*
G36*
X118934744Y-89691123D02*
G01*
X118995869Y-89691123D01*
X119050427Y-89700227D01*
X119106623Y-89704650D01*
X119174304Y-89720899D01*
X119240228Y-89731900D01*
X119286986Y-89747952D01*
X119335465Y-89759591D01*
X119406026Y-89788818D01*
X119474543Y-89812340D01*
X119512813Y-89833050D01*
X119552902Y-89849656D01*
X119623959Y-89893200D01*
X119692422Y-89930250D01*
X119722046Y-89953307D01*
X119753568Y-89972624D01*
X119822449Y-90031454D01*
X119887922Y-90082414D01*
X119909281Y-90105616D01*
X119932528Y-90125471D01*
X119996365Y-90200214D01*
X120055711Y-90264681D01*
X120069659Y-90286030D01*
X120085375Y-90304431D01*
X120141221Y-90395564D01*
X120191211Y-90472079D01*
X120199022Y-90489886D01*
X120208343Y-90505097D01*
X120253261Y-90613540D01*
X120290726Y-90698951D01*
X120294008Y-90711911D01*
X120298408Y-90722534D01*
X120329623Y-90852553D01*
X120351542Y-90939108D01*
X120352141Y-90946348D01*
X120353349Y-90951376D01*
X120368296Y-91141307D01*
X120372000Y-91186000D01*
X120368296Y-91230696D01*
X120353349Y-91420623D01*
X120352142Y-91425650D01*
X120351542Y-91432892D01*
X120329618Y-91519464D01*
X120298408Y-91649465D01*
X120294008Y-91660085D01*
X120290726Y-91673049D01*
X120253254Y-91758476D01*
X120208343Y-91866902D01*
X120199023Y-91882109D01*
X120191211Y-91899921D01*
X120141211Y-91976450D01*
X120085375Y-92067568D01*
X120069661Y-92085965D01*
X120055711Y-92107319D01*
X119996353Y-92171798D01*
X119932528Y-92246528D01*
X119909285Y-92266378D01*
X119887922Y-92289586D01*
X119822436Y-92340555D01*
X119753568Y-92399375D01*
X119722052Y-92418687D01*
X119692422Y-92441750D01*
X119623945Y-92478807D01*
X119552902Y-92522343D01*
X119512820Y-92538945D01*
X119474543Y-92559660D01*
X119406011Y-92583186D01*
X119335465Y-92612408D01*
X119286996Y-92624044D01*
X119240228Y-92640100D01*
X119174290Y-92651103D01*
X119106623Y-92667349D01*
X119050439Y-92671770D01*
X118995869Y-92680877D01*
X118934731Y-92680877D01*
X118872000Y-92685814D01*
X118809268Y-92680877D01*
X118748131Y-92680877D01*
X118693561Y-92671770D01*
X118637376Y-92667349D01*
X118569706Y-92651102D01*
X118503772Y-92640100D01*
X118457005Y-92624045D01*
X118408534Y-92612408D01*
X118337982Y-92583184D01*
X118269457Y-92559660D01*
X118231182Y-92538946D01*
X118191097Y-92522343D01*
X118120045Y-92478802D01*
X118051578Y-92441750D01*
X118021951Y-92418690D01*
X117990431Y-92399375D01*
X117921552Y-92340546D01*
X117856078Y-92289586D01*
X117834717Y-92266382D01*
X117811471Y-92246528D01*
X117747632Y-92171783D01*
X117688289Y-92107319D01*
X117674341Y-92085970D01*
X117658624Y-92067568D01*
X117602771Y-91976425D01*
X117552789Y-91899921D01*
X117544978Y-91882115D01*
X117535656Y-91866902D01*
X117490727Y-91758435D01*
X117453274Y-91673049D01*
X117449992Y-91660092D01*
X117445591Y-91649465D01*
X117414361Y-91519388D01*
X117392458Y-91432892D01*
X117391858Y-91425656D01*
X117390650Y-91420623D01*
X117375683Y-91230456D01*
X117372000Y-91186000D01*
X117375683Y-91141547D01*
X117390650Y-90951376D01*
X117391858Y-90946342D01*
X117392458Y-90939108D01*
X117414357Y-90852629D01*
X117445591Y-90722534D01*
X117449993Y-90711905D01*
X117453274Y-90698951D01*
X117490720Y-90613581D01*
X117535656Y-90505097D01*
X117544980Y-90489881D01*
X117552789Y-90472079D01*
X117602762Y-90395589D01*
X117658624Y-90304431D01*
X117674344Y-90286025D01*
X117688289Y-90264681D01*
X117747620Y-90200229D01*
X117811471Y-90125471D01*
X117834722Y-90105612D01*
X117856078Y-90082414D01*
X117921539Y-90031463D01*
X117990431Y-89972624D01*
X118021957Y-89953304D01*
X118051578Y-89930250D01*
X118120031Y-89893204D01*
X118191097Y-89849656D01*
X118231190Y-89833048D01*
X118269457Y-89812340D01*
X118337968Y-89788820D01*
X118408534Y-89759591D01*
X118457015Y-89747951D01*
X118503772Y-89731900D01*
X118569692Y-89720899D01*
X118637376Y-89704650D01*
X118693573Y-89700227D01*
X118748131Y-89691123D01*
X118809256Y-89691123D01*
X118872000Y-89686185D01*
X118934744Y-89691123D01*
G37*
G36*
X181591600Y-91986100D02*
G01*
X179591600Y-91986100D01*
X179591600Y-90081100D01*
X181591600Y-90081100D01*
X181591600Y-91986100D01*
G37*
G36*
X164321012Y-86787476D02*
G01*
X164570947Y-86864571D01*
X164806600Y-86978056D01*
X165022707Y-87125395D01*
X165214441Y-87303298D01*
X165377518Y-87507790D01*
X165508296Y-87734303D01*
X165603852Y-87977778D01*
X165662054Y-88232776D01*
X165681600Y-88493600D01*
X165662054Y-88754424D01*
X165603852Y-89009422D01*
X165508296Y-89252897D01*
X165377518Y-89479410D01*
X165214441Y-89683902D01*
X165022707Y-89861805D01*
X164806600Y-90009144D01*
X164570947Y-90122629D01*
X164321012Y-90199724D01*
X164062378Y-90238707D01*
X163800822Y-90238707D01*
X163542188Y-90199724D01*
X163292253Y-90122629D01*
X163056600Y-90009144D01*
X162840493Y-89861805D01*
X162648759Y-89683902D01*
X162485682Y-89479410D01*
X162354904Y-89252897D01*
X162259348Y-89009422D01*
X162201146Y-88754424D01*
X162181600Y-88493600D01*
X162201146Y-88232776D01*
X162259348Y-87977778D01*
X162354904Y-87734303D01*
X162485682Y-87507790D01*
X162648759Y-87303298D01*
X162840493Y-87125395D01*
X163056600Y-86978056D01*
X163292253Y-86864571D01*
X163542188Y-86787476D01*
X163800822Y-86748493D01*
X164062378Y-86748493D01*
X164321012Y-86787476D01*
G37*
G36*
X180735463Y-87545987D02*
G01*
X180781191Y-87555384D01*
X180824868Y-87559686D01*
X180872638Y-87574177D01*
X180924243Y-87584782D01*
X180964382Y-87602007D01*
X181003495Y-87613872D01*
X181050183Y-87638827D01*
X181101350Y-87660785D01*
X181134733Y-87684020D01*
X181168116Y-87701864D01*
X181211365Y-87737358D01*
X181259532Y-87770883D01*
X181285490Y-87798191D01*
X181312413Y-87820286D01*
X181349814Y-87865860D01*
X181392314Y-87910569D01*
X181410652Y-87939991D01*
X181430835Y-87964583D01*
X181460055Y-88019249D01*
X181494259Y-88074125D01*
X181505251Y-88103806D01*
X181518827Y-88129204D01*
X181537699Y-88191419D01*
X181561193Y-88254853D01*
X181565529Y-88283162D01*
X181573013Y-88307831D01*
X181579681Y-88375541D01*
X181590377Y-88445357D01*
X181589078Y-88470955D01*
X181591309Y-88493599D01*
X181584344Y-88564314D01*
X181580616Y-88637835D01*
X181574947Y-88659729D01*
X181573013Y-88679368D01*
X181551501Y-88750280D01*
X181532309Y-88824408D01*
X181523677Y-88842003D01*
X181518827Y-88857995D01*
X181482458Y-88926035D01*
X181447434Y-88997438D01*
X181437284Y-89010550D01*
X181430835Y-89022616D01*
X181379958Y-89084608D01*
X181329465Y-89149841D01*
X181319171Y-89158677D01*
X181312413Y-89166913D01*
X181248020Y-89219758D01*
X181183233Y-89275377D01*
X181174016Y-89280492D01*
X181168116Y-89285335D01*
X181091776Y-89326139D01*
X181014724Y-89368907D01*
X181007557Y-89371155D01*
X181003495Y-89373327D01*
X180917300Y-89399473D01*
X180830837Y-89426602D01*
X180826375Y-89427055D01*
X180824868Y-89427513D01*
X180729835Y-89436872D01*
X180639100Y-89446100D01*
X180636153Y-89446100D01*
X180547047Y-89446100D01*
X180544100Y-89446100D01*
X180447737Y-89441213D01*
X180402001Y-89431814D01*
X180358331Y-89427513D01*
X180310568Y-89413024D01*
X180258957Y-89402418D01*
X180218811Y-89385190D01*
X180179704Y-89373327D01*
X180133020Y-89348374D01*
X180081850Y-89326415D01*
X180048463Y-89303177D01*
X180015083Y-89285335D01*
X179971835Y-89249842D01*
X179923668Y-89216317D01*
X179897708Y-89189008D01*
X179870786Y-89166913D01*
X179833383Y-89121338D01*
X179790886Y-89076631D01*
X179772547Y-89047209D01*
X179752364Y-89022616D01*
X179723141Y-88967945D01*
X179688941Y-88913075D01*
X179677949Y-88883396D01*
X179664372Y-88857995D01*
X179645496Y-88795770D01*
X179622007Y-88732347D01*
X179617670Y-88704042D01*
X179610186Y-88679368D01*
X179603515Y-88611642D01*
X179592823Y-88541843D01*
X179594120Y-88516250D01*
X179591890Y-88493600D01*
X179598856Y-88422862D01*
X179602584Y-88349365D01*
X179608251Y-88327477D01*
X179610186Y-88307831D01*
X179631705Y-88236890D01*
X179650891Y-88162792D01*
X179659518Y-88145203D01*
X179664372Y-88129204D01*
X179700758Y-88061129D01*
X179735766Y-87989762D01*
X179745910Y-87976655D01*
X179752364Y-87964583D01*
X179803271Y-87902552D01*
X179853735Y-87837359D01*
X179864022Y-87828527D01*
X179870786Y-87820286D01*
X179935227Y-87767399D01*
X179999967Y-87711823D01*
X180009176Y-87706711D01*
X180015083Y-87701864D01*
X180091497Y-87661019D01*
X180168476Y-87618293D01*
X180175635Y-87616046D01*
X180179704Y-87613872D01*
X180266024Y-87587686D01*
X180352363Y-87560598D01*
X180356817Y-87560144D01*
X180358331Y-87559686D01*
X180453534Y-87550309D01*
X180544100Y-87541100D01*
X180639100Y-87541100D01*
X180735463Y-87545987D01*
G37*
G36*
X206064000Y-88328500D02*
G01*
X204064000Y-88328500D01*
X204064000Y-86423500D01*
X206064000Y-86423500D01*
X206064000Y-88328500D01*
G37*
G36*
X180735463Y-85005987D02*
G01*
X180781191Y-85015384D01*
X180824868Y-85019686D01*
X180872638Y-85034177D01*
X180924243Y-85044782D01*
X180964382Y-85062007D01*
X181003495Y-85073872D01*
X181050183Y-85098827D01*
X181101350Y-85120785D01*
X181134733Y-85144020D01*
X181168116Y-85161864D01*
X181211365Y-85197358D01*
X181259532Y-85230883D01*
X181285490Y-85258191D01*
X181312413Y-85280286D01*
X181349814Y-85325860D01*
X181392314Y-85370569D01*
X181410652Y-85399991D01*
X181430835Y-85424583D01*
X181460055Y-85479249D01*
X181494259Y-85534125D01*
X181505251Y-85563806D01*
X181518827Y-85589204D01*
X181537699Y-85651419D01*
X181561193Y-85714853D01*
X181565529Y-85743162D01*
X181573013Y-85767831D01*
X181579681Y-85835540D01*
X181590377Y-85905357D01*
X181589078Y-85930955D01*
X181591309Y-85953600D01*
X181584344Y-86024315D01*
X181580616Y-86097835D01*
X181574947Y-86119729D01*
X181573013Y-86139368D01*
X181551501Y-86210280D01*
X181532309Y-86284408D01*
X181523677Y-86302003D01*
X181518827Y-86317995D01*
X181482458Y-86386035D01*
X181447434Y-86457438D01*
X181437284Y-86470550D01*
X181430835Y-86482616D01*
X181379958Y-86544608D01*
X181329465Y-86609841D01*
X181319171Y-86618677D01*
X181312413Y-86626913D01*
X181248020Y-86679758D01*
X181183233Y-86735377D01*
X181174016Y-86740492D01*
X181168116Y-86745335D01*
X181091776Y-86786139D01*
X181014724Y-86828907D01*
X181007557Y-86831155D01*
X181003495Y-86833327D01*
X180917300Y-86859473D01*
X180830837Y-86886602D01*
X180826375Y-86887055D01*
X180824868Y-86887513D01*
X180729835Y-86896872D01*
X180639100Y-86906100D01*
X180636153Y-86906100D01*
X180547047Y-86906100D01*
X180544100Y-86906100D01*
X180447737Y-86901213D01*
X180402001Y-86891814D01*
X180358331Y-86887513D01*
X180310568Y-86873024D01*
X180258957Y-86862418D01*
X180218811Y-86845190D01*
X180179704Y-86833327D01*
X180133020Y-86808374D01*
X180081850Y-86786415D01*
X180048463Y-86763177D01*
X180015083Y-86745335D01*
X179971835Y-86709842D01*
X179923668Y-86676317D01*
X179897708Y-86649008D01*
X179870786Y-86626913D01*
X179833383Y-86581338D01*
X179790886Y-86536631D01*
X179772547Y-86507209D01*
X179752364Y-86482616D01*
X179723141Y-86427945D01*
X179688941Y-86373075D01*
X179677949Y-86343396D01*
X179664372Y-86317995D01*
X179645496Y-86255770D01*
X179622007Y-86192347D01*
X179617670Y-86164042D01*
X179610186Y-86139368D01*
X179603515Y-86071642D01*
X179592823Y-86001843D01*
X179594120Y-85976250D01*
X179591890Y-85953600D01*
X179598856Y-85882862D01*
X179602584Y-85809365D01*
X179608251Y-85787477D01*
X179610186Y-85767831D01*
X179631705Y-85696890D01*
X179650891Y-85622792D01*
X179659518Y-85605203D01*
X179664372Y-85589204D01*
X179700758Y-85521129D01*
X179735766Y-85449762D01*
X179745910Y-85436655D01*
X179752364Y-85424583D01*
X179803271Y-85362552D01*
X179853735Y-85297359D01*
X179864022Y-85288527D01*
X179870786Y-85280286D01*
X179935227Y-85227399D01*
X179999967Y-85171823D01*
X180009176Y-85166711D01*
X180015083Y-85161864D01*
X180091497Y-85121019D01*
X180168476Y-85078293D01*
X180175635Y-85076046D01*
X180179704Y-85073872D01*
X180266024Y-85047686D01*
X180352363Y-85020598D01*
X180356817Y-85020144D01*
X180358331Y-85019686D01*
X180453534Y-85010309D01*
X180544100Y-85001100D01*
X180639100Y-85001100D01*
X180735463Y-85005987D01*
G37*
G36*
X188793412Y-83129876D02*
G01*
X189043347Y-83206971D01*
X189279000Y-83320456D01*
X189495107Y-83467795D01*
X189686841Y-83645698D01*
X189849918Y-83850190D01*
X189980696Y-84076703D01*
X190076252Y-84320178D01*
X190134454Y-84575176D01*
X190154000Y-84836000D01*
X190134454Y-85096824D01*
X190076252Y-85351822D01*
X189980696Y-85595297D01*
X189849918Y-85821810D01*
X189686841Y-86026302D01*
X189495107Y-86204205D01*
X189279000Y-86351544D01*
X189043347Y-86465029D01*
X188793412Y-86542124D01*
X188534778Y-86581107D01*
X188273222Y-86581107D01*
X188014588Y-86542124D01*
X187764653Y-86465029D01*
X187529000Y-86351544D01*
X187312893Y-86204205D01*
X187121159Y-86026302D01*
X186958082Y-85821810D01*
X186827304Y-85595297D01*
X186731748Y-85351822D01*
X186673546Y-85096824D01*
X186654000Y-84836000D01*
X186673546Y-84575176D01*
X186731748Y-84320178D01*
X186827304Y-84076703D01*
X186958082Y-83850190D01*
X187121159Y-83645698D01*
X187312893Y-83467795D01*
X187529000Y-83320456D01*
X187764653Y-83206971D01*
X188014588Y-83129876D01*
X188273222Y-83090893D01*
X188534778Y-83090893D01*
X188793412Y-83129876D01*
G37*
G36*
X141134343Y-82985523D02*
G01*
X141195469Y-82985523D01*
X141250027Y-82994627D01*
X141306223Y-82999050D01*
X141373904Y-83015299D01*
X141439828Y-83026300D01*
X141486586Y-83042352D01*
X141535065Y-83053991D01*
X141605626Y-83083218D01*
X141674143Y-83106740D01*
X141712413Y-83127450D01*
X141752502Y-83144056D01*
X141823559Y-83187600D01*
X141892022Y-83224650D01*
X141921646Y-83247707D01*
X141953168Y-83267024D01*
X142022049Y-83325854D01*
X142087522Y-83376814D01*
X142108881Y-83400016D01*
X142132128Y-83419871D01*
X142195965Y-83494614D01*
X142255311Y-83559081D01*
X142269259Y-83580430D01*
X142284975Y-83598831D01*
X142340821Y-83689964D01*
X142390811Y-83766479D01*
X142398622Y-83784286D01*
X142407943Y-83799497D01*
X142452861Y-83907940D01*
X142490326Y-83993351D01*
X142493608Y-84006311D01*
X142498008Y-84016934D01*
X142529223Y-84146953D01*
X142551142Y-84233508D01*
X142551741Y-84240748D01*
X142552949Y-84245776D01*
X142567896Y-84435707D01*
X142571600Y-84480400D01*
X142567896Y-84525096D01*
X142552949Y-84715023D01*
X142551742Y-84720050D01*
X142551142Y-84727292D01*
X142529218Y-84813864D01*
X142498008Y-84943865D01*
X142493608Y-84954485D01*
X142490326Y-84967449D01*
X142452854Y-85052876D01*
X142407943Y-85161302D01*
X142398623Y-85176509D01*
X142390811Y-85194321D01*
X142340811Y-85270850D01*
X142284975Y-85361968D01*
X142269261Y-85380365D01*
X142255311Y-85401719D01*
X142195953Y-85466198D01*
X142132128Y-85540928D01*
X142108885Y-85560778D01*
X142087522Y-85583986D01*
X142022036Y-85634955D01*
X141953168Y-85693775D01*
X141921652Y-85713087D01*
X141892022Y-85736150D01*
X141823545Y-85773207D01*
X141752502Y-85816743D01*
X141712420Y-85833345D01*
X141674143Y-85854060D01*
X141605611Y-85877586D01*
X141535065Y-85906808D01*
X141486596Y-85918444D01*
X141439828Y-85934500D01*
X141373890Y-85945503D01*
X141306223Y-85961749D01*
X141250039Y-85966170D01*
X141195469Y-85975277D01*
X141134331Y-85975277D01*
X141071600Y-85980214D01*
X141008868Y-85975277D01*
X140947731Y-85975277D01*
X140893161Y-85966170D01*
X140836976Y-85961749D01*
X140769306Y-85945502D01*
X140703372Y-85934500D01*
X140656605Y-85918445D01*
X140608134Y-85906808D01*
X140537582Y-85877584D01*
X140469057Y-85854060D01*
X140430782Y-85833346D01*
X140390697Y-85816743D01*
X140319645Y-85773202D01*
X140251178Y-85736150D01*
X140221551Y-85713090D01*
X140190031Y-85693775D01*
X140121152Y-85634946D01*
X140055678Y-85583986D01*
X140034317Y-85560782D01*
X140011071Y-85540928D01*
X139947232Y-85466183D01*
X139887889Y-85401719D01*
X139873941Y-85380370D01*
X139858224Y-85361968D01*
X139802371Y-85270825D01*
X139752389Y-85194321D01*
X139744578Y-85176515D01*
X139735256Y-85161302D01*
X139690327Y-85052835D01*
X139652874Y-84967449D01*
X139649592Y-84954492D01*
X139645191Y-84943865D01*
X139613961Y-84813788D01*
X139592058Y-84727292D01*
X139591458Y-84720056D01*
X139590250Y-84715023D01*
X139575284Y-84524871D01*
X139571600Y-84480400D01*
X139575282Y-84435962D01*
X139590250Y-84245776D01*
X139591458Y-84240742D01*
X139592058Y-84233508D01*
X139613957Y-84147029D01*
X139645191Y-84016934D01*
X139649593Y-84006305D01*
X139652874Y-83993351D01*
X139690320Y-83907981D01*
X139735256Y-83799497D01*
X139744580Y-83784281D01*
X139752389Y-83766479D01*
X139802362Y-83689989D01*
X139858224Y-83598831D01*
X139873944Y-83580425D01*
X139887889Y-83559081D01*
X139947220Y-83494629D01*
X140011071Y-83419871D01*
X140034322Y-83400012D01*
X140055678Y-83376814D01*
X140121139Y-83325863D01*
X140190031Y-83267024D01*
X140221557Y-83247704D01*
X140251178Y-83224650D01*
X140319631Y-83187604D01*
X140390697Y-83144056D01*
X140430790Y-83127448D01*
X140469057Y-83106740D01*
X140537568Y-83083220D01*
X140608134Y-83053991D01*
X140656615Y-83042351D01*
X140703372Y-83026300D01*
X140769292Y-83015299D01*
X140836976Y-82999050D01*
X140893173Y-82994627D01*
X140947731Y-82985523D01*
X141008855Y-82985523D01*
X141071599Y-82980585D01*
X141134343Y-82985523D01*
G37*
G36*
X146315944Y-82934723D02*
G01*
X146377069Y-82934723D01*
X146431627Y-82943827D01*
X146487823Y-82948250D01*
X146555504Y-82964499D01*
X146621428Y-82975500D01*
X146668186Y-82991552D01*
X146716665Y-83003191D01*
X146787226Y-83032418D01*
X146855743Y-83055940D01*
X146894013Y-83076650D01*
X146934102Y-83093256D01*
X147005159Y-83136800D01*
X147073622Y-83173850D01*
X147103246Y-83196907D01*
X147134768Y-83216224D01*
X147203649Y-83275054D01*
X147269122Y-83326014D01*
X147290481Y-83349216D01*
X147313728Y-83369071D01*
X147377565Y-83443814D01*
X147436911Y-83508281D01*
X147450859Y-83529630D01*
X147466575Y-83548031D01*
X147522421Y-83639164D01*
X147572411Y-83715679D01*
X147580222Y-83733486D01*
X147589543Y-83748697D01*
X147634461Y-83857140D01*
X147671926Y-83942551D01*
X147675208Y-83955511D01*
X147679608Y-83966134D01*
X147710823Y-84096153D01*
X147732742Y-84182708D01*
X147733341Y-84189948D01*
X147734549Y-84194976D01*
X147749497Y-84384922D01*
X147753200Y-84429600D01*
X147749495Y-84474311D01*
X147734549Y-84664223D01*
X147733342Y-84669250D01*
X147732742Y-84676492D01*
X147710818Y-84763064D01*
X147679608Y-84893065D01*
X147675208Y-84903685D01*
X147671926Y-84916649D01*
X147634454Y-85002076D01*
X147589543Y-85110502D01*
X147580223Y-85125709D01*
X147572411Y-85143521D01*
X147522411Y-85220050D01*
X147466575Y-85311168D01*
X147450861Y-85329565D01*
X147436911Y-85350919D01*
X147377553Y-85415398D01*
X147313728Y-85490128D01*
X147290485Y-85509978D01*
X147269122Y-85533186D01*
X147203636Y-85584155D01*
X147134768Y-85642975D01*
X147103252Y-85662287D01*
X147073622Y-85685350D01*
X147005145Y-85722407D01*
X146934102Y-85765943D01*
X146894020Y-85782545D01*
X146855743Y-85803260D01*
X146787211Y-85826786D01*
X146716665Y-85856008D01*
X146668196Y-85867644D01*
X146621428Y-85883700D01*
X146555490Y-85894703D01*
X146487823Y-85910949D01*
X146431639Y-85915370D01*
X146377069Y-85924477D01*
X146315931Y-85924477D01*
X146253200Y-85929414D01*
X146190468Y-85924477D01*
X146129331Y-85924477D01*
X146074761Y-85915370D01*
X146018576Y-85910949D01*
X145950906Y-85894702D01*
X145884972Y-85883700D01*
X145838205Y-85867645D01*
X145789734Y-85856008D01*
X145719182Y-85826784D01*
X145650657Y-85803260D01*
X145612382Y-85782546D01*
X145572297Y-85765943D01*
X145501245Y-85722402D01*
X145432778Y-85685350D01*
X145403151Y-85662290D01*
X145371631Y-85642975D01*
X145302752Y-85584146D01*
X145237278Y-85533186D01*
X145215917Y-85509982D01*
X145192671Y-85490128D01*
X145128832Y-85415383D01*
X145069489Y-85350919D01*
X145055541Y-85329570D01*
X145039824Y-85311168D01*
X144983971Y-85220025D01*
X144933989Y-85143521D01*
X144926178Y-85125715D01*
X144916856Y-85110502D01*
X144871927Y-85002035D01*
X144834474Y-84916649D01*
X144831192Y-84903692D01*
X144826791Y-84893065D01*
X144795561Y-84762988D01*
X144773658Y-84676492D01*
X144773058Y-84669256D01*
X144771850Y-84664223D01*
X144756884Y-84474071D01*
X144753200Y-84429600D01*
X144756882Y-84385162D01*
X144771850Y-84194976D01*
X144773058Y-84189942D01*
X144773658Y-84182708D01*
X144795557Y-84096229D01*
X144826791Y-83966134D01*
X144831193Y-83955505D01*
X144834474Y-83942551D01*
X144871920Y-83857181D01*
X144916856Y-83748697D01*
X144926180Y-83733481D01*
X144933989Y-83715679D01*
X144983962Y-83639189D01*
X145039824Y-83548031D01*
X145055544Y-83529625D01*
X145069489Y-83508281D01*
X145128820Y-83443829D01*
X145192671Y-83369071D01*
X145215922Y-83349212D01*
X145237278Y-83326014D01*
X145302739Y-83275063D01*
X145371631Y-83216224D01*
X145403157Y-83196904D01*
X145432778Y-83173850D01*
X145501231Y-83136804D01*
X145572297Y-83093256D01*
X145612390Y-83076648D01*
X145650657Y-83055940D01*
X145719168Y-83032420D01*
X145789734Y-83003191D01*
X145838215Y-82991551D01*
X145884972Y-82975500D01*
X145950892Y-82964499D01*
X146018576Y-82948250D01*
X146074773Y-82943827D01*
X146129331Y-82934723D01*
X146190456Y-82934723D01*
X146253200Y-82929785D01*
X146315944Y-82934723D01*
G37*
G36*
X205207863Y-83888387D02*
G01*
X205253591Y-83897784D01*
X205297268Y-83902086D01*
X205345038Y-83916577D01*
X205396643Y-83927182D01*
X205436782Y-83944407D01*
X205475895Y-83956272D01*
X205522583Y-83981227D01*
X205573750Y-84003185D01*
X205607133Y-84026420D01*
X205640516Y-84044264D01*
X205683765Y-84079758D01*
X205731932Y-84113283D01*
X205757890Y-84140591D01*
X205784813Y-84162686D01*
X205822214Y-84208260D01*
X205864714Y-84252969D01*
X205883052Y-84282391D01*
X205903235Y-84306983D01*
X205932455Y-84361649D01*
X205966659Y-84416525D01*
X205977651Y-84446206D01*
X205991227Y-84471604D01*
X206010099Y-84533819D01*
X206033593Y-84597253D01*
X206037929Y-84625562D01*
X206045413Y-84650231D01*
X206052081Y-84717940D01*
X206062777Y-84787757D01*
X206061478Y-84813355D01*
X206063709Y-84836000D01*
X206056744Y-84906715D01*
X206053016Y-84980235D01*
X206047347Y-85002129D01*
X206045413Y-85021768D01*
X206023901Y-85092680D01*
X206004709Y-85166808D01*
X205996077Y-85184403D01*
X205991227Y-85200395D01*
X205954858Y-85268435D01*
X205919834Y-85339838D01*
X205909684Y-85352950D01*
X205903235Y-85365016D01*
X205852358Y-85427008D01*
X205801865Y-85492241D01*
X205791571Y-85501077D01*
X205784813Y-85509313D01*
X205720420Y-85562158D01*
X205655633Y-85617777D01*
X205646416Y-85622892D01*
X205640516Y-85627735D01*
X205564176Y-85668539D01*
X205487124Y-85711307D01*
X205479957Y-85713555D01*
X205475895Y-85715727D01*
X205389700Y-85741873D01*
X205303237Y-85769002D01*
X205298775Y-85769455D01*
X205297268Y-85769913D01*
X205202235Y-85779272D01*
X205111500Y-85788500D01*
X205108553Y-85788500D01*
X205019447Y-85788500D01*
X205016500Y-85788500D01*
X204920137Y-85783613D01*
X204874401Y-85774214D01*
X204830731Y-85769913D01*
X204782968Y-85755424D01*
X204731357Y-85744818D01*
X204691211Y-85727590D01*
X204652104Y-85715727D01*
X204605420Y-85690774D01*
X204554250Y-85668815D01*
X204520863Y-85645577D01*
X204487483Y-85627735D01*
X204444235Y-85592242D01*
X204396068Y-85558717D01*
X204370108Y-85531408D01*
X204343186Y-85509313D01*
X204305783Y-85463738D01*
X204263286Y-85419031D01*
X204244947Y-85389609D01*
X204224764Y-85365016D01*
X204195541Y-85310345D01*
X204161341Y-85255475D01*
X204150349Y-85225796D01*
X204136772Y-85200395D01*
X204117896Y-85138170D01*
X204094407Y-85074747D01*
X204090070Y-85046442D01*
X204082586Y-85021768D01*
X204075915Y-84954042D01*
X204065223Y-84884243D01*
X204066520Y-84858650D01*
X204064290Y-84835999D01*
X204071256Y-84765261D01*
X204074984Y-84691765D01*
X204080651Y-84669877D01*
X204082586Y-84650231D01*
X204104105Y-84579290D01*
X204123291Y-84505192D01*
X204131918Y-84487603D01*
X204136772Y-84471604D01*
X204173158Y-84403529D01*
X204208166Y-84332162D01*
X204218310Y-84319055D01*
X204224764Y-84306983D01*
X204275671Y-84244952D01*
X204326135Y-84179759D01*
X204336422Y-84170927D01*
X204343186Y-84162686D01*
X204407627Y-84109799D01*
X204472367Y-84054223D01*
X204481576Y-84049111D01*
X204487483Y-84044264D01*
X204563897Y-84003419D01*
X204640876Y-83960693D01*
X204648035Y-83958446D01*
X204652104Y-83956272D01*
X204738424Y-83930086D01*
X204824763Y-83902998D01*
X204829217Y-83902544D01*
X204830731Y-83902086D01*
X204925934Y-83892709D01*
X205016500Y-83883500D01*
X205111500Y-83883500D01*
X205207863Y-83888387D01*
G37*
G36*
X129854850Y-83300964D02*
G01*
X129905040Y-83306787D01*
X129922189Y-83314359D01*
X129945671Y-83319030D01*
X129970810Y-83335827D01*
X129990696Y-83344608D01*
X130004277Y-83358189D01*
X130026777Y-83373223D01*
X130041810Y-83395722D01*
X130055391Y-83409303D01*
X130064170Y-83429186D01*
X130080970Y-83454329D01*
X130085641Y-83477812D01*
X130093212Y-83494959D01*
X130099033Y-83545139D01*
X130100000Y-83550000D01*
X130100000Y-84450000D01*
X130099032Y-84454863D01*
X130093212Y-84505040D01*
X130085641Y-84522185D01*
X130080970Y-84545671D01*
X130064169Y-84570815D01*
X130055391Y-84590696D01*
X130041812Y-84604274D01*
X130026777Y-84626777D01*
X130004274Y-84641812D01*
X129990696Y-84655391D01*
X129970815Y-84664169D01*
X129945671Y-84680970D01*
X129922185Y-84685641D01*
X129905040Y-84693212D01*
X129854861Y-84699032D01*
X129850000Y-84700000D01*
X129325000Y-84700000D01*
X129320138Y-84699032D01*
X129269959Y-84693212D01*
X129252812Y-84685641D01*
X129229329Y-84680970D01*
X129204186Y-84664170D01*
X129184303Y-84655391D01*
X129170722Y-84641810D01*
X129148223Y-84626777D01*
X129133189Y-84604277D01*
X129119608Y-84590696D01*
X129110827Y-84570810D01*
X129094030Y-84545671D01*
X129089359Y-84522189D01*
X129081787Y-84505040D01*
X129075964Y-84454849D01*
X129075000Y-84450000D01*
X129075000Y-83550000D01*
X129075964Y-83545150D01*
X129081787Y-83494959D01*
X129089359Y-83477808D01*
X129094030Y-83454329D01*
X129110826Y-83429191D01*
X129119608Y-83409303D01*
X129133191Y-83395719D01*
X129148223Y-83373223D01*
X129170719Y-83358191D01*
X129184303Y-83344608D01*
X129204191Y-83335826D01*
X129229329Y-83319030D01*
X129252808Y-83314359D01*
X129269959Y-83306787D01*
X129320151Y-83300964D01*
X129325000Y-83300000D01*
X129850000Y-83300000D01*
X129854850Y-83300964D01*
G37*
G36*
X131679850Y-83300964D02*
G01*
X131730040Y-83306787D01*
X131747189Y-83314359D01*
X131770671Y-83319030D01*
X131795810Y-83335827D01*
X131815696Y-83344608D01*
X131829277Y-83358189D01*
X131851777Y-83373223D01*
X131866810Y-83395722D01*
X131880391Y-83409303D01*
X131889170Y-83429186D01*
X131905970Y-83454329D01*
X131910641Y-83477812D01*
X131918212Y-83494959D01*
X131924033Y-83545139D01*
X131925000Y-83550000D01*
X131925000Y-84450000D01*
X131924032Y-84454863D01*
X131918212Y-84505040D01*
X131910641Y-84522185D01*
X131905970Y-84545671D01*
X131889169Y-84570815D01*
X131880391Y-84590696D01*
X131866812Y-84604274D01*
X131851777Y-84626777D01*
X131829274Y-84641812D01*
X131815696Y-84655391D01*
X131795815Y-84664169D01*
X131770671Y-84680970D01*
X131747185Y-84685641D01*
X131730040Y-84693212D01*
X131679861Y-84699032D01*
X131675000Y-84700000D01*
X131150000Y-84700000D01*
X131145138Y-84699032D01*
X131094959Y-84693212D01*
X131077812Y-84685641D01*
X131054329Y-84680970D01*
X131029186Y-84664170D01*
X131009303Y-84655391D01*
X130995722Y-84641810D01*
X130973223Y-84626777D01*
X130958189Y-84604277D01*
X130944608Y-84590696D01*
X130935827Y-84570810D01*
X130919030Y-84545671D01*
X130914359Y-84522189D01*
X130906787Y-84505040D01*
X130900964Y-84454849D01*
X130900000Y-84450000D01*
X130900000Y-83550000D01*
X130900964Y-83545150D01*
X130906787Y-83494959D01*
X130914359Y-83477808D01*
X130919030Y-83454329D01*
X130935826Y-83429191D01*
X130944608Y-83409303D01*
X130958191Y-83395719D01*
X130973223Y-83373223D01*
X130995719Y-83358191D01*
X131009303Y-83344608D01*
X131029191Y-83335826D01*
X131054329Y-83319030D01*
X131077808Y-83314359D01*
X131094959Y-83306787D01*
X131145151Y-83300964D01*
X131150000Y-83300000D01*
X131675000Y-83300000D01*
X131679850Y-83300964D01*
G37*
G36*
X205207863Y-81348387D02*
G01*
X205253591Y-81357784D01*
X205297268Y-81362086D01*
X205345038Y-81376577D01*
X205396643Y-81387182D01*
X205436782Y-81404407D01*
X205475895Y-81416272D01*
X205522583Y-81441227D01*
X205573750Y-81463185D01*
X205607133Y-81486420D01*
X205640516Y-81504264D01*
X205683765Y-81539758D01*
X205731932Y-81573283D01*
X205757890Y-81600591D01*
X205784813Y-81622686D01*
X205822214Y-81668260D01*
X205864714Y-81712969D01*
X205883052Y-81742391D01*
X205903235Y-81766983D01*
X205932455Y-81821649D01*
X205966659Y-81876525D01*
X205977651Y-81906206D01*
X205991227Y-81931604D01*
X206010099Y-81993819D01*
X206033593Y-82057253D01*
X206037929Y-82085562D01*
X206045413Y-82110231D01*
X206052081Y-82177941D01*
X206062777Y-82247757D01*
X206061478Y-82273355D01*
X206063709Y-82295999D01*
X206056744Y-82366714D01*
X206053016Y-82440235D01*
X206047347Y-82462129D01*
X206045413Y-82481768D01*
X206023901Y-82552680D01*
X206004709Y-82626808D01*
X205996077Y-82644403D01*
X205991227Y-82660395D01*
X205954858Y-82728435D01*
X205919834Y-82799838D01*
X205909684Y-82812950D01*
X205903235Y-82825016D01*
X205852358Y-82887008D01*
X205801865Y-82952241D01*
X205791571Y-82961077D01*
X205784813Y-82969313D01*
X205720420Y-83022158D01*
X205655633Y-83077777D01*
X205646416Y-83082892D01*
X205640516Y-83087735D01*
X205564176Y-83128539D01*
X205487124Y-83171307D01*
X205479957Y-83173555D01*
X205475895Y-83175727D01*
X205389700Y-83201873D01*
X205303237Y-83229002D01*
X205298775Y-83229455D01*
X205297268Y-83229913D01*
X205202235Y-83239272D01*
X205111500Y-83248500D01*
X205108553Y-83248500D01*
X205019447Y-83248500D01*
X205016500Y-83248500D01*
X204920137Y-83243613D01*
X204874401Y-83234214D01*
X204830731Y-83229913D01*
X204782968Y-83215424D01*
X204731357Y-83204818D01*
X204691211Y-83187590D01*
X204652104Y-83175727D01*
X204605420Y-83150774D01*
X204554250Y-83128815D01*
X204520863Y-83105577D01*
X204487483Y-83087735D01*
X204444235Y-83052242D01*
X204396068Y-83018717D01*
X204370108Y-82991408D01*
X204343186Y-82969313D01*
X204305783Y-82923738D01*
X204263286Y-82879031D01*
X204244947Y-82849609D01*
X204224764Y-82825016D01*
X204195541Y-82770345D01*
X204161341Y-82715475D01*
X204150349Y-82685796D01*
X204136772Y-82660395D01*
X204117896Y-82598170D01*
X204094407Y-82534747D01*
X204090070Y-82506442D01*
X204082586Y-82481768D01*
X204075915Y-82414042D01*
X204065223Y-82344243D01*
X204066520Y-82318650D01*
X204064290Y-82296000D01*
X204071256Y-82225262D01*
X204074984Y-82151765D01*
X204080651Y-82129877D01*
X204082586Y-82110231D01*
X204104105Y-82039290D01*
X204123291Y-81965192D01*
X204131918Y-81947603D01*
X204136772Y-81931604D01*
X204173158Y-81863529D01*
X204208166Y-81792162D01*
X204218310Y-81779055D01*
X204224764Y-81766983D01*
X204275671Y-81704952D01*
X204326135Y-81639759D01*
X204336422Y-81630927D01*
X204343186Y-81622686D01*
X204407627Y-81569799D01*
X204472367Y-81514223D01*
X204481576Y-81509111D01*
X204487483Y-81504264D01*
X204563897Y-81463419D01*
X204640876Y-81420693D01*
X204648035Y-81418446D01*
X204652104Y-81416272D01*
X204738424Y-81390086D01*
X204824763Y-81362998D01*
X204829217Y-81362544D01*
X204830731Y-81362086D01*
X204925934Y-81352709D01*
X205016500Y-81343500D01*
X205111500Y-81343500D01*
X205207863Y-81348387D01*
G37*
G36*
X109554850Y-81496964D02*
G01*
X109605040Y-81502787D01*
X109622189Y-81510359D01*
X109645671Y-81515030D01*
X109670810Y-81531827D01*
X109690696Y-81540608D01*
X109704277Y-81554189D01*
X109726777Y-81569223D01*
X109741810Y-81591722D01*
X109755391Y-81605303D01*
X109764170Y-81625186D01*
X109780970Y-81650329D01*
X109785641Y-81673812D01*
X109793212Y-81690959D01*
X109799033Y-81741139D01*
X109800000Y-81746000D01*
X109800000Y-82846000D01*
X109799032Y-82850863D01*
X109793212Y-82901040D01*
X109785641Y-82918185D01*
X109780970Y-82941671D01*
X109764169Y-82966815D01*
X109755391Y-82986696D01*
X109741812Y-83000274D01*
X109726777Y-83022777D01*
X109704274Y-83037812D01*
X109690696Y-83051391D01*
X109670815Y-83060169D01*
X109645671Y-83076970D01*
X109622185Y-83081641D01*
X109605040Y-83089212D01*
X109554861Y-83095032D01*
X109550000Y-83096000D01*
X108450000Y-83096000D01*
X108445138Y-83095032D01*
X108394959Y-83089212D01*
X108377812Y-83081641D01*
X108354329Y-83076970D01*
X108329186Y-83060170D01*
X108309303Y-83051391D01*
X108295722Y-83037810D01*
X108273223Y-83022777D01*
X108258189Y-83000277D01*
X108244608Y-82986696D01*
X108235827Y-82966810D01*
X108219030Y-82941671D01*
X108214359Y-82918189D01*
X108206787Y-82901040D01*
X108200964Y-82850849D01*
X108200000Y-82846000D01*
X108200000Y-81746000D01*
X108200964Y-81741150D01*
X108206787Y-81690959D01*
X108214359Y-81673808D01*
X108219030Y-81650329D01*
X108235826Y-81625191D01*
X108244608Y-81605303D01*
X108258191Y-81591719D01*
X108273223Y-81569223D01*
X108295719Y-81554191D01*
X108309303Y-81540608D01*
X108329191Y-81531826D01*
X108354329Y-81515030D01*
X108377808Y-81510359D01*
X108394959Y-81502787D01*
X108445151Y-81496964D01*
X108450000Y-81496000D01*
X109550000Y-81496000D01*
X109554850Y-81496964D01*
G37*
G36*
X109041811Y-77900711D02*
G01*
X109083588Y-77900711D01*
X109130718Y-77910728D01*
X109178017Y-77916058D01*
X109212408Y-77928092D01*
X109247110Y-77935468D01*
X109297117Y-77957733D01*
X109347107Y-77975225D01*
X109373128Y-77991575D01*
X109399835Y-78003466D01*
X109449633Y-78039646D01*
X109498792Y-78070535D01*
X109516444Y-78088187D01*
X109535084Y-78101730D01*
X109581165Y-78152908D01*
X109625465Y-78197208D01*
X109635654Y-78213424D01*
X109646946Y-78225965D01*
X109685573Y-78292870D01*
X109720775Y-78348893D01*
X109725170Y-78361453D01*
X109730535Y-78370746D01*
X109758010Y-78455305D01*
X109779942Y-78517983D01*
X109780773Y-78525363D01*
X109782195Y-78529738D01*
X109795076Y-78652306D01*
X109800000Y-78696000D01*
X109795076Y-78739697D01*
X109782195Y-78862261D01*
X109780773Y-78866635D01*
X109779942Y-78874017D01*
X109758005Y-78936707D01*
X109730535Y-79021253D01*
X109725171Y-79030543D01*
X109720775Y-79043107D01*
X109685566Y-79099140D01*
X109646946Y-79166034D01*
X109635656Y-79178572D01*
X109625465Y-79194792D01*
X109581155Y-79239101D01*
X109535084Y-79290269D01*
X109516448Y-79303808D01*
X109498792Y-79321465D01*
X109449623Y-79352359D01*
X109399835Y-79388533D01*
X109373134Y-79400421D01*
X109347107Y-79416775D01*
X109297107Y-79434270D01*
X109247110Y-79456531D01*
X109212414Y-79463905D01*
X109178017Y-79475942D01*
X109130715Y-79481271D01*
X109083588Y-79491289D01*
X109041811Y-79491289D01*
X109000000Y-79496000D01*
X108958189Y-79491289D01*
X108916412Y-79491289D01*
X108869284Y-79481271D01*
X108821983Y-79475942D01*
X108787586Y-79463906D01*
X108752889Y-79456531D01*
X108702887Y-79434268D01*
X108652893Y-79416775D01*
X108626868Y-79400422D01*
X108600164Y-79388533D01*
X108550369Y-79352355D01*
X108501208Y-79321465D01*
X108483554Y-79303811D01*
X108464915Y-79290269D01*
X108418833Y-79239090D01*
X108374535Y-79194792D01*
X108364345Y-79178575D01*
X108353053Y-79166034D01*
X108314420Y-79099120D01*
X108279225Y-79043107D01*
X108274830Y-79030547D01*
X108269464Y-79021253D01*
X108241980Y-78936667D01*
X108220058Y-78874017D01*
X108219226Y-78866639D01*
X108217804Y-78862261D01*
X108204908Y-78739565D01*
X108200000Y-78696000D01*
X108204908Y-78652438D01*
X108217804Y-78529738D01*
X108219226Y-78525358D01*
X108220058Y-78517983D01*
X108241975Y-78455345D01*
X108269464Y-78370746D01*
X108274831Y-78361449D01*
X108279225Y-78348893D01*
X108314413Y-78292890D01*
X108353053Y-78225965D01*
X108364347Y-78213421D01*
X108374535Y-78197208D01*
X108418826Y-78152916D01*
X108464917Y-78101728D01*
X108483559Y-78088183D01*
X108501208Y-78070535D01*
X108550354Y-78039654D01*
X108600162Y-78003467D01*
X108626873Y-77991574D01*
X108652893Y-77975225D01*
X108702877Y-77957734D01*
X108752889Y-77935468D01*
X108787592Y-77928091D01*
X108821983Y-77916058D01*
X108869281Y-77910728D01*
X108916412Y-77900711D01*
X108958189Y-77900711D01*
X109000000Y-77896000D01*
X109041811Y-77900711D01*
G37*
M02*
