%TF.GenerationSoftware,KiCad,Pcbnew,7.0.7*%
%TF.CreationDate,2026-03-20T17:50:21-05:00*%
%TF.ProjectId,esc_schematic,6573635f-7363-4686-956d-617469632e6b,rev?*%
%TF.SameCoordinates,Original*%
%TF.FileFunction,Copper,L2,Bot*%
%TF.FilePolarity,Positive*%
%FSLAX46Y46*%
G04 Gerber Fmt 4.6, Leading zero omitted, Abs format (unit mm)*
G04 Created by KiCad (PCBNEW 7.0.7) date 2026-03-20 17:50:21*
%MOMM*%
%LPD*%
G01*
G04 APERTURE LIST*
G04 Aperture macros list*
%AMRoundRect*
0 Rectangle with rounded corners*
0 $1 Rounding radius*
0 $2 $3 $4 $5 $6 $7 $8 $9 X,Y pos of 4 corners*
0 Add a 4 corners polygon primitive as box body*
4,1,4,$2,$3,$4,$5,$6,$7,$8,$9,$2,$3,0*
0 Add four circle primitives for the rounded corners*
1,1,$1+$1,$2,$3*
1,1,$1+$1,$4,$5*
1,1,$1+$1,$6,$7*
1,1,$1+$1,$8,$9*
0 Add four rect primitives between the rounded corners*
20,1,$1+$1,$2,$3,$4,$5,0*
20,1,$1+$1,$4,$5,$6,$7,0*
20,1,$1+$1,$6,$7,$8,$9,0*
20,1,$1+$1,$8,$9,$2,$3,0*%
G04 Aperture macros list end*
%TA.AperFunction,ComponentPad*%
%ADD10RoundRect,0.250000X0.550000X-0.550000X0.550000X0.550000X-0.550000X0.550000X-0.550000X-0.550000X0*%
%TD*%
%TA.AperFunction,ComponentPad*%
%ADD11C,1.600000*%
%TD*%
%TA.AperFunction,ComponentPad*%
%ADD12C,3.000000*%
%TD*%
%TA.AperFunction,ComponentPad*%
%ADD13R,2.000000X1.905000*%
%TD*%
%TA.AperFunction,ComponentPad*%
%ADD14O,2.000000X1.905000*%
%TD*%
%TA.AperFunction,ComponentPad*%
%ADD15R,1.275000X1.275000*%
%TD*%
%TA.AperFunction,ComponentPad*%
%ADD16C,1.275000*%
%TD*%
%TA.AperFunction,SMDPad,CuDef*%
%ADD17RoundRect,0.250000X0.262500X0.450000X-0.262500X0.450000X-0.262500X-0.450000X0.262500X-0.450000X0*%
%TD*%
%TA.AperFunction,SMDPad,CuDef*%
%ADD18R,1.117600X1.447800*%
%TD*%
%TA.AperFunction,SMDPad,CuDef*%
%ADD19R,1.447800X1.117600*%
%TD*%
%TA.AperFunction,ViaPad*%
%ADD20C,0.600000*%
%TD*%
%TA.AperFunction,Conductor*%
%ADD21C,0.203200*%
%TD*%
%TA.AperFunction,Conductor*%
%ADD22C,0.150000*%
%TD*%
%TA.AperFunction,Conductor*%
%ADD23C,0.304800*%
%TD*%
%TA.AperFunction,Conductor*%
%ADD24C,0.177800*%
%TD*%
G04 APERTURE END LIST*
D10*
%TO.P,J1,1,Pin_1*%
%TO.N,PWM_IN*%
X109000000Y-82296000D03*
D11*
%TO.P,J1,2,Pin_2*%
%TO.N,GND*%
X109000000Y-78696000D03*
%TD*%
D12*
%TO.P,INHC1,1,1*%
%TO.N,INHC*%
X132334000Y-116840000D03*
%TD*%
%TO.P,INLC1,1,1*%
%TO.N,INLC*%
X137160000Y-116840000D03*
%TD*%
D13*
%TO.P,Q3,1,G*%
%TO.N,Net-(Q3-G)*%
X180591600Y-91033600D03*
D14*
%TO.P,Q3,2,D*%
%TO.N,+12V*%
X180591600Y-88493600D03*
%TO.P,Q3,3,S*%
%TO.N,C*%
X180591600Y-85953600D03*
%TD*%
D12*
%TO.P,UPDI1,1,1*%
%TO.N,UPDI*%
X130302000Y-111252000D03*
%TD*%
D13*
%TO.P,Q6,1,G*%
%TO.N,Net-(Q6-G)*%
X205064000Y-87376000D03*
D14*
%TO.P,Q6,2,D*%
%TO.N,C*%
X205064000Y-84836000D03*
%TO.P,Q6,3,S*%
%TO.N,GND*%
X205064000Y-82296000D03*
%TD*%
D13*
%TO.P,Q5,1,G*%
%TO.N,Net-(Q5-G)*%
X204620000Y-102736000D03*
D14*
%TO.P,Q5,2,D*%
%TO.N,B*%
X204620000Y-100196000D03*
%TO.P,Q5,3,S*%
%TO.N,GND*%
X204620000Y-97656000D03*
%TD*%
D12*
%TO.P,INLB1,1,1*%
%TO.N,INLB*%
X118872000Y-95758000D03*
%TD*%
%TO.P,\u002ARESET1,1,1*%
%TO.N,\u002ARESET*%
X125730000Y-111252000D03*
%TD*%
D13*
%TO.P,Q2,1,G*%
%TO.N,Net-(Q2-G)*%
X180591600Y-102583600D03*
D14*
%TO.P,Q2,2,D*%
%TO.N,+12V*%
X180591600Y-100043600D03*
%TO.P,Q2,3,S*%
%TO.N,B*%
X180591600Y-97503600D03*
%TD*%
D12*
%TO.P,INLA1,1,1*%
%TO.N,INLA*%
X141071600Y-84480400D03*
%TD*%
%TO.P,INHB1,1,1*%
%TO.N,INHB*%
X118872000Y-91186000D03*
%TD*%
D13*
%TO.P,Q4,1,G*%
%TO.N,Net-(Q4-G)*%
X204460008Y-121675179D03*
D14*
%TO.P,Q4,2,D*%
%TO.N,A*%
X204460008Y-119135179D03*
%TO.P,Q4,3,S*%
%TO.N,GND*%
X204460008Y-116595179D03*
%TD*%
D12*
%TO.P,INHA1,1,1*%
%TO.N,INHA*%
X146253200Y-84429600D03*
%TD*%
D13*
%TO.P,Q1,1,G*%
%TO.N,Net-(Q1-G)*%
X180591600Y-114133600D03*
D14*
%TO.P,Q1,2,D*%
%TO.N,+12V*%
X180591600Y-111593600D03*
%TO.P,Q1,3,S*%
%TO.N,A*%
X180591600Y-109053600D03*
%TD*%
D15*
%TO.P,C1,1,+*%
%TO.N,+12V*%
X117856000Y-113792000D03*
D16*
%TO.P,C1,2,-*%
%TO.N,GND*%
X117856000Y-110292000D03*
%TD*%
D12*
%TO.P,VDD1,1,1*%
%TO.N,3v3*%
X122428000Y-101092000D03*
%TD*%
D17*
%TO.P,R10,1*%
%TO.N,NEUTRAL*%
X131412500Y-84000000D03*
%TO.P,R10,2*%
%TO.N,BACK_EMFC*%
X129587500Y-84000000D03*
%TD*%
D18*
%TO.P,C8,1*%
%TO.N,GND*%
X136144000Y-109728000D03*
%TO.P,C8,2*%
%TO.N,3v3*%
X134340600Y-109728000D03*
%TD*%
%TO.P,C7,1*%
%TO.N,GND*%
X135890000Y-104902000D03*
%TO.P,C7,2*%
%TO.N,3v3*%
X134086600Y-104902000D03*
%TD*%
%TO.P,C10,1*%
%TO.N,GND*%
X148082000Y-107950000D03*
%TO.P,C10,2*%
%TO.N,3v3*%
X146278600Y-107950000D03*
%TD*%
D19*
%TO.P,C6,1*%
%TO.N,GND*%
X132334000Y-102795302D03*
%TO.P,C6,2*%
%TO.N,3v3*%
X132334000Y-100991902D03*
%TD*%
D20*
%TO.N,PWM_IN*%
X139446000Y-103124000D03*
%TO.N,Net-(Q1-G)*%
X148336000Y-116078000D03*
%TO.N,A*%
X146558000Y-91440000D03*
X149352000Y-116586000D03*
%TO.N,Net-(Q2-G)*%
X153797000Y-112395000D03*
%TO.N,B*%
X154178000Y-113284000D03*
X194310000Y-99568000D03*
X146558000Y-95758000D03*
%TO.N,Net-(Q3-G)*%
X153416000Y-111506000D03*
%TO.N,Net-(Q4-G)*%
X150368000Y-115570000D03*
%TO.N,Net-(Q5-G)*%
X152908000Y-113792000D03*
%TO.N,Net-(Q6-G)*%
X151892000Y-109474000D03*
%TO.N,BACK_EMFC*%
X131000000Y-91500000D03*
%TO.N,NEUTRAL*%
X137000000Y-91500000D03*
%TO.N,INHA*%
X140106400Y-107289600D03*
X146268800Y-81788000D03*
%TO.N,INLA*%
X141071600Y-81991200D03*
X138633200Y-107442000D03*
%TO.N,INHB*%
X132000000Y-106000000D03*
X121158000Y-91186000D03*
%TO.N,INLB*%
X132500000Y-105000000D03*
X121412000Y-95758000D03*
%TO.N,INHC*%
X134620000Y-114554000D03*
X141500000Y-111500000D03*
%TO.N,GND*%
X127500000Y-104500000D03*
X127762000Y-92456000D03*
X132334000Y-92710000D03*
X138000000Y-92710000D03*
X146558000Y-102616000D03*
X134000000Y-112000000D03*
X150000000Y-112000000D03*
X149000000Y-111000000D03*
X149000000Y-113000000D03*
X148000000Y-112000000D03*
%TO.N,3v3*%
X143995201Y-108140800D03*
X134500000Y-101000000D03*
X132842000Y-109728000D03*
%TD*%
D21*
%TO.N,PWM_IN*%
X115858000Y-82550000D02*
X115500000Y-82550000D01*
D22*
X119380000Y-82550000D02*
X115500000Y-82550000D01*
D21*
X109254000Y-82550000D02*
X109000000Y-82296000D01*
X115500000Y-82550000D02*
X109254000Y-82550000D01*
X139446000Y-103124000D02*
X139446000Y-102616000D01*
X139446000Y-102616000D02*
X119380000Y-82550000D01*
%TO.N,Net-(Q1-G)*%
X180591600Y-115064400D02*
X178308000Y-117348000D01*
X180591600Y-114133600D02*
X180591600Y-115064400D01*
X148336000Y-117348000D02*
X148336000Y-116078000D01*
X178308000Y-117348000D02*
X148336000Y-117348000D01*
%TO.N,A*%
X205749179Y-119135179D02*
X206756000Y-120142000D01*
X143002000Y-109893209D02*
X149352000Y-116243209D01*
X182372000Y-107696000D02*
X174244000Y-107696000D01*
X143002000Y-94996000D02*
X143002000Y-109893209D01*
X206756000Y-123190000D02*
X199898000Y-123190000D01*
X149352000Y-116243209D02*
X149352000Y-116586000D01*
X206756000Y-120142000D02*
X206756000Y-123190000D01*
X174244000Y-107696000D02*
X165354000Y-116586000D01*
X199898000Y-123190000D02*
X199136000Y-122428000D01*
X204460008Y-119135179D02*
X205749179Y-119135179D01*
X199136000Y-122428000D02*
X197104000Y-122428000D01*
X146558000Y-91440000D02*
X143002000Y-94996000D01*
X197104000Y-122428000D02*
X182372000Y-107696000D01*
X165354000Y-116586000D02*
X154178000Y-116586000D01*
D23*
X149352000Y-116586000D02*
X154178000Y-116586000D01*
D21*
%TO.N,Net-(Q2-G)*%
X153924000Y-112268000D02*
X154432000Y-112268000D01*
X153797000Y-112395000D02*
X153924000Y-112268000D01*
X154940000Y-111760000D02*
X157480000Y-111760000D01*
X157480000Y-111760000D02*
X166656400Y-102583600D01*
X166656400Y-102583600D02*
X180591600Y-102583600D01*
X154432000Y-112268000D02*
X154940000Y-111760000D01*
%TO.N,B*%
X159004000Y-112268000D02*
X155194000Y-112268000D01*
X151638000Y-111506000D02*
X152146000Y-111506000D01*
X180591600Y-96522400D02*
X180591600Y-97503600D01*
X166370000Y-104902000D02*
X159004000Y-112268000D01*
X182457700Y-89747700D02*
X184912000Y-92202000D01*
X168487700Y-89747700D02*
X182457700Y-89747700D01*
X180591600Y-97503600D02*
X182085600Y-97503600D01*
X182880000Y-104902000D02*
X166370000Y-104902000D01*
X154178000Y-98806000D02*
X159258000Y-93726000D01*
X155194000Y-112268000D02*
X154178000Y-113284000D01*
X183388000Y-99060000D02*
X182880000Y-99568000D01*
X154178000Y-104585790D02*
X154178000Y-98806000D01*
X153670000Y-109982000D02*
X153670000Y-105093790D01*
X146558000Y-95758000D02*
X150876000Y-100076000D01*
X150876000Y-100076000D02*
X150876000Y-110744000D01*
X159258000Y-93218000D02*
X163830000Y-93218000D01*
X153670000Y-105093790D02*
X154178000Y-104585790D01*
X159258000Y-93726000D02*
X159258000Y-93218000D01*
X163830000Y-93218000D02*
X167894000Y-89154000D01*
X182880000Y-99568000D02*
X182880000Y-104902000D01*
X152146000Y-111506000D02*
X153670000Y-109982000D01*
X150876000Y-110744000D02*
X151638000Y-111506000D01*
X182085600Y-97503600D02*
X183388000Y-98806000D01*
X183388000Y-98806000D02*
X183388000Y-99060000D01*
X167894000Y-89154000D02*
X168487700Y-89747700D01*
X184912000Y-92202000D02*
X180591600Y-96522400D01*
%TO.N,Net-(Q3-G)*%
X154940000Y-110744000D02*
X155448000Y-110744000D01*
X153416000Y-111506000D02*
X154178000Y-111506000D01*
X156210000Y-103124000D02*
X168300400Y-91033600D01*
X168300400Y-91033600D02*
X180591600Y-91033600D01*
X154178000Y-111506000D02*
X154940000Y-110744000D01*
X155448000Y-110744000D02*
X156210000Y-109982000D01*
X156210000Y-109982000D02*
X156210000Y-103124000D01*
X153416000Y-111506000D02*
X153255600Y-111666400D01*
%TO.N,Net-(Q4-G)*%
X152908000Y-115824000D02*
X150114000Y-115824000D01*
X165862000Y-115062000D02*
X153670000Y-115062000D01*
X153670000Y-115062000D02*
X152908000Y-115824000D01*
X204460008Y-121675179D02*
X197367179Y-121675179D01*
X173736000Y-107188000D02*
X165862000Y-115062000D01*
X197367179Y-121675179D02*
X182880000Y-107188000D01*
X182880000Y-107188000D02*
X173736000Y-107188000D01*
%TO.N,Net-(Q5-G)*%
X153162000Y-114046000D02*
X152908000Y-113792000D01*
X202826000Y-102736000D02*
X199898000Y-105664000D01*
X204620000Y-102736000D02*
X202826000Y-102736000D01*
X199898000Y-105664000D02*
X173482000Y-105664000D01*
X165100000Y-114046000D02*
X153162000Y-114046000D01*
X173482000Y-105664000D02*
X165100000Y-114046000D01*
%TO.N,Net-(Q6-G)*%
X205064000Y-87376000D02*
X204895700Y-87207700D01*
X204895700Y-87207700D02*
X168995700Y-87207700D01*
X152146000Y-106680000D02*
X152146000Y-109220000D01*
X168995700Y-87207700D02*
X165608000Y-83820000D01*
X159512000Y-83820000D02*
X152146000Y-91186000D01*
X152146000Y-109220000D02*
X151892000Y-109474000D01*
X152146000Y-91186000D02*
X152146000Y-106680000D01*
X165608000Y-83820000D02*
X159512000Y-83820000D01*
D22*
%TO.N,BACK_EMFC*%
X129500000Y-85500000D02*
X129500000Y-90000000D01*
X129500000Y-90000000D02*
X131000000Y-91500000D01*
X129587500Y-85412500D02*
X129500000Y-85500000D01*
X129587500Y-84000000D02*
X129587500Y-85412500D01*
%TO.N,NEUTRAL*%
X131412500Y-85412500D02*
X131500000Y-85500000D01*
X131412500Y-84000000D02*
X131412500Y-85412500D01*
X131500000Y-88000000D02*
X131500000Y-85500000D01*
X135000000Y-91500000D02*
X131500000Y-88000000D01*
X137000000Y-91500000D02*
X135000000Y-91500000D01*
D21*
%TO.N,INHA*%
X146253200Y-84429600D02*
X146253200Y-82280400D01*
X139270000Y-83045246D02*
X139270000Y-101366800D01*
X145943400Y-81462600D02*
X140852646Y-81462600D01*
X140852646Y-81462600D02*
X139270000Y-83045246D01*
X146253200Y-82280400D02*
X146268800Y-82296000D01*
X139270000Y-101366800D02*
X140106400Y-102203200D01*
X146268800Y-81788000D02*
X145943400Y-81462600D01*
X146268800Y-82296000D02*
X146268800Y-82245200D01*
X140106400Y-102203200D02*
X140106400Y-107289600D01*
X146268800Y-82245200D02*
X146268800Y-81788000D01*
%TO.N,INLA*%
X138728400Y-107537200D02*
X138728400Y-110157059D01*
X141071600Y-84480400D02*
X141071600Y-81991200D01*
X139004941Y-110433600D02*
X139379059Y-110433600D01*
X141071600Y-108741059D02*
X141071600Y-81991200D01*
X138633200Y-107442000D02*
X138728400Y-107537200D01*
X139379059Y-110433600D02*
X141071600Y-108741059D01*
X138728400Y-110157059D02*
X139004941Y-110433600D01*
D22*
%TO.N,INHB*%
X121158000Y-91186000D02*
X125186000Y-91186000D01*
X131408100Y-105408100D02*
X132000000Y-106000000D01*
X131408100Y-100091900D02*
X131408100Y-105408100D01*
X132000000Y-98000000D02*
X132000000Y-99500000D01*
X132000000Y-99500000D02*
X131408100Y-100091900D01*
X125186000Y-91186000D02*
X132000000Y-98000000D01*
%TO.N,INLB*%
X131000000Y-99500000D02*
X131500000Y-99000000D01*
X121670000Y-95500000D02*
X121412000Y-95758000D01*
X132498000Y-106502000D02*
X131502000Y-106502000D01*
X132502000Y-105002000D02*
X132502000Y-106498000D01*
X132502000Y-106498000D02*
X132498000Y-106502000D01*
X132500000Y-105000000D02*
X132502000Y-105002000D01*
X129000000Y-95500000D02*
X121670000Y-95500000D01*
X131000000Y-106000000D02*
X131000000Y-99500000D01*
X131500000Y-99000000D02*
X131500000Y-98000000D01*
X131502000Y-106502000D02*
X131000000Y-106000000D01*
X131500000Y-98000000D02*
X129000000Y-95500000D01*
%TO.N,INHC*%
X139000000Y-114000000D02*
X135174000Y-114000000D01*
X141500000Y-111500000D02*
X139000000Y-114000000D01*
X135174000Y-114000000D02*
X134620000Y-114554000D01*
%TO.N,GND*%
X133002000Y-107498000D02*
X133000000Y-107500000D01*
X132334000Y-102795302D02*
X132334000Y-103834000D01*
X132334000Y-103834000D02*
X133000000Y-104500000D01*
X133000000Y-104500000D02*
X133002000Y-104502000D01*
X133002000Y-104502000D02*
X133002000Y-107498000D01*
%TO.N,3v3*%
X143995201Y-94712735D02*
X143995201Y-108140800D01*
X142698400Y-94589664D02*
X146350064Y-90938000D01*
D21*
X134340600Y-109728000D02*
X132842000Y-109728000D01*
D22*
X134086600Y-104902000D02*
X134086600Y-106227422D01*
X138737200Y-110737200D02*
X139961200Y-110737200D01*
X134491902Y-100991902D02*
X134500000Y-101000000D01*
D24*
X144186001Y-107950000D02*
X143995201Y-108140800D01*
D22*
X138225600Y-109057256D02*
X138225600Y-110225600D01*
X136523756Y-107355411D02*
X138225600Y-109057256D01*
X147060000Y-91647936D02*
X143995201Y-94712735D01*
X135214589Y-107355411D02*
X136523756Y-107355411D01*
X146765936Y-90938000D02*
X147060000Y-91232064D01*
X134086600Y-101413400D02*
X134500000Y-101000000D01*
X132842000Y-109728000D02*
X135214589Y-107355411D01*
X147060000Y-91232064D02*
X147060000Y-91647936D01*
X138225600Y-110225600D02*
X138737200Y-110737200D01*
X139961200Y-110737200D02*
X142698400Y-108000000D01*
X134086600Y-106227422D02*
X135214589Y-107355411D01*
X146350064Y-90938000D02*
X146765936Y-90938000D01*
X132334000Y-100991902D02*
X134491902Y-100991902D01*
X142698400Y-108000000D02*
X142698400Y-94589664D01*
X134086600Y-104902000D02*
X134086600Y-101413400D01*
D24*
X146278600Y-107950000D02*
X144186001Y-107950000D01*
%TD*%
%TA.AperFunction,Conductor*%
%TO.N,GND*%
G36*
X132527039Y-102564987D02*
G01*
X132572794Y-102617791D01*
X132584000Y-102669302D01*
X132584000Y-103854102D01*
X132935870Y-103854102D01*
X133002909Y-103873787D01*
X133048664Y-103926591D01*
X133058608Y-103995749D01*
X133052052Y-104021434D01*
X133033709Y-104070614D01*
X133033708Y-104070616D01*
X133027301Y-104130216D01*
X133027300Y-104130235D01*
X133027300Y-104162478D01*
X133007615Y-104229517D01*
X132954811Y-104275272D01*
X132885653Y-104285216D01*
X132856190Y-104276239D01*
X132856095Y-104276511D01*
X132679254Y-104214631D01*
X132679249Y-104214630D01*
X132500004Y-104194435D01*
X132499996Y-104194435D01*
X132320750Y-104214630D01*
X132320742Y-104214632D01*
X132148554Y-104274883D01*
X132078775Y-104278444D01*
X132018148Y-104243715D01*
X131985921Y-104181721D01*
X131983600Y-104157841D01*
X131983600Y-103978102D01*
X132003285Y-103911063D01*
X132056089Y-103865308D01*
X132077438Y-103860663D01*
X132083999Y-103854102D01*
X132084000Y-102669302D01*
X132103685Y-102602263D01*
X132156489Y-102556508D01*
X132208000Y-102545302D01*
X132460000Y-102545302D01*
X132527039Y-102564987D01*
G37*
%TD.AperFunction*%
%TA.AperFunction,Conductor*%
G36*
X213812539Y-75220185D02*
G01*
X213858294Y-75272989D01*
X213869500Y-75324500D01*
X213869500Y-125650500D01*
X213849815Y-125717539D01*
X213797011Y-125763294D01*
X213745500Y-125774500D01*
X107463500Y-125774500D01*
X107396461Y-125754815D01*
X107350706Y-125702011D01*
X107339500Y-125650500D01*
X107339500Y-119135180D01*
X185544679Y-119135180D01*
X185546843Y-119168206D01*
X185546941Y-119174334D01*
X185545731Y-119210546D01*
X185545731Y-119210555D01*
X185556888Y-119321460D01*
X185563973Y-119429555D01*
X185563974Y-119429568D01*
X185571058Y-119465182D01*
X185571938Y-119471070D01*
X185575890Y-119510343D01*
X185601004Y-119615725D01*
X185621524Y-119718890D01*
X185621526Y-119718898D01*
X185634238Y-119756350D01*
X185635839Y-119761906D01*
X185645736Y-119803431D01*
X185645738Y-119803436D01*
X185645739Y-119803440D01*
X185683550Y-119901616D01*
X185711795Y-119984821D01*
X185716356Y-119998255D01*
X185735271Y-120036612D01*
X185737523Y-120041752D01*
X185754027Y-120084607D01*
X185754031Y-120084615D01*
X185803084Y-120174125D01*
X185846830Y-120262834D01*
X185846841Y-120262852D01*
X185872388Y-120301086D01*
X185875207Y-120305736D01*
X185898830Y-120348838D01*
X185898837Y-120348850D01*
X185956679Y-120427354D01*
X185958316Y-120429686D01*
X185999374Y-120491134D01*
X186010735Y-120508136D01*
X186043190Y-120545144D01*
X186046490Y-120549247D01*
X186077559Y-120591414D01*
X186143122Y-120659207D01*
X186145168Y-120661428D01*
X186205250Y-120729937D01*
X186240033Y-120760441D01*
X186244678Y-120764515D01*
X186248366Y-120768028D01*
X186287026Y-120808001D01*
X186287028Y-120808003D01*
X186314383Y-120829605D01*
X186358503Y-120864446D01*
X186360958Y-120866490D01*
X186427048Y-120924449D01*
X186427048Y-120924450D01*
X186473344Y-120955384D01*
X186477315Y-120958271D01*
X186523493Y-120994737D01*
X186594442Y-121036760D01*
X186599067Y-121039499D01*
X186601905Y-121041285D01*
X186649487Y-121073079D01*
X186672346Y-121088353D01*
X186689198Y-121096663D01*
X186725195Y-121114415D01*
X186729326Y-121116652D01*
X186763466Y-121136873D01*
X186782725Y-121148281D01*
X186782730Y-121148283D01*
X186782738Y-121148288D01*
X186860673Y-121181335D01*
X186863834Y-121182783D01*
X186936931Y-121218831D01*
X186995767Y-121238803D01*
X187000022Y-121240424D01*
X187060136Y-121265915D01*
X187138648Y-121287421D01*
X187142168Y-121288499D01*
X187216286Y-121313660D01*
X187274975Y-121325333D01*
X187280392Y-121326411D01*
X187284666Y-121327420D01*
X187350737Y-121345519D01*
X187428232Y-121355940D01*
X187432045Y-121356576D01*
X187505628Y-121371213D01*
X187574075Y-121375698D01*
X187578254Y-121376116D01*
X187649355Y-121385679D01*
X187724310Y-121385679D01*
X187728357Y-121385811D01*
X187760380Y-121387910D01*
X187800002Y-121390508D01*
X187800008Y-121390508D01*
X187800012Y-121390508D01*
X187810770Y-121389802D01*
X187872089Y-121385783D01*
X187875230Y-121385679D01*
X187875252Y-121385679D01*
X187948850Y-121380752D01*
X188094388Y-121371213D01*
X188094417Y-121371207D01*
X188095530Y-121371061D01*
X188099486Y-121370668D01*
X188100642Y-121370591D01*
X188243666Y-121341520D01*
X188383730Y-121313660D01*
X188384450Y-121313415D01*
X188392026Y-121311364D01*
X188395911Y-121310575D01*
X188530829Y-121263726D01*
X188663085Y-121218831D01*
X188666695Y-121217050D01*
X188673762Y-121214093D01*
X188680545Y-121211739D01*
X188805228Y-121148733D01*
X188927673Y-121088351D01*
X188933708Y-121084317D01*
X188940172Y-121080543D01*
X188949467Y-121075847D01*
X189062048Y-120998564D01*
X189172965Y-120924452D01*
X189180848Y-120917537D01*
X189186630Y-120913042D01*
X189197877Y-120905323D01*
X189296832Y-120815822D01*
X189394766Y-120729937D01*
X189403807Y-120719625D01*
X189408831Y-120714524D01*
X189421341Y-120703211D01*
X189505451Y-120603724D01*
X189589281Y-120508136D01*
X189598695Y-120494045D01*
X189602903Y-120488458D01*
X189609759Y-120480350D01*
X189615873Y-120473118D01*
X189684284Y-120365954D01*
X189753180Y-120262844D01*
X189762106Y-120244741D01*
X189765449Y-120238810D01*
X189778001Y-120219149D01*
X189830203Y-120106655D01*
X189883660Y-119998256D01*
X189891187Y-119976078D01*
X189893649Y-119969931D01*
X189904831Y-119945837D01*
X189940640Y-119830398D01*
X189978489Y-119718901D01*
X189983685Y-119692776D01*
X189985279Y-119686495D01*
X189985597Y-119685470D01*
X189994101Y-119658058D01*
X190013684Y-119541961D01*
X190036042Y-119429559D01*
X190037994Y-119399755D01*
X190038722Y-119393521D01*
X190044217Y-119360949D01*
X190048046Y-119246410D01*
X190050397Y-119210546D01*
X190055337Y-119135184D01*
X190055337Y-119135180D01*
X190055337Y-119135179D01*
X190053170Y-119102134D01*
X190053073Y-119096028D01*
X190054285Y-119059810D01*
X190043127Y-118948897D01*
X190036042Y-118840799D01*
X190028952Y-118805156D01*
X190028076Y-118799286D01*
X190024126Y-118760019D01*
X190024126Y-118760017D01*
X189999011Y-118654633D01*
X189978489Y-118551457D01*
X189965772Y-118513995D01*
X189964177Y-118508462D01*
X189954277Y-118466918D01*
X189916465Y-118368741D01*
X189883660Y-118272102D01*
X189864740Y-118233735D01*
X189862493Y-118228608D01*
X189845985Y-118185745D01*
X189814293Y-118127916D01*
X189796927Y-118096225D01*
X189753181Y-118007518D01*
X189753180Y-118007515D01*
X189727620Y-117969262D01*
X189724806Y-117964623D01*
X189701183Y-117921514D01*
X189643320Y-117842981D01*
X189641714Y-117840693D01*
X189589281Y-117762222D01*
X189589277Y-117762217D01*
X189556825Y-117725212D01*
X189553524Y-117721109D01*
X189535821Y-117697083D01*
X189522454Y-117678941D01*
X189496054Y-117651643D01*
X189456892Y-117611149D01*
X189454846Y-117608928D01*
X189394768Y-117540423D01*
X189355330Y-117505835D01*
X189351643Y-117502323D01*
X189312989Y-117462355D01*
X189241522Y-117405919D01*
X189239067Y-117403875D01*
X189172968Y-117345908D01*
X189126664Y-117314967D01*
X189122685Y-117312073D01*
X189076525Y-117275622D01*
X189061685Y-117266832D01*
X189000926Y-117230845D01*
X188998097Y-117229063D01*
X188927674Y-117182007D01*
X188874829Y-117155946D01*
X188870676Y-117153697D01*
X188817278Y-117122070D01*
X188817274Y-117122068D01*
X188817270Y-117122066D01*
X188787649Y-117109506D01*
X188739354Y-117089026D01*
X188736165Y-117087565D01*
X188663083Y-117051526D01*
X188604251Y-117031554D01*
X188599977Y-117029925D01*
X188561182Y-117013476D01*
X188539880Y-117004443D01*
X188539876Y-117004442D01*
X188539874Y-117004441D01*
X188461373Y-116982936D01*
X188457823Y-116981849D01*
X188383742Y-116956701D01*
X188383731Y-116956698D01*
X188383730Y-116956698D01*
X188319616Y-116943944D01*
X188315341Y-116942935D01*
X188249289Y-116924841D01*
X188249273Y-116924837D01*
X188171800Y-116914418D01*
X188167970Y-116913780D01*
X188121014Y-116904441D01*
X188094388Y-116899145D01*
X188094385Y-116899144D01*
X188094382Y-116899144D01*
X188025967Y-116894660D01*
X188021758Y-116894240D01*
X187987290Y-116889605D01*
X187950661Y-116884679D01*
X187950658Y-116884679D01*
X187875706Y-116884679D01*
X187871658Y-116884546D01*
X187839635Y-116882447D01*
X187800014Y-116879850D01*
X187800010Y-116879850D01*
X187800008Y-116879850D01*
X187751942Y-116883000D01*
X187727993Y-116884570D01*
X187724773Y-116884678D01*
X187651165Y-116889605D01*
X187505628Y-116899144D01*
X187504428Y-116899302D01*
X187500514Y-116899690D01*
X187499383Y-116899766D01*
X187499380Y-116899766D01*
X187499374Y-116899767D01*
X187356348Y-116928837D01*
X187356349Y-116928837D01*
X187216285Y-116956697D01*
X187216278Y-116956699D01*
X187215516Y-116956958D01*
X187207951Y-116959001D01*
X187204106Y-116959782D01*
X187140556Y-116981849D01*
X187069186Y-117006631D01*
X187023450Y-117022156D01*
X186936935Y-117051525D01*
X186936930Y-117051527D01*
X186933328Y-117053303D01*
X186926249Y-117056265D01*
X186919470Y-117058619D01*
X186794765Y-117121635D01*
X186672351Y-117182002D01*
X186672336Y-117182011D01*
X186666309Y-117186037D01*
X186659836Y-117189816D01*
X186650552Y-117194508D01*
X186537951Y-117271804D01*
X186473354Y-117314967D01*
X186427051Y-117345906D01*
X186419164Y-117352821D01*
X186413381Y-117357317D01*
X186402140Y-117365033D01*
X186303183Y-117454535D01*
X186205249Y-117540421D01*
X186196204Y-117550734D01*
X186191183Y-117555832D01*
X186178676Y-117567145D01*
X186094564Y-117666633D01*
X186010734Y-117762221D01*
X186001316Y-117776315D01*
X185997114Y-117781895D01*
X185984149Y-117797231D01*
X185984148Y-117797232D01*
X185915723Y-117904416D01*
X185846838Y-118007510D01*
X185837913Y-118025606D01*
X185834568Y-118031541D01*
X185822014Y-118051210D01*
X185769809Y-118163709D01*
X185716358Y-118272097D01*
X185716353Y-118272109D01*
X185708830Y-118294268D01*
X185706361Y-118300436D01*
X185695184Y-118324523D01*
X185695179Y-118324537D01*
X185659375Y-118439959D01*
X185621526Y-118551458D01*
X185621524Y-118551467D01*
X185616328Y-118577589D01*
X185614736Y-118583862D01*
X185605915Y-118612298D01*
X185590150Y-118705757D01*
X185586331Y-118728396D01*
X185567078Y-118825196D01*
X185563973Y-118840806D01*
X185563972Y-118840807D01*
X185562020Y-118870595D01*
X185561289Y-118876852D01*
X185556509Y-118905198D01*
X185555799Y-118909409D01*
X185551968Y-119023946D01*
X185551969Y-119023947D01*
X185544679Y-119135180D01*
X107339500Y-119135180D01*
X107339500Y-116840001D01*
X130328390Y-116840001D01*
X130348804Y-117125433D01*
X130409628Y-117405037D01*
X130409630Y-117405043D01*
X130409631Y-117405046D01*
X130470091Y-117567145D01*
X130509635Y-117673166D01*
X130646770Y-117924309D01*
X130646775Y-117924317D01*
X130818254Y-118153387D01*
X130818270Y-118153405D01*
X131020594Y-118355729D01*
X131020612Y-118355745D01*
X131249682Y-118527224D01*
X131249690Y-118527229D01*
X131500833Y-118664364D01*
X131500832Y-118664364D01*
X131500836Y-118664365D01*
X131500839Y-118664367D01*
X131768954Y-118764369D01*
X131768960Y-118764370D01*
X131768962Y-118764371D01*
X132048566Y-118825195D01*
X132048568Y-118825195D01*
X132048572Y-118825196D01*
X132302220Y-118843337D01*
X132333999Y-118845610D01*
X132334000Y-118845610D01*
X132334001Y-118845610D01*
X132362595Y-118843564D01*
X132619428Y-118825196D01*
X132839760Y-118777266D01*
X132899037Y-118764371D01*
X132899037Y-118764370D01*
X132899046Y-118764369D01*
X133167161Y-118664367D01*
X133418315Y-118527226D01*
X133647395Y-118355739D01*
X133849739Y-118153395D01*
X134021226Y-117924315D01*
X134158367Y-117673161D01*
X134258369Y-117405046D01*
X134279363Y-117308539D01*
X134319195Y-117125433D01*
X134319195Y-117125432D01*
X134319196Y-117125428D01*
X134339610Y-116840001D01*
X135154390Y-116840001D01*
X135174804Y-117125433D01*
X135235628Y-117405037D01*
X135235630Y-117405043D01*
X135235631Y-117405046D01*
X135296091Y-117567145D01*
X135335635Y-117673166D01*
X135472770Y-117924309D01*
X135472775Y-117924317D01*
X135644254Y-118153387D01*
X135644270Y-118153405D01*
X135846594Y-118355729D01*
X135846612Y-118355745D01*
X136075682Y-118527224D01*
X136075690Y-118527229D01*
X136326833Y-118664364D01*
X136326832Y-118664364D01*
X136326836Y-118664365D01*
X136326839Y-118664367D01*
X136594954Y-118764369D01*
X136594960Y-118764370D01*
X136594962Y-118764371D01*
X136874566Y-118825195D01*
X136874568Y-118825195D01*
X136874572Y-118825196D01*
X137128220Y-118843337D01*
X137159999Y-118845610D01*
X137160000Y-118845610D01*
X137160001Y-118845610D01*
X137188595Y-118843564D01*
X137445428Y-118825196D01*
X137665760Y-118777266D01*
X137725037Y-118764371D01*
X137725037Y-118764370D01*
X137725046Y-118764369D01*
X137993161Y-118664367D01*
X138244315Y-118527226D01*
X138473395Y-118355739D01*
X138675739Y-118153395D01*
X138847226Y-117924315D01*
X138984367Y-117673161D01*
X139084369Y-117405046D01*
X139105363Y-117308539D01*
X139145195Y-117125433D01*
X139145195Y-117125432D01*
X139145196Y-117125428D01*
X139165610Y-116840000D01*
X139145196Y-116554572D01*
X139140768Y-116534219D01*
X139084371Y-116274962D01*
X139084370Y-116274960D01*
X139084369Y-116274954D01*
X138984367Y-116006839D01*
X138971841Y-115983900D01*
X138847229Y-115755690D01*
X138847224Y-115755682D01*
X138675745Y-115526612D01*
X138675729Y-115526594D01*
X138473405Y-115324270D01*
X138473387Y-115324254D01*
X138244317Y-115152775D01*
X138244309Y-115152770D01*
X137993166Y-115015635D01*
X137993167Y-115015635D01*
X137885915Y-114975632D01*
X137725046Y-114915631D01*
X137725043Y-114915630D01*
X137725037Y-114915628D01*
X137445433Y-114854804D01*
X137160001Y-114834390D01*
X137159999Y-114834390D01*
X136874566Y-114854804D01*
X136594962Y-114915628D01*
X136326833Y-115015635D01*
X136075690Y-115152770D01*
X136075682Y-115152775D01*
X135846612Y-115324254D01*
X135846594Y-115324270D01*
X135644270Y-115526594D01*
X135644254Y-115526612D01*
X135472775Y-115755682D01*
X135472770Y-115755690D01*
X135335635Y-116006833D01*
X135235628Y-116274962D01*
X135174804Y-116554566D01*
X135154390Y-116839998D01*
X135154390Y-116840001D01*
X134339610Y-116840001D01*
X134339610Y-116840000D01*
X134319196Y-116554572D01*
X134314768Y-116534219D01*
X134258371Y-116274962D01*
X134258370Y-116274960D01*
X134258369Y-116274954D01*
X134158367Y-116006839D01*
X134145841Y-115983900D01*
X134021229Y-115755690D01*
X134021224Y-115755682D01*
X133849745Y-115526612D01*
X133849729Y-115526594D01*
X133647405Y-115324270D01*
X133647387Y-115324254D01*
X133418317Y-115152775D01*
X133418309Y-115152770D01*
X133167166Y-115015635D01*
X133167167Y-115015635D01*
X133059915Y-114975632D01*
X132899046Y-114915631D01*
X132899043Y-114915630D01*
X132899037Y-114915628D01*
X132619433Y-114854804D01*
X132334001Y-114834390D01*
X132333999Y-114834390D01*
X132048566Y-114854804D01*
X131768962Y-114915628D01*
X131500833Y-115015635D01*
X131249690Y-115152770D01*
X131249682Y-115152775D01*
X131020612Y-115324254D01*
X131020594Y-115324270D01*
X130818270Y-115526594D01*
X130818254Y-115526612D01*
X130646775Y-115755682D01*
X130646770Y-115755690D01*
X130509635Y-116006833D01*
X130409628Y-116274962D01*
X130348804Y-116554566D01*
X130328390Y-116839998D01*
X130328390Y-116840001D01*
X107339500Y-116840001D01*
X107339500Y-114477370D01*
X116718000Y-114477370D01*
X116718001Y-114477373D01*
X116724408Y-114536983D01*
X116774702Y-114671828D01*
X116774706Y-114671835D01*
X116860952Y-114787044D01*
X116860955Y-114787047D01*
X116976164Y-114873293D01*
X116976171Y-114873297D01*
X117111017Y-114923591D01*
X117111016Y-114923591D01*
X117117944Y-114924335D01*
X117170627Y-114930000D01*
X118541372Y-114929999D01*
X118600983Y-114923591D01*
X118735831Y-114873296D01*
X118851046Y-114787046D01*
X118937296Y-114671831D01*
X118981243Y-114554003D01*
X133814435Y-114554003D01*
X133834630Y-114733249D01*
X133834631Y-114733254D01*
X133894211Y-114903523D01*
X133910848Y-114930000D01*
X133990184Y-115056262D01*
X134117738Y-115183816D01*
X134270478Y-115279789D01*
X134409480Y-115328428D01*
X134440745Y-115339368D01*
X134440750Y-115339369D01*
X134619996Y-115359565D01*
X134620000Y-115359565D01*
X134620004Y-115359565D01*
X134799249Y-115339369D01*
X134799252Y-115339368D01*
X134799255Y-115339368D01*
X134969522Y-115279789D01*
X135122262Y-115183816D01*
X135249816Y-115056262D01*
X135345789Y-114903522D01*
X135405368Y-114733255D01*
X135410736Y-114685617D01*
X135437802Y-114621203D01*
X135495397Y-114581648D01*
X135533956Y-114575500D01*
X138958219Y-114575500D01*
X138966317Y-114576030D01*
X138986734Y-114578718D01*
X138999999Y-114580465D01*
X139000000Y-114580465D01*
X139035785Y-114575754D01*
X139035809Y-114575751D01*
X139037715Y-114575500D01*
X139037720Y-114575500D01*
X139150236Y-114560687D01*
X139290233Y-114502698D01*
X139323237Y-114477373D01*
X139323249Y-114477364D01*
X139388360Y-114427403D01*
X139388364Y-114427398D01*
X139410451Y-114410451D01*
X139431138Y-114383489D01*
X139436480Y-114377398D01*
X141478690Y-112335188D01*
X141540011Y-112301705D01*
X141552483Y-112299651D01*
X141577210Y-112296865D01*
X141679250Y-112285369D01*
X141679253Y-112285368D01*
X141679255Y-112285368D01*
X141849522Y-112225789D01*
X142002262Y-112129816D01*
X142129816Y-112002262D01*
X142225789Y-111849522D01*
X142285368Y-111679255D01*
X142286873Y-111665900D01*
X142305565Y-111500003D01*
X142305565Y-111499996D01*
X142285369Y-111320750D01*
X142285368Y-111320745D01*
X142277839Y-111299228D01*
X142225789Y-111150478D01*
X142224011Y-111147649D01*
X142161173Y-111047643D01*
X142129816Y-110997738D01*
X142002262Y-110870184D01*
X141972223Y-110851309D01*
X141849523Y-110774211D01*
X141679254Y-110714631D01*
X141679249Y-110714630D01*
X141500004Y-110694435D01*
X141499996Y-110694435D01*
X141320750Y-110714630D01*
X141320745Y-110714631D01*
X141150476Y-110774211D01*
X140997737Y-110870184D01*
X140870184Y-110997737D01*
X140774210Y-111150478D01*
X140714630Y-111320750D01*
X140700347Y-111447513D01*
X140673280Y-111511927D01*
X140664808Y-111521310D01*
X138797939Y-113388181D01*
X138736616Y-113421666D01*
X138710258Y-113424500D01*
X135215781Y-113424500D01*
X135207682Y-113423969D01*
X135187265Y-113421281D01*
X135174001Y-113419535D01*
X135174000Y-113419535D01*
X135169144Y-113420174D01*
X135140419Y-113423955D01*
X135140406Y-113423957D01*
X135136281Y-113424500D01*
X135136280Y-113424500D01*
X135023764Y-113439313D01*
X135023763Y-113439313D01*
X134883766Y-113497301D01*
X134794845Y-113565533D01*
X134794824Y-113565549D01*
X134763548Y-113589550D01*
X134742861Y-113616507D01*
X134737510Y-113622608D01*
X134641309Y-113718809D01*
X134579986Y-113752294D01*
X134567512Y-113754348D01*
X134440750Y-113768630D01*
X134270478Y-113828210D01*
X134117737Y-113924184D01*
X133990184Y-114051737D01*
X133894211Y-114204476D01*
X133834631Y-114374745D01*
X133834630Y-114374750D01*
X133814435Y-114553996D01*
X133814435Y-114554003D01*
X118981243Y-114554003D01*
X118987591Y-114536983D01*
X118994000Y-114477373D01*
X118993999Y-113106628D01*
X118987591Y-113047017D01*
X118972528Y-113006632D01*
X118937297Y-112912171D01*
X118937293Y-112912164D01*
X118851047Y-112796955D01*
X118851044Y-112796952D01*
X118735835Y-112710706D01*
X118735828Y-112710702D01*
X118600982Y-112660408D01*
X118600983Y-112660408D01*
X118541383Y-112654001D01*
X118541381Y-112654000D01*
X118541373Y-112654000D01*
X118541364Y-112654000D01*
X117170629Y-112654000D01*
X117170623Y-112654001D01*
X117111016Y-112660408D01*
X116976171Y-112710702D01*
X116976164Y-112710706D01*
X116860955Y-112796952D01*
X116860952Y-112796955D01*
X116774706Y-112912164D01*
X116774702Y-112912171D01*
X116724408Y-113047017D01*
X116718202Y-113104745D01*
X116718001Y-113106623D01*
X116718000Y-113106635D01*
X116718000Y-114477370D01*
X107339500Y-114477370D01*
X107339500Y-111252001D01*
X123724390Y-111252001D01*
X123744804Y-111537433D01*
X123805628Y-111817037D01*
X123805630Y-111817043D01*
X123805631Y-111817046D01*
X123862219Y-111968764D01*
X123905635Y-112085166D01*
X124042770Y-112336309D01*
X124042775Y-112336317D01*
X124214254Y-112565387D01*
X124214270Y-112565405D01*
X124416594Y-112767729D01*
X124416612Y-112767745D01*
X124645682Y-112939224D01*
X124645690Y-112939229D01*
X124896833Y-113076364D01*
X124896832Y-113076364D01*
X124896836Y-113076365D01*
X124896839Y-113076367D01*
X125164954Y-113176369D01*
X125164960Y-113176370D01*
X125164962Y-113176371D01*
X125444566Y-113237195D01*
X125444568Y-113237195D01*
X125444572Y-113237196D01*
X125698220Y-113255337D01*
X125729999Y-113257610D01*
X125730000Y-113257610D01*
X125730001Y-113257610D01*
X125758595Y-113255564D01*
X126015428Y-113237196D01*
X126239934Y-113188358D01*
X126295037Y-113176371D01*
X126295037Y-113176370D01*
X126295046Y-113176369D01*
X126563161Y-113076367D01*
X126814315Y-112939226D01*
X127043395Y-112767739D01*
X127245739Y-112565395D01*
X127417226Y-112336315D01*
X127554367Y-112085161D01*
X127654369Y-111817046D01*
X127654371Y-111817037D01*
X127715195Y-111537433D01*
X127715195Y-111537432D01*
X127715196Y-111537428D01*
X127735610Y-111252000D01*
X127734744Y-111239898D01*
X127723695Y-111085411D01*
X127715196Y-110966572D01*
X127712004Y-110951900D01*
X127654371Y-110686962D01*
X127654370Y-110686960D01*
X127654369Y-110686954D01*
X127554367Y-110418839D01*
X127536749Y-110386575D01*
X127417229Y-110167690D01*
X127417224Y-110167682D01*
X127245745Y-109938612D01*
X127245729Y-109938594D01*
X127043405Y-109736270D01*
X127043387Y-109736254D01*
X126814317Y-109564775D01*
X126814309Y-109564770D01*
X126563166Y-109427635D01*
X126563167Y-109427635D01*
X126427897Y-109377182D01*
X126295046Y-109327631D01*
X126295043Y-109327630D01*
X126295037Y-109327628D01*
X126015433Y-109266804D01*
X125730001Y-109246390D01*
X125729999Y-109246390D01*
X125444566Y-109266804D01*
X125164962Y-109327628D01*
X124896833Y-109427635D01*
X124645690Y-109564770D01*
X124645682Y-109564775D01*
X124416612Y-109736254D01*
X124416594Y-109736270D01*
X124214270Y-109938594D01*
X124214254Y-109938612D01*
X124042775Y-110167682D01*
X124042770Y-110167690D01*
X123905635Y-110418833D01*
X123805628Y-110686962D01*
X123744804Y-110966566D01*
X123724390Y-111251998D01*
X123724390Y-111252001D01*
X107339500Y-111252001D01*
X107339500Y-101092001D01*
X120422390Y-101092001D01*
X120442804Y-101377433D01*
X120503628Y-101657037D01*
X120503630Y-101657043D01*
X120503631Y-101657046D01*
X120595426Y-101903158D01*
X120603635Y-101925166D01*
X120740770Y-102176309D01*
X120740775Y-102176317D01*
X120912254Y-102405387D01*
X120912270Y-102405405D01*
X121114594Y-102607729D01*
X121114612Y-102607745D01*
X121343682Y-102779224D01*
X121343690Y-102779229D01*
X121594833Y-102916364D01*
X121594832Y-102916364D01*
X121594836Y-102916365D01*
X121594839Y-102916367D01*
X121862954Y-103016369D01*
X121862960Y-103016370D01*
X121862962Y-103016371D01*
X122142566Y-103077195D01*
X122142568Y-103077195D01*
X122142572Y-103077196D01*
X122396220Y-103095337D01*
X122427999Y-103097610D01*
X122428000Y-103097610D01*
X122428001Y-103097610D01*
X122456595Y-103095564D01*
X122713428Y-103077196D01*
X122993046Y-103016369D01*
X123261161Y-102916367D01*
X123512315Y-102779226D01*
X123741395Y-102607739D01*
X123943739Y-102405395D01*
X124115226Y-102176315D01*
X124252367Y-101925161D01*
X124352369Y-101657046D01*
X124358293Y-101629815D01*
X124413195Y-101377433D01*
X124413195Y-101377432D01*
X124413196Y-101377428D01*
X124433610Y-101092000D01*
X124413196Y-100806572D01*
X124407579Y-100780752D01*
X124352371Y-100526962D01*
X124352370Y-100526960D01*
X124352369Y-100526954D01*
X124252367Y-100258839D01*
X124237759Y-100232087D01*
X124115229Y-100007690D01*
X124115224Y-100007682D01*
X123943745Y-99778612D01*
X123943729Y-99778594D01*
X123741405Y-99576270D01*
X123741387Y-99576254D01*
X123512317Y-99404775D01*
X123512309Y-99404770D01*
X123261166Y-99267635D01*
X123261167Y-99267635D01*
X123129366Y-99218476D01*
X122993046Y-99167631D01*
X122993043Y-99167630D01*
X122993037Y-99167628D01*
X122713433Y-99106804D01*
X122428001Y-99086390D01*
X122427999Y-99086390D01*
X122142566Y-99106804D01*
X121862962Y-99167628D01*
X121594833Y-99267635D01*
X121343690Y-99404770D01*
X121343682Y-99404775D01*
X121114612Y-99576254D01*
X121114594Y-99576270D01*
X120912270Y-99778594D01*
X120912254Y-99778612D01*
X120740775Y-100007682D01*
X120740770Y-100007690D01*
X120603635Y-100258833D01*
X120503628Y-100526962D01*
X120442804Y-100806566D01*
X120422390Y-101091998D01*
X120422390Y-101092001D01*
X107339500Y-101092001D01*
X107339500Y-82896001D01*
X107699500Y-82896001D01*
X107699501Y-82896018D01*
X107710000Y-82998796D01*
X107710001Y-82998799D01*
X107765185Y-83165331D01*
X107765187Y-83165336D01*
X107766221Y-83167012D01*
X107857288Y-83314656D01*
X107981344Y-83438712D01*
X108130666Y-83530814D01*
X108297203Y-83585999D01*
X108399991Y-83596500D01*
X109600008Y-83596499D01*
X109600596Y-83596439D01*
X109617895Y-83594671D01*
X109702797Y-83585999D01*
X109869334Y-83530814D01*
X110018656Y-83438712D01*
X110142712Y-83314656D01*
X110206645Y-83211002D01*
X110258591Y-83164279D01*
X110312183Y-83152100D01*
X115897453Y-83152100D01*
X115897460Y-83152100D01*
X116015180Y-83136602D01*
X116019194Y-83134939D01*
X116066648Y-83125500D01*
X119052640Y-83125500D01*
X119119679Y-83145185D01*
X119140321Y-83161819D01*
X138673611Y-102695109D01*
X138707096Y-102756432D01*
X138702971Y-102823745D01*
X138660633Y-102944737D01*
X138660630Y-102944750D01*
X138640435Y-103123996D01*
X138640435Y-103124003D01*
X138660630Y-103303249D01*
X138660631Y-103303254D01*
X138720211Y-103473523D01*
X138789611Y-103583972D01*
X138816184Y-103626262D01*
X138943738Y-103753816D01*
X138947389Y-103756110D01*
X139050520Y-103820912D01*
X139096478Y-103849789D01*
X139221814Y-103893646D01*
X139266745Y-103909368D01*
X139266750Y-103909369D01*
X139394183Y-103923727D01*
X139458597Y-103950793D01*
X139498152Y-104008388D01*
X139504300Y-104046947D01*
X139504300Y-106709194D01*
X139484615Y-106776233D01*
X139477247Y-106786507D01*
X139476582Y-106787340D01*
X139418089Y-106880429D01*
X139365754Y-106926720D01*
X139296700Y-106937367D01*
X139232852Y-106908991D01*
X139225415Y-106902137D01*
X139135462Y-106812184D01*
X138982723Y-106716211D01*
X138812454Y-106656631D01*
X138812449Y-106656630D01*
X138633204Y-106636435D01*
X138633196Y-106636435D01*
X138453950Y-106656630D01*
X138453945Y-106656631D01*
X138283676Y-106716211D01*
X138130937Y-106812184D01*
X138003384Y-106939737D01*
X137907411Y-107092476D01*
X137847831Y-107262745D01*
X137847830Y-107262750D01*
X137827635Y-107441996D01*
X137827635Y-107442004D01*
X137839182Y-107544493D01*
X137827127Y-107613315D01*
X137779778Y-107664694D01*
X137712167Y-107682318D01*
X137645762Y-107660591D01*
X137628281Y-107646057D01*
X137526717Y-107544493D01*
X136960245Y-106978020D01*
X136954892Y-106971917D01*
X136952242Y-106968464D01*
X136934207Y-106944960D01*
X136934205Y-106944958D01*
X136934204Y-106944957D01*
X136905719Y-106923100D01*
X136905708Y-106923091D01*
X136813988Y-106852712D01*
X136716144Y-106812184D01*
X136673992Y-106794724D01*
X136583033Y-106782749D01*
X136557854Y-106779434D01*
X136557839Y-106779432D01*
X136531711Y-106775993D01*
X136523756Y-106774946D01*
X136523755Y-106774946D01*
X136523754Y-106774946D01*
X136504721Y-106777451D01*
X136490073Y-106779380D01*
X136481975Y-106779911D01*
X135504331Y-106779911D01*
X135437292Y-106760226D01*
X135416650Y-106743592D01*
X134935000Y-106261942D01*
X134901515Y-106200619D01*
X134906499Y-106130927D01*
X134948371Y-106074994D01*
X135013835Y-106050577D01*
X135082106Y-106065428D01*
X135089106Y-106069250D01*
X135223823Y-106119497D01*
X135223827Y-106119498D01*
X135283355Y-106125899D01*
X135283372Y-106125900D01*
X135640000Y-106125900D01*
X135640000Y-105152000D01*
X136140000Y-105152000D01*
X136140000Y-106125900D01*
X136496628Y-106125900D01*
X136496644Y-106125899D01*
X136556172Y-106119498D01*
X136556179Y-106119496D01*
X136690886Y-106069254D01*
X136690893Y-106069250D01*
X136805987Y-105983090D01*
X136805990Y-105983087D01*
X136892150Y-105867993D01*
X136892154Y-105867986D01*
X136942396Y-105733279D01*
X136942398Y-105733272D01*
X136948799Y-105673744D01*
X136948800Y-105673727D01*
X136948800Y-105152000D01*
X136140000Y-105152000D01*
X135640000Y-105152000D01*
X135640000Y-103678100D01*
X136140000Y-103678100D01*
X136140000Y-104652000D01*
X136948800Y-104652000D01*
X136948800Y-104130272D01*
X136948799Y-104130255D01*
X136942398Y-104070727D01*
X136942396Y-104070720D01*
X136892154Y-103936013D01*
X136892150Y-103936006D01*
X136805990Y-103820912D01*
X136805987Y-103820909D01*
X136690893Y-103734749D01*
X136690886Y-103734745D01*
X136556179Y-103684503D01*
X136556172Y-103684501D01*
X136496644Y-103678100D01*
X136140000Y-103678100D01*
X135640000Y-103678100D01*
X135283355Y-103678100D01*
X135223827Y-103684501D01*
X135223820Y-103684503D01*
X135089113Y-103734745D01*
X135089106Y-103734749D01*
X135063026Y-103754273D01*
X134997562Y-103778690D01*
X134929289Y-103763838D01*
X134914415Y-103754280D01*
X134887731Y-103734304D01*
X134887728Y-103734303D01*
X134887727Y-103734302D01*
X134887728Y-103734302D01*
X134745615Y-103681298D01*
X134746536Y-103678828D01*
X134696868Y-103650545D01*
X134664483Y-103588634D01*
X134662100Y-103564443D01*
X134662100Y-101879353D01*
X134681785Y-101812314D01*
X134734589Y-101766559D01*
X134745131Y-101762316D01*
X134849522Y-101725789D01*
X135002262Y-101629816D01*
X135129816Y-101502262D01*
X135225789Y-101349522D01*
X135285368Y-101179255D01*
X135285749Y-101175873D01*
X135305565Y-101000003D01*
X135305565Y-100999996D01*
X135285369Y-100820750D01*
X135285368Y-100820745D01*
X135256701Y-100738819D01*
X135225789Y-100650478D01*
X135212459Y-100629264D01*
X135149411Y-100528924D01*
X135129816Y-100497738D01*
X135002262Y-100370184D01*
X134951010Y-100337980D01*
X134849523Y-100274211D01*
X134679254Y-100214631D01*
X134679249Y-100214630D01*
X134500004Y-100194435D01*
X134499996Y-100194435D01*
X134320750Y-100214630D01*
X134320745Y-100214631D01*
X134150476Y-100274211D01*
X133997737Y-100370184D01*
X133987839Y-100380083D01*
X133926516Y-100413568D01*
X133900158Y-100416402D01*
X133671557Y-100416402D01*
X133604518Y-100396717D01*
X133558763Y-100343913D01*
X133554951Y-100332793D01*
X133554702Y-100332887D01*
X133501697Y-100190773D01*
X133501693Y-100190766D01*
X133415447Y-100075557D01*
X133415444Y-100075554D01*
X133300235Y-99989308D01*
X133300228Y-99989304D01*
X133165382Y-99939010D01*
X133165383Y-99939010D01*
X133105783Y-99932603D01*
X133105781Y-99932602D01*
X133105773Y-99932602D01*
X133105765Y-99932602D01*
X132629305Y-99932602D01*
X132562266Y-99912917D01*
X132516511Y-99860113D01*
X132506567Y-99790955D01*
X132514744Y-99761148D01*
X132560687Y-99650236D01*
X132575500Y-99537720D01*
X132575500Y-99537714D01*
X132580465Y-99500000D01*
X132576030Y-99466316D01*
X132575500Y-99458219D01*
X132575500Y-98041780D01*
X132576031Y-98033678D01*
X132576451Y-98030492D01*
X132580465Y-98000000D01*
X132575766Y-97964313D01*
X132575765Y-97964294D01*
X132575267Y-97960511D01*
X132560687Y-97849764D01*
X132502698Y-97709767D01*
X132436886Y-97623999D01*
X132436884Y-97623997D01*
X132431142Y-97616514D01*
X132431142Y-97616513D01*
X132424253Y-97607536D01*
X132410451Y-97589549D01*
X132383490Y-97568861D01*
X132377400Y-97563520D01*
X125622489Y-90808609D01*
X125617136Y-90802506D01*
X125606120Y-90788150D01*
X125596451Y-90775549D01*
X125596449Y-90775547D01*
X125596448Y-90775546D01*
X125567963Y-90753689D01*
X125567952Y-90753680D01*
X125476234Y-90683302D01*
X125449143Y-90672081D01*
X125441688Y-90668993D01*
X125336236Y-90625313D01*
X125282906Y-90618291D01*
X125220098Y-90610023D01*
X125220083Y-90610021D01*
X125193196Y-90606482D01*
X125186000Y-90605535D01*
X125185999Y-90605535D01*
X125185998Y-90605535D01*
X125166965Y-90608040D01*
X125152317Y-90609969D01*
X125144219Y-90610500D01*
X121765940Y-90610500D01*
X121698901Y-90590815D01*
X121678259Y-90574181D01*
X121660262Y-90556184D01*
X121507523Y-90460211D01*
X121337254Y-90400631D01*
X121337249Y-90400630D01*
X121158004Y-90380435D01*
X121157996Y-90380435D01*
X120978750Y-90400630D01*
X120978742Y-90400632D01*
X120859411Y-90442388D01*
X120789632Y-90445949D01*
X120729005Y-90411220D01*
X120702275Y-90368680D01*
X120699792Y-90362023D01*
X120696367Y-90352839D01*
X120662181Y-90290233D01*
X120559229Y-90101690D01*
X120559224Y-90101682D01*
X120387745Y-89872612D01*
X120387729Y-89872594D01*
X120185405Y-89670270D01*
X120185387Y-89670254D01*
X119956317Y-89498775D01*
X119956309Y-89498770D01*
X119705166Y-89361635D01*
X119705167Y-89361635D01*
X119523967Y-89294051D01*
X119437046Y-89261631D01*
X119437043Y-89261630D01*
X119437037Y-89261628D01*
X119157433Y-89200804D01*
X118872001Y-89180390D01*
X118871999Y-89180390D01*
X118586566Y-89200804D01*
X118306962Y-89261628D01*
X118038833Y-89361635D01*
X117787690Y-89498770D01*
X117787682Y-89498775D01*
X117558612Y-89670254D01*
X117558594Y-89670270D01*
X117356270Y-89872594D01*
X117356254Y-89872612D01*
X117184775Y-90101682D01*
X117184770Y-90101690D01*
X117047635Y-90352833D01*
X116947628Y-90620962D01*
X116886804Y-90900566D01*
X116866390Y-91185998D01*
X116866390Y-91186001D01*
X116886804Y-91471433D01*
X116947628Y-91751037D01*
X116947630Y-91751043D01*
X116947631Y-91751046D01*
X117037340Y-91991565D01*
X117047635Y-92019166D01*
X117184770Y-92270309D01*
X117184775Y-92270317D01*
X117356254Y-92499387D01*
X117356270Y-92499405D01*
X117558594Y-92701729D01*
X117558612Y-92701745D01*
X117787682Y-92873224D01*
X117787690Y-92873229D01*
X118038833Y-93010364D01*
X118038832Y-93010364D01*
X118038836Y-93010365D01*
X118038839Y-93010367D01*
X118306954Y-93110369D01*
X118306960Y-93110370D01*
X118306962Y-93110371D01*
X118586566Y-93171195D01*
X118586568Y-93171195D01*
X118586572Y-93171196D01*
X118840220Y-93189337D01*
X118871999Y-93191610D01*
X118872000Y-93191610D01*
X118872001Y-93191610D01*
X118900595Y-93189564D01*
X119157428Y-93171196D01*
X119437046Y-93110369D01*
X119705161Y-93010367D01*
X119956315Y-92873226D01*
X120185395Y-92701739D01*
X120387739Y-92499395D01*
X120559226Y-92270315D01*
X120665459Y-92075765D01*
X120696365Y-92019165D01*
X120696365Y-92019163D01*
X120696367Y-92019161D01*
X120702274Y-92003321D01*
X120744142Y-91947389D01*
X120809605Y-91922969D01*
X120859411Y-91929612D01*
X120978737Y-91971366D01*
X120978743Y-91971367D01*
X120978745Y-91971368D01*
X120978746Y-91971368D01*
X120978750Y-91971369D01*
X121157996Y-91991565D01*
X121158000Y-91991565D01*
X121158004Y-91991565D01*
X121337249Y-91971369D01*
X121337252Y-91971368D01*
X121337255Y-91971368D01*
X121507522Y-91911789D01*
X121660262Y-91815816D01*
X121678259Y-91797819D01*
X121739582Y-91764334D01*
X121765940Y-91761500D01*
X124896258Y-91761500D01*
X124963297Y-91781185D01*
X124983939Y-91797819D01*
X127898939Y-94712819D01*
X127932424Y-94774142D01*
X127927440Y-94843834D01*
X127885568Y-94899767D01*
X127820104Y-94924184D01*
X127811258Y-94924500D01*
X121711781Y-94924500D01*
X121703682Y-94923969D01*
X121683265Y-94921281D01*
X121670001Y-94919535D01*
X121670000Y-94919535D01*
X121665144Y-94920174D01*
X121636419Y-94923955D01*
X121636406Y-94923957D01*
X121632281Y-94924500D01*
X121632280Y-94924500D01*
X121604561Y-94928149D01*
X121519760Y-94939313D01*
X121501359Y-94946935D01*
X121440030Y-94955593D01*
X121412000Y-94952435D01*
X121411998Y-94952435D01*
X121411997Y-94952435D01*
X121411996Y-94952435D01*
X121232750Y-94972630D01*
X121232745Y-94972631D01*
X121062476Y-95032211D01*
X120927259Y-95117174D01*
X120860022Y-95136174D01*
X120793187Y-95115806D01*
X120747973Y-95062538D01*
X120745116Y-95055541D01*
X120696367Y-94924839D01*
X120696009Y-94924184D01*
X120559229Y-94673690D01*
X120559224Y-94673682D01*
X120387745Y-94444612D01*
X120387729Y-94444594D01*
X120185405Y-94242270D01*
X120185387Y-94242254D01*
X119956317Y-94070775D01*
X119956309Y-94070770D01*
X119705166Y-93933635D01*
X119705167Y-93933635D01*
X119597914Y-93893632D01*
X119437046Y-93833631D01*
X119437043Y-93833630D01*
X119437037Y-93833628D01*
X119157433Y-93772804D01*
X118872001Y-93752390D01*
X118871999Y-93752390D01*
X118586566Y-93772804D01*
X118306962Y-93833628D01*
X118038833Y-93933635D01*
X117787690Y-94070770D01*
X117787682Y-94070775D01*
X117558612Y-94242254D01*
X117558594Y-94242270D01*
X117356270Y-94444594D01*
X117356254Y-94444612D01*
X117184775Y-94673682D01*
X117184770Y-94673690D01*
X117047635Y-94924833D01*
X116947628Y-95192962D01*
X116886804Y-95472566D01*
X116866390Y-95757998D01*
X116866390Y-95758001D01*
X116886804Y-96043433D01*
X116947628Y-96323037D01*
X116947630Y-96323043D01*
X116947631Y-96323046D01*
X117033353Y-96552874D01*
X117047635Y-96591166D01*
X117184770Y-96842309D01*
X117184775Y-96842317D01*
X117356254Y-97071387D01*
X117356270Y-97071405D01*
X117558594Y-97273729D01*
X117558612Y-97273745D01*
X117787682Y-97445224D01*
X117787690Y-97445229D01*
X118038833Y-97582364D01*
X118038832Y-97582364D01*
X118038836Y-97582365D01*
X118038839Y-97582367D01*
X118306954Y-97682369D01*
X118306960Y-97682370D01*
X118306962Y-97682371D01*
X118586566Y-97743195D01*
X118586568Y-97743195D01*
X118586572Y-97743196D01*
X118840220Y-97761337D01*
X118871999Y-97763610D01*
X118872000Y-97763610D01*
X118872001Y-97763610D01*
X118900595Y-97761564D01*
X119157428Y-97743196D01*
X119437046Y-97682369D01*
X119705161Y-97582367D01*
X119956315Y-97445226D01*
X120185395Y-97273739D01*
X120387739Y-97071395D01*
X120559226Y-96842315D01*
X120696367Y-96591161D01*
X120745107Y-96460482D01*
X120786976Y-96404552D01*
X120852440Y-96380135D01*
X120920713Y-96394986D01*
X120927259Y-96398825D01*
X121053081Y-96477885D01*
X121062478Y-96483789D01*
X121154929Y-96516139D01*
X121232745Y-96543368D01*
X121232750Y-96543369D01*
X121411996Y-96563565D01*
X121412000Y-96563565D01*
X121412004Y-96563565D01*
X121591249Y-96543369D01*
X121591252Y-96543368D01*
X121591255Y-96543368D01*
X121761522Y-96483789D01*
X121914262Y-96387816D01*
X122041816Y-96260262D01*
X122066269Y-96221345D01*
X122121450Y-96133527D01*
X122173784Y-96087237D01*
X122226443Y-96075500D01*
X128710258Y-96075500D01*
X128777297Y-96095185D01*
X128797939Y-96111819D01*
X130888180Y-98202060D01*
X130921665Y-98263383D01*
X130924499Y-98289741D01*
X130924499Y-98710257D01*
X130904814Y-98777296D01*
X130888180Y-98797938D01*
X130622608Y-99063510D01*
X130616507Y-99068861D01*
X130593617Y-99086427D01*
X130589549Y-99089549D01*
X130586006Y-99094166D01*
X130565549Y-99120824D01*
X130565534Y-99120845D01*
X130530951Y-99165915D01*
X130497300Y-99209769D01*
X130439886Y-99348380D01*
X130439313Y-99349764D01*
X130425084Y-99457849D01*
X130423957Y-99466406D01*
X130423955Y-99466419D01*
X130419535Y-99500000D01*
X130423968Y-99533680D01*
X130424499Y-99541780D01*
X130424499Y-105958219D01*
X130423968Y-105966318D01*
X130419535Y-105999999D01*
X130424021Y-106034083D01*
X130424023Y-106034098D01*
X130428710Y-106069696D01*
X130439313Y-106150236D01*
X130460182Y-106200619D01*
X130464800Y-106211767D01*
X130488479Y-106268934D01*
X130497302Y-106290233D01*
X130534742Y-106339026D01*
X130567680Y-106381953D01*
X130567689Y-106381963D01*
X130589546Y-106410448D01*
X130589547Y-106410449D01*
X130589549Y-106410451D01*
X130613053Y-106428486D01*
X130616506Y-106431136D01*
X130622609Y-106436489D01*
X131065520Y-106879400D01*
X131070861Y-106885490D01*
X131071535Y-106886368D01*
X131089811Y-106910187D01*
X131091549Y-106912451D01*
X131091557Y-106912457D01*
X131120486Y-106934656D01*
X131120491Y-106934660D01*
X131141622Y-106950874D01*
X131206554Y-107000698D01*
X131211767Y-107004698D01*
X131351764Y-107062687D01*
X131464280Y-107077500D01*
X131464281Y-107077500D01*
X131466294Y-107077765D01*
X131466313Y-107077766D01*
X131502000Y-107082465D01*
X131502001Y-107082465D01*
X131515265Y-107080718D01*
X131535682Y-107078030D01*
X131543781Y-107077500D01*
X132456219Y-107077500D01*
X132464317Y-107078030D01*
X132484734Y-107080718D01*
X132497999Y-107082465D01*
X132498000Y-107082465D01*
X132533785Y-107077754D01*
X132533809Y-107077751D01*
X132535715Y-107077500D01*
X132535720Y-107077500D01*
X132648236Y-107062687D01*
X132788233Y-107004698D01*
X132793446Y-107000698D01*
X132843558Y-106962245D01*
X132886358Y-106929405D01*
X132886370Y-106929394D01*
X132908443Y-106912457D01*
X132908442Y-106912457D01*
X132908451Y-106912451D01*
X132908457Y-106912442D01*
X132912442Y-106908457D01*
X132912451Y-106908451D01*
X132929402Y-106886360D01*
X132935610Y-106878268D01*
X132935612Y-106878268D01*
X133004699Y-106788233D01*
X133056958Y-106662066D01*
X133062687Y-106648236D01*
X133077500Y-106535720D01*
X133077500Y-106535719D01*
X133077751Y-106533813D01*
X133077754Y-106533785D01*
X133082465Y-106498000D01*
X133082465Y-106497999D01*
X133078031Y-106464321D01*
X133077500Y-106456219D01*
X133077500Y-106161732D01*
X133097185Y-106094693D01*
X133149989Y-106048938D01*
X133219147Y-106038994D01*
X133275811Y-106062466D01*
X133285469Y-106069696D01*
X133285470Y-106069696D01*
X133285471Y-106069697D01*
X133285473Y-106069698D01*
X133425819Y-106122043D01*
X133481753Y-106163914D01*
X133505426Y-106222042D01*
X133510621Y-106261505D01*
X133510623Y-106261520D01*
X133525913Y-106377657D01*
X133525913Y-106377658D01*
X133569976Y-106484036D01*
X133583899Y-106517650D01*
X133583901Y-106517652D01*
X133583902Y-106517655D01*
X133597764Y-106535720D01*
X133654280Y-106609375D01*
X133654289Y-106609385D01*
X133676146Y-106637870D01*
X133676147Y-106637871D01*
X133676149Y-106637873D01*
X133699653Y-106655908D01*
X133703106Y-106658558D01*
X133709209Y-106663911D01*
X134313027Y-107267729D01*
X134346512Y-107329052D01*
X134341528Y-107398744D01*
X134313027Y-107443091D01*
X132863310Y-108892808D01*
X132801987Y-108926293D01*
X132789513Y-108928347D01*
X132662750Y-108942630D01*
X132492478Y-109002210D01*
X132339737Y-109098184D01*
X132212184Y-109225737D01*
X132116211Y-109378476D01*
X132056631Y-109548745D01*
X132056630Y-109548750D01*
X132036435Y-109727996D01*
X132036435Y-109728004D01*
X132051998Y-109866137D01*
X132039943Y-109934959D01*
X131992594Y-109986338D01*
X131924983Y-110003962D01*
X131858578Y-109982235D01*
X131829511Y-109954330D01*
X131817745Y-109938612D01*
X131817729Y-109938594D01*
X131615405Y-109736270D01*
X131615387Y-109736254D01*
X131386317Y-109564775D01*
X131386309Y-109564770D01*
X131135166Y-109427635D01*
X131135167Y-109427635D01*
X130999897Y-109377182D01*
X130867046Y-109327631D01*
X130867043Y-109327630D01*
X130867037Y-109327628D01*
X130587433Y-109266804D01*
X130302001Y-109246390D01*
X130301999Y-109246390D01*
X130016566Y-109266804D01*
X129736962Y-109327628D01*
X129468833Y-109427635D01*
X129217690Y-109564770D01*
X129217682Y-109564775D01*
X128988612Y-109736254D01*
X128988594Y-109736270D01*
X128786270Y-109938594D01*
X128786254Y-109938612D01*
X128614775Y-110167682D01*
X128614770Y-110167690D01*
X128477635Y-110418833D01*
X128377628Y-110686962D01*
X128316804Y-110966566D01*
X128296390Y-111251998D01*
X128296390Y-111252001D01*
X128316804Y-111537433D01*
X128377628Y-111817037D01*
X128377630Y-111817043D01*
X128377631Y-111817046D01*
X128434219Y-111968764D01*
X128477635Y-112085166D01*
X128614770Y-112336309D01*
X128614775Y-112336317D01*
X128786254Y-112565387D01*
X128786270Y-112565405D01*
X128988594Y-112767729D01*
X128988612Y-112767745D01*
X129217682Y-112939224D01*
X129217690Y-112939229D01*
X129468833Y-113076364D01*
X129468832Y-113076364D01*
X129468836Y-113076365D01*
X129468839Y-113076367D01*
X129736954Y-113176369D01*
X129736960Y-113176370D01*
X129736962Y-113176371D01*
X130016566Y-113237195D01*
X130016568Y-113237195D01*
X130016572Y-113237196D01*
X130270220Y-113255337D01*
X130301999Y-113257610D01*
X130302000Y-113257610D01*
X130302001Y-113257610D01*
X130330595Y-113255564D01*
X130587428Y-113237196D01*
X130811934Y-113188358D01*
X130867037Y-113176371D01*
X130867037Y-113176370D01*
X130867046Y-113176369D01*
X131135161Y-113076367D01*
X131386315Y-112939226D01*
X131615395Y-112767739D01*
X131817739Y-112565395D01*
X131989226Y-112336315D01*
X132126367Y-112085161D01*
X132226369Y-111817046D01*
X132226371Y-111817037D01*
X132287195Y-111537433D01*
X132287195Y-111537432D01*
X132287196Y-111537428D01*
X132307610Y-111252000D01*
X132306744Y-111239898D01*
X132295695Y-111085411D01*
X132287196Y-110966572D01*
X132284004Y-110951900D01*
X132250125Y-110796158D01*
X132226369Y-110686954D01*
X132159340Y-110507245D01*
X132154357Y-110437555D01*
X132187842Y-110376232D01*
X132249165Y-110342747D01*
X132318857Y-110347731D01*
X132341491Y-110358917D01*
X132380899Y-110383679D01*
X132492475Y-110453788D01*
X132662745Y-110513368D01*
X132662750Y-110513369D01*
X132841996Y-110533565D01*
X132842000Y-110533565D01*
X132842004Y-110533565D01*
X133021249Y-110513369D01*
X133021251Y-110513368D01*
X133021255Y-110513368D01*
X133021258Y-110513366D01*
X133021262Y-110513366D01*
X133127350Y-110476244D01*
X133197128Y-110472681D01*
X133257756Y-110507410D01*
X133282581Y-110553016D01*
X133284998Y-110552115D01*
X133338002Y-110694228D01*
X133338006Y-110694235D01*
X133424252Y-110809444D01*
X133424255Y-110809447D01*
X133539464Y-110895693D01*
X133539471Y-110895697D01*
X133674317Y-110945991D01*
X133674316Y-110945991D01*
X133681244Y-110946735D01*
X133733927Y-110952400D01*
X134947272Y-110952399D01*
X135006883Y-110945991D01*
X135141731Y-110895696D01*
X135168407Y-110875725D01*
X135233866Y-110851309D01*
X135302139Y-110866159D01*
X135317028Y-110875727D01*
X135343108Y-110895251D01*
X135477823Y-110945497D01*
X135477827Y-110945498D01*
X135537355Y-110951899D01*
X135537372Y-110951900D01*
X135894000Y-110951900D01*
X135894000Y-109978000D01*
X136394000Y-109978000D01*
X136394000Y-110951900D01*
X136750628Y-110951900D01*
X136750644Y-110951899D01*
X136810172Y-110945498D01*
X136810179Y-110945496D01*
X136944886Y-110895254D01*
X136944893Y-110895250D01*
X137059987Y-110809090D01*
X137059990Y-110809087D01*
X137146150Y-110693993D01*
X137146154Y-110693986D01*
X137196396Y-110559279D01*
X137196398Y-110559272D01*
X137202799Y-110499744D01*
X137202800Y-110499727D01*
X137202800Y-109978000D01*
X136394000Y-109978000D01*
X135894000Y-109978000D01*
X135894000Y-108504100D01*
X135537355Y-108504100D01*
X135477827Y-108510501D01*
X135477820Y-108510503D01*
X135343113Y-108560745D01*
X135343106Y-108560749D01*
X135317026Y-108580273D01*
X135251562Y-108604690D01*
X135183289Y-108589838D01*
X135168415Y-108580280D01*
X135141731Y-108560304D01*
X135141730Y-108560303D01*
X135141728Y-108560302D01*
X135090786Y-108541302D01*
X135034852Y-108499430D01*
X135010436Y-108433965D01*
X135025288Y-108365692D01*
X135046435Y-108337444D01*
X135416649Y-107967230D01*
X135477973Y-107933745D01*
X135504331Y-107930911D01*
X136234014Y-107930911D01*
X136301053Y-107950596D01*
X136321695Y-107967230D01*
X136646884Y-108292419D01*
X136680369Y-108353742D01*
X136675385Y-108423434D01*
X136633513Y-108479367D01*
X136568049Y-108503784D01*
X136559203Y-108504100D01*
X136394000Y-108504100D01*
X136394000Y-109478000D01*
X137202800Y-109478000D01*
X137202800Y-109147697D01*
X137222485Y-109080658D01*
X137275289Y-109034903D01*
X137344447Y-109024959D01*
X137408003Y-109053984D01*
X137414481Y-109060016D01*
X137613781Y-109259316D01*
X137647266Y-109320639D01*
X137650100Y-109346997D01*
X137650100Y-110183819D01*
X137649569Y-110191921D01*
X137645135Y-110225598D01*
X137649621Y-110259683D01*
X137649623Y-110259698D01*
X137664913Y-110375835D01*
X137664913Y-110375836D01*
X137719078Y-110506601D01*
X137722898Y-110515825D01*
X137722903Y-110515834D01*
X137793280Y-110607553D01*
X137793289Y-110607563D01*
X137815146Y-110636048D01*
X137815147Y-110636049D01*
X137815149Y-110636051D01*
X137825725Y-110644166D01*
X137842106Y-110656736D01*
X137848209Y-110662089D01*
X138300720Y-111114600D01*
X138306061Y-111120690D01*
X138326749Y-111147651D01*
X138336412Y-111155066D01*
X138355686Y-111169856D01*
X138355691Y-111169860D01*
X138446968Y-111239899D01*
X138446967Y-111239899D01*
X138516145Y-111268553D01*
X138545479Y-111280703D01*
X138586964Y-111297887D01*
X138699480Y-111312700D01*
X138737200Y-111317666D01*
X138770888Y-111313230D01*
X138778986Y-111312700D01*
X139919419Y-111312700D01*
X139927517Y-111313230D01*
X139947934Y-111315918D01*
X139961199Y-111317665D01*
X139961200Y-111317665D01*
X139996985Y-111312954D01*
X139997009Y-111312951D01*
X139998915Y-111312700D01*
X139998920Y-111312700D01*
X140111436Y-111297887D01*
X140251433Y-111239898D01*
X140279400Y-111218438D01*
X140341468Y-111170812D01*
X140341467Y-111170812D01*
X140349560Y-111164603D01*
X140349564Y-111164598D01*
X140371651Y-111147651D01*
X140392338Y-111120689D01*
X140397680Y-111114598D01*
X142188221Y-109324057D01*
X142249542Y-109290574D01*
X142319234Y-109295558D01*
X142375167Y-109337430D01*
X142399584Y-109402894D01*
X142399900Y-109411740D01*
X142399900Y-109849688D01*
X142399369Y-109857786D01*
X142398462Y-109864676D01*
X142394706Y-109893207D01*
X142394706Y-109893210D01*
X142399610Y-109930462D01*
X142399612Y-109930483D01*
X142412130Y-110025568D01*
X142415398Y-110050389D01*
X142415398Y-110050390D01*
X142476065Y-110196852D01*
X142476067Y-110196856D01*
X142498123Y-110225600D01*
X142548347Y-110291056D01*
X142548349Y-110291057D01*
X142572576Y-110322629D01*
X142572578Y-110322631D01*
X142600928Y-110344385D01*
X142607031Y-110349738D01*
X147685208Y-115427915D01*
X147718693Y-115489238D01*
X147713709Y-115558930D01*
X147702521Y-115581568D01*
X147610211Y-115728476D01*
X147550631Y-115898745D01*
X147550630Y-115898750D01*
X147530435Y-116077996D01*
X147530435Y-116078003D01*
X147550630Y-116257249D01*
X147550631Y-116257254D01*
X147610211Y-116427523D01*
X147690038Y-116554566D01*
X147706184Y-116580262D01*
X147706187Y-116580265D01*
X147706841Y-116581085D01*
X147707101Y-116581722D01*
X147709889Y-116586159D01*
X147709112Y-116586647D01*
X147733254Y-116645770D01*
X147733900Y-116658406D01*
X147733900Y-117304472D01*
X147733369Y-117312570D01*
X147733054Y-117314967D01*
X147728705Y-117347999D01*
X147728705Y-117348000D01*
X147733900Y-117387460D01*
X147749397Y-117505178D01*
X147749398Y-117505180D01*
X147810067Y-117651647D01*
X147906578Y-117777422D01*
X148032352Y-117873933D01*
X148032355Y-117873934D01*
X148032356Y-117873935D01*
X148105586Y-117904267D01*
X148178820Y-117934602D01*
X148257409Y-117944948D01*
X148335999Y-117955295D01*
X148336000Y-117955295D01*
X148371428Y-117950630D01*
X148379527Y-117950100D01*
X178264479Y-117950100D01*
X178272577Y-117950630D01*
X178293137Y-117953337D01*
X178307999Y-117955294D01*
X178308000Y-117955294D01*
X178308001Y-117955294D01*
X178343421Y-117950631D01*
X178345527Y-117950353D01*
X178345553Y-117950351D01*
X178347460Y-117950100D01*
X178465180Y-117934602D01*
X178611647Y-117873933D01*
X178705847Y-117801651D01*
X178705847Y-117801650D01*
X178713940Y-117795441D01*
X178713945Y-117795436D01*
X178731592Y-117781895D01*
X178737422Y-117777422D01*
X178759179Y-117749066D01*
X178764519Y-117742977D01*
X180884579Y-115622918D01*
X180945902Y-115589433D01*
X180972260Y-115586599D01*
X181639471Y-115586599D01*
X181639472Y-115586599D01*
X181699083Y-115580191D01*
X181833931Y-115529896D01*
X181949146Y-115443646D01*
X182035396Y-115328431D01*
X182085691Y-115193583D01*
X182092100Y-115133973D01*
X182092099Y-113133228D01*
X182085691Y-113073617D01*
X182075769Y-113047016D01*
X182035397Y-112938771D01*
X182035393Y-112938764D01*
X181949147Y-112823555D01*
X181949144Y-112823552D01*
X181833935Y-112737306D01*
X181833928Y-112737302D01*
X181803287Y-112725874D01*
X181747353Y-112684003D01*
X181722936Y-112618538D01*
X181737788Y-112550265D01*
X181748761Y-112533537D01*
X181859672Y-112391039D01*
X181974279Y-112179264D01*
X182052466Y-111951513D01*
X182092100Y-111713999D01*
X182092100Y-111473201D01*
X182052466Y-111235687D01*
X182046544Y-111218438D01*
X181986070Y-111042283D01*
X181974279Y-111007936D01*
X181859672Y-110796161D01*
X181849786Y-110783460D01*
X181828287Y-110755837D01*
X181711771Y-110606137D01*
X181534610Y-110443049D01*
X181510671Y-110427409D01*
X181465314Y-110374264D01*
X181455890Y-110305033D01*
X181485391Y-110241696D01*
X181510670Y-110219791D01*
X181534610Y-110204151D01*
X181711771Y-110041063D01*
X181859672Y-109851039D01*
X181974279Y-109639264D01*
X182052466Y-109411513D01*
X182092100Y-109173999D01*
X182092100Y-108933201D01*
X182052466Y-108695687D01*
X182005570Y-108559085D01*
X181988892Y-108510503D01*
X181981987Y-108490391D01*
X181978838Y-108420593D01*
X182013924Y-108360172D01*
X182076107Y-108328312D01*
X182145643Y-108335127D01*
X182186950Y-108362448D01*
X196647469Y-122822967D01*
X196652822Y-122829070D01*
X196674576Y-122857420D01*
X196674578Y-122857422D01*
X196705235Y-122880946D01*
X196705246Y-122880955D01*
X196712281Y-122886354D01*
X196783728Y-122941176D01*
X196800353Y-122953933D01*
X196946820Y-123014602D01*
X197064540Y-123030100D01*
X197064545Y-123030100D01*
X197104000Y-123035294D01*
X197104001Y-123035294D01*
X197139420Y-123030631D01*
X197147521Y-123030100D01*
X198835240Y-123030100D01*
X198902279Y-123049785D01*
X198922921Y-123066419D01*
X199441469Y-123584967D01*
X199446822Y-123591070D01*
X199468576Y-123619420D01*
X199468578Y-123619422D01*
X199499235Y-123642946D01*
X199499253Y-123642961D01*
X199594352Y-123715933D01*
X199655021Y-123741062D01*
X199740820Y-123776602D01*
X199793213Y-123783499D01*
X199897998Y-123797295D01*
X199898000Y-123797295D01*
X199898001Y-123797295D01*
X199908286Y-123795940D01*
X199933430Y-123792630D01*
X199941528Y-123792100D01*
X206712473Y-123792100D01*
X206720571Y-123792630D01*
X206756000Y-123797295D01*
X206756001Y-123797295D01*
X206808393Y-123790397D01*
X206913180Y-123776602D01*
X207059647Y-123715933D01*
X207185422Y-123619422D01*
X207188116Y-123617355D01*
X207192856Y-123609732D01*
X207281933Y-123493648D01*
X207342602Y-123347180D01*
X207363295Y-123190000D01*
X207358630Y-123154570D01*
X207358100Y-123146472D01*
X207358100Y-120185520D01*
X207358631Y-120177418D01*
X207363294Y-120142000D01*
X207363294Y-120141999D01*
X207362591Y-120136663D01*
X207358100Y-120102545D01*
X207358100Y-120102540D01*
X207342602Y-119984820D01*
X207281933Y-119838353D01*
X207185422Y-119712578D01*
X207157064Y-119690818D01*
X207150974Y-119685477D01*
X206205696Y-118740198D01*
X206200352Y-118734103D01*
X206193904Y-118725701D01*
X206178601Y-118705757D01*
X206178598Y-118705755D01*
X206178597Y-118705753D01*
X206147029Y-118681530D01*
X206124657Y-118664364D01*
X206052826Y-118609246D01*
X206052822Y-118609244D01*
X206052823Y-118609244D01*
X205906361Y-118548577D01*
X205894382Y-118546195D01*
X205895131Y-118542429D01*
X205849029Y-118528892D01*
X205807013Y-118483595D01*
X205737824Y-118355745D01*
X205728080Y-118337740D01*
X205580179Y-118147716D01*
X205403018Y-117984628D01*
X205201430Y-117852924D01*
X205201427Y-117852922D01*
X205201426Y-117852922D01*
X204980913Y-117756196D01*
X204858559Y-117725212D01*
X204747484Y-117697084D01*
X204747483Y-117697083D01*
X204747480Y-117697083D01*
X204603337Y-117685139D01*
X204567608Y-117682179D01*
X204352408Y-117682179D01*
X204319906Y-117684872D01*
X204172535Y-117697083D01*
X203939102Y-117756196D01*
X203718589Y-117852922D01*
X203516998Y-117984628D01*
X203444671Y-118051210D01*
X203339837Y-118147716D01*
X203310238Y-118185745D01*
X203191937Y-118337737D01*
X203077329Y-118549513D01*
X203077326Y-118549522D01*
X202999142Y-118777262D01*
X202959508Y-119014781D01*
X202959508Y-119255576D01*
X202999142Y-119493095D01*
X203077326Y-119720835D01*
X203077329Y-119720844D01*
X203191937Y-119932620D01*
X203191941Y-119932626D01*
X203302840Y-120075109D01*
X203328483Y-120140103D01*
X203314916Y-120208643D01*
X203266448Y-120258967D01*
X203248321Y-120267452D01*
X203217683Y-120278879D01*
X203217672Y-120278885D01*
X203102463Y-120365131D01*
X203102460Y-120365134D01*
X203016214Y-120480343D01*
X203016210Y-120480350D01*
X202965916Y-120615196D01*
X202959509Y-120674795D01*
X202959508Y-120674814D01*
X202959508Y-120949079D01*
X202939823Y-121016118D01*
X202887019Y-121061873D01*
X202835508Y-121073079D01*
X197667939Y-121073079D01*
X197600900Y-121053394D01*
X197580258Y-121036760D01*
X190467682Y-113924184D01*
X183336517Y-106793019D01*
X183331173Y-106786924D01*
X183322969Y-106776233D01*
X183309422Y-106758578D01*
X183309419Y-106758576D01*
X183309418Y-106758574D01*
X183277850Y-106734351D01*
X183245064Y-106709194D01*
X183183647Y-106662067D01*
X183183643Y-106662065D01*
X183183644Y-106662065D01*
X183037182Y-106601398D01*
X183035180Y-106601000D01*
X183033147Y-106600867D01*
X182964546Y-106591835D01*
X182915838Y-106585423D01*
X182915823Y-106585421D01*
X182885431Y-106581421D01*
X182880000Y-106580706D01*
X182879999Y-106580706D01*
X182879998Y-106580706D01*
X182844580Y-106585369D01*
X182836479Y-106585900D01*
X173779527Y-106585900D01*
X173771428Y-106585369D01*
X173736000Y-106580705D01*
X173735998Y-106580705D01*
X173730557Y-106581421D01*
X173661523Y-106570652D01*
X173609269Y-106524269D01*
X173590387Y-106457000D01*
X173610871Y-106390200D01*
X173626688Y-106370809D01*
X173695081Y-106302416D01*
X173756403Y-106268934D01*
X173782760Y-106266100D01*
X199854479Y-106266100D01*
X199862577Y-106266630D01*
X199880073Y-106268934D01*
X199897999Y-106271294D01*
X199898000Y-106271294D01*
X199898001Y-106271294D01*
X199933421Y-106266631D01*
X199935527Y-106266353D01*
X199935553Y-106266351D01*
X199937460Y-106266100D01*
X200055180Y-106250602D01*
X200201647Y-106189933D01*
X200244803Y-106156818D01*
X200290123Y-106122043D01*
X200303939Y-106111442D01*
X200303945Y-106111436D01*
X200307017Y-106109079D01*
X200327422Y-106093422D01*
X200349184Y-106065061D01*
X200354514Y-106058983D01*
X202907820Y-103505677D01*
X202969143Y-103472193D01*
X203038835Y-103477177D01*
X203094768Y-103519049D01*
X203119185Y-103584513D01*
X203119501Y-103593359D01*
X203119501Y-103736376D01*
X203125908Y-103795983D01*
X203176202Y-103930828D01*
X203176206Y-103930835D01*
X203262452Y-104046044D01*
X203262455Y-104046047D01*
X203377664Y-104132293D01*
X203377671Y-104132297D01*
X203512517Y-104182591D01*
X203512516Y-104182591D01*
X203519444Y-104183335D01*
X203572127Y-104189000D01*
X205667872Y-104188999D01*
X205727483Y-104182591D01*
X205862331Y-104132296D01*
X205977546Y-104046046D01*
X206063796Y-103930831D01*
X206114091Y-103795983D01*
X206120500Y-103736373D01*
X206120499Y-101735628D01*
X206115299Y-101687257D01*
X206114091Y-101676016D01*
X206063797Y-101541171D01*
X206063793Y-101541164D01*
X205977547Y-101425955D01*
X205977544Y-101425952D01*
X205862335Y-101339706D01*
X205862328Y-101339702D01*
X205831687Y-101328274D01*
X205775753Y-101286403D01*
X205751336Y-101220938D01*
X205766188Y-101152665D01*
X205777161Y-101135937D01*
X205888072Y-100993439D01*
X206002679Y-100781664D01*
X206080866Y-100553913D01*
X206120500Y-100316399D01*
X206120500Y-100075601D01*
X206080866Y-99838087D01*
X206074944Y-99820838D01*
X206036106Y-99707707D01*
X206002679Y-99610336D01*
X205888072Y-99398561D01*
X205870005Y-99375349D01*
X205856687Y-99358237D01*
X205740171Y-99208537D01*
X205563010Y-99045449D01*
X205361422Y-98913745D01*
X205361419Y-98913743D01*
X205361418Y-98913743D01*
X205140905Y-98817017D01*
X205018551Y-98786033D01*
X204907476Y-98757905D01*
X204907475Y-98757904D01*
X204907472Y-98757904D01*
X204763329Y-98745960D01*
X204727600Y-98743000D01*
X204512400Y-98743000D01*
X204479898Y-98745693D01*
X204332527Y-98757904D01*
X204099094Y-98817017D01*
X203878581Y-98913743D01*
X203676990Y-99045449D01*
X203506182Y-99202689D01*
X203499829Y-99208537D01*
X203470548Y-99246158D01*
X203351929Y-99398558D01*
X203237321Y-99610334D01*
X203237318Y-99610343D01*
X203159134Y-99838083D01*
X203137418Y-99968224D01*
X203119500Y-100075601D01*
X203119500Y-100316399D01*
X203135353Y-100411404D01*
X203159134Y-100553916D01*
X203237318Y-100781656D01*
X203237321Y-100781665D01*
X203351929Y-100993441D01*
X203351933Y-100993447D01*
X203462832Y-101135930D01*
X203488475Y-101200924D01*
X203474908Y-101269464D01*
X203426440Y-101319788D01*
X203408313Y-101328273D01*
X203377675Y-101339700D01*
X203377664Y-101339706D01*
X203262455Y-101425952D01*
X203262452Y-101425955D01*
X203176206Y-101541164D01*
X203176202Y-101541171D01*
X203125908Y-101676017D01*
X203119501Y-101735616D01*
X203119501Y-101735623D01*
X203119500Y-101735635D01*
X203119500Y-102009900D01*
X203099815Y-102076939D01*
X203047011Y-102122694D01*
X202995500Y-102133900D01*
X202869520Y-102133900D01*
X202861421Y-102133369D01*
X202835442Y-102129949D01*
X202826001Y-102128706D01*
X202825996Y-102128706D01*
X202789732Y-102133480D01*
X202789717Y-102133482D01*
X202786542Y-102133900D01*
X202786540Y-102133900D01*
X202765538Y-102136665D01*
X202668821Y-102149397D01*
X202668819Y-102149398D01*
X202524668Y-102209108D01*
X202522354Y-102210066D01*
X202522350Y-102210068D01*
X202430115Y-102280843D01*
X202430109Y-102280847D01*
X202428153Y-102282349D01*
X202428150Y-102282351D01*
X202419260Y-102289173D01*
X202396577Y-102306578D01*
X202374821Y-102334929D01*
X202369470Y-102341030D01*
X199684921Y-105025581D01*
X199623598Y-105059066D01*
X199597240Y-105061900D01*
X183607639Y-105061900D01*
X183540600Y-105042215D01*
X183494845Y-104989411D01*
X183484700Y-104921716D01*
X183487295Y-104902002D01*
X183487295Y-104901999D01*
X183482631Y-104866574D01*
X183482100Y-104858472D01*
X183482100Y-100196001D01*
X185704671Y-100196001D01*
X185706835Y-100229027D01*
X185706933Y-100235155D01*
X185705723Y-100271367D01*
X185705723Y-100271376D01*
X185716880Y-100382281D01*
X185723965Y-100490376D01*
X185723966Y-100490389D01*
X185731050Y-100526003D01*
X185731930Y-100531891D01*
X185735882Y-100571164D01*
X185760996Y-100676546D01*
X185781516Y-100779711D01*
X185781518Y-100779719D01*
X185794230Y-100817171D01*
X185795831Y-100822727D01*
X185805728Y-100864252D01*
X185805730Y-100864257D01*
X185805731Y-100864261D01*
X185843542Y-100962437D01*
X185868825Y-101036917D01*
X185876348Y-101059076D01*
X185895263Y-101097433D01*
X185897515Y-101102573D01*
X185914019Y-101145428D01*
X185914023Y-101145436D01*
X185963076Y-101234946D01*
X186006822Y-101323655D01*
X186006833Y-101323673D01*
X186032380Y-101361907D01*
X186035199Y-101366557D01*
X186058822Y-101409659D01*
X186058829Y-101409671D01*
X186116671Y-101488175D01*
X186118308Y-101490507D01*
X186159366Y-101551955D01*
X186170727Y-101568957D01*
X186203182Y-101605965D01*
X186206482Y-101610068D01*
X186237551Y-101652235D01*
X186303114Y-101720028D01*
X186305160Y-101722249D01*
X186365242Y-101790758D01*
X186400025Y-101821262D01*
X186404670Y-101825336D01*
X186408358Y-101828849D01*
X186436068Y-101857500D01*
X186447020Y-101868824D01*
X186474375Y-101890426D01*
X186518495Y-101925267D01*
X186520950Y-101927311D01*
X186545430Y-101948779D01*
X186582135Y-101980969D01*
X186587040Y-101985270D01*
X186587040Y-101985271D01*
X186587043Y-101985273D01*
X186592547Y-101988951D01*
X186633336Y-102016205D01*
X186637307Y-102019092D01*
X186644899Y-102025087D01*
X186683485Y-102055558D01*
X186759059Y-102100320D01*
X186761897Y-102102106D01*
X186809479Y-102133900D01*
X186832338Y-102149174D01*
X186842486Y-102154178D01*
X186885187Y-102175236D01*
X186889318Y-102177473D01*
X186920322Y-102195837D01*
X186942717Y-102209102D01*
X186942722Y-102209104D01*
X186942730Y-102209109D01*
X187020665Y-102242156D01*
X187023826Y-102243604D01*
X187096923Y-102279652D01*
X187155759Y-102299624D01*
X187160014Y-102301245D01*
X187220128Y-102326736D01*
X187298640Y-102348242D01*
X187302160Y-102349320D01*
X187376278Y-102374481D01*
X187434967Y-102386154D01*
X187440384Y-102387232D01*
X187444658Y-102388241D01*
X187510729Y-102406340D01*
X187588224Y-102416761D01*
X187592037Y-102417397D01*
X187665620Y-102432034D01*
X187734067Y-102436519D01*
X187738246Y-102436937D01*
X187809347Y-102446500D01*
X187884302Y-102446500D01*
X187888349Y-102446632D01*
X187920372Y-102448731D01*
X187959994Y-102451329D01*
X187960000Y-102451329D01*
X187960004Y-102451329D01*
X187970762Y-102450623D01*
X188032081Y-102446604D01*
X188035222Y-102446500D01*
X188035244Y-102446500D01*
X188108842Y-102441573D01*
X188254380Y-102432034D01*
X188254409Y-102432028D01*
X188255522Y-102431882D01*
X188259478Y-102431489D01*
X188260634Y-102431412D01*
X188403658Y-102402341D01*
X188543722Y-102374481D01*
X188544442Y-102374236D01*
X188552018Y-102372185D01*
X188555903Y-102371396D01*
X188690821Y-102324547D01*
X188823077Y-102279652D01*
X188826687Y-102277871D01*
X188833754Y-102274914D01*
X188840537Y-102272560D01*
X188965220Y-102209554D01*
X189087665Y-102149172D01*
X189093700Y-102145138D01*
X189100164Y-102141364D01*
X189109459Y-102136668D01*
X189222040Y-102059385D01*
X189332957Y-101985273D01*
X189340840Y-101978358D01*
X189346622Y-101973863D01*
X189357869Y-101966144D01*
X189456824Y-101876643D01*
X189554758Y-101790758D01*
X189563799Y-101780446D01*
X189568823Y-101775345D01*
X189581333Y-101764032D01*
X189665443Y-101664545D01*
X189749273Y-101568957D01*
X189758687Y-101554866D01*
X189762895Y-101549279D01*
X189769751Y-101541171D01*
X189775865Y-101533939D01*
X189844276Y-101426775D01*
X189913172Y-101323665D01*
X189922098Y-101305562D01*
X189925441Y-101299631D01*
X189937993Y-101279970D01*
X189990195Y-101167476D01*
X190043652Y-101059077D01*
X190051179Y-101036899D01*
X190053641Y-101030752D01*
X190064823Y-101006658D01*
X190100632Y-100891219D01*
X190138481Y-100779722D01*
X190143677Y-100753597D01*
X190145271Y-100747316D01*
X190147907Y-100738819D01*
X190154093Y-100718879D01*
X190173676Y-100602782D01*
X190174625Y-100598014D01*
X190183396Y-100553916D01*
X190196034Y-100490380D01*
X190197986Y-100460576D01*
X190198714Y-100454342D01*
X190204209Y-100421770D01*
X190208038Y-100307231D01*
X190209228Y-100289079D01*
X190215329Y-100196005D01*
X190215329Y-100196001D01*
X190214986Y-100190766D01*
X190213162Y-100162955D01*
X190213065Y-100156849D01*
X190214277Y-100120631D01*
X190203119Y-100009718D01*
X190196034Y-99901620D01*
X190188944Y-99865977D01*
X190188068Y-99860107D01*
X190187787Y-99857318D01*
X190184118Y-99820838D01*
X190159003Y-99715454D01*
X190158052Y-99710675D01*
X190149651Y-99668437D01*
X190138481Y-99612278D01*
X190125764Y-99574816D01*
X190124169Y-99569283D01*
X190123864Y-99568003D01*
X193504435Y-99568003D01*
X193524630Y-99747249D01*
X193524631Y-99747254D01*
X193584211Y-99917523D01*
X193642686Y-100010584D01*
X193680184Y-100070262D01*
X193807738Y-100197816D01*
X193857410Y-100229027D01*
X193924793Y-100271367D01*
X193960478Y-100293789D01*
X194103724Y-100343913D01*
X194130745Y-100353368D01*
X194130750Y-100353369D01*
X194309996Y-100373565D01*
X194310000Y-100373565D01*
X194310004Y-100373565D01*
X194489249Y-100353369D01*
X194489252Y-100353368D01*
X194489255Y-100353368D01*
X194659522Y-100293789D01*
X194812262Y-100197816D01*
X194939816Y-100070262D01*
X195035789Y-99917522D01*
X195095368Y-99747255D01*
X195098951Y-99715454D01*
X195115565Y-99568003D01*
X195115565Y-99567996D01*
X195095369Y-99388750D01*
X195095368Y-99388745D01*
X195086585Y-99363646D01*
X195035789Y-99218478D01*
X195034973Y-99217180D01*
X194971917Y-99116827D01*
X194939816Y-99065738D01*
X194812262Y-98938184D01*
X194804010Y-98932999D01*
X194659523Y-98842211D01*
X194489254Y-98782631D01*
X194489249Y-98782630D01*
X194310004Y-98762435D01*
X194309996Y-98762435D01*
X194130750Y-98782630D01*
X194130745Y-98782631D01*
X193960476Y-98842211D01*
X193807737Y-98938184D01*
X193680184Y-99065737D01*
X193584211Y-99218476D01*
X193524631Y-99388745D01*
X193524630Y-99388750D01*
X193504435Y-99567996D01*
X193504435Y-99568003D01*
X190123864Y-99568003D01*
X190114269Y-99527739D01*
X190111565Y-99520719D01*
X190076457Y-99429562D01*
X190070095Y-99410820D01*
X190043652Y-99332923D01*
X190024732Y-99294556D01*
X190022485Y-99289429D01*
X190005977Y-99246566D01*
X189964326Y-99170563D01*
X189956919Y-99157046D01*
X189932119Y-99106758D01*
X189913172Y-99068336D01*
X189887612Y-99030083D01*
X189884798Y-99025444D01*
X189884325Y-99024580D01*
X189861175Y-98982335D01*
X189803312Y-98903802D01*
X189801706Y-98901514D01*
X189749273Y-98823043D01*
X189749269Y-98823038D01*
X189716817Y-98786033D01*
X189713516Y-98781930D01*
X189705226Y-98770679D01*
X189682446Y-98739762D01*
X189653911Y-98710257D01*
X189616884Y-98671970D01*
X189614838Y-98669749D01*
X189554760Y-98601244D01*
X189515322Y-98566656D01*
X189511635Y-98563144D01*
X189472981Y-98523176D01*
X189401514Y-98466740D01*
X189399059Y-98464696D01*
X189332960Y-98406729D01*
X189286656Y-98375788D01*
X189282677Y-98372894D01*
X189236517Y-98336443D01*
X189200653Y-98315201D01*
X189160918Y-98291666D01*
X189158089Y-98289884D01*
X189087666Y-98242828D01*
X189034821Y-98216767D01*
X189030668Y-98214518D01*
X188977270Y-98182891D01*
X188977266Y-98182889D01*
X188977262Y-98182887D01*
X188947641Y-98170327D01*
X188899346Y-98149847D01*
X188896157Y-98148386D01*
X188823075Y-98112347D01*
X188764243Y-98092375D01*
X188759969Y-98090746D01*
X188721174Y-98074297D01*
X188699872Y-98065264D01*
X188699868Y-98065263D01*
X188699866Y-98065262D01*
X188621365Y-98043757D01*
X188617815Y-98042670D01*
X188543734Y-98017522D01*
X188543723Y-98017519D01*
X188543722Y-98017519D01*
X188479608Y-98004765D01*
X188475333Y-98003756D01*
X188409281Y-97985662D01*
X188409265Y-97985658D01*
X188331792Y-97975239D01*
X188327962Y-97974601D01*
X188278110Y-97964686D01*
X188254380Y-97959966D01*
X188254377Y-97959965D01*
X188254374Y-97959965D01*
X188185959Y-97955481D01*
X188181750Y-97955061D01*
X188147282Y-97950426D01*
X188110653Y-97945500D01*
X188110650Y-97945500D01*
X188035698Y-97945500D01*
X188031650Y-97945367D01*
X187999627Y-97943268D01*
X187960006Y-97940671D01*
X187960002Y-97940671D01*
X187960000Y-97940671D01*
X187911934Y-97943821D01*
X187887985Y-97945391D01*
X187884765Y-97945499D01*
X187811157Y-97950426D01*
X187665620Y-97959965D01*
X187664420Y-97960123D01*
X187660506Y-97960511D01*
X187659375Y-97960587D01*
X187659372Y-97960587D01*
X187659366Y-97960588D01*
X187516340Y-97989658D01*
X187516341Y-97989658D01*
X187376277Y-98017518D01*
X187376270Y-98017520D01*
X187375508Y-98017779D01*
X187367943Y-98019822D01*
X187364098Y-98020603D01*
X187300548Y-98042670D01*
X187229178Y-98067452D01*
X187183442Y-98082977D01*
X187096927Y-98112346D01*
X187096922Y-98112348D01*
X187093320Y-98114124D01*
X187086241Y-98117086D01*
X187079462Y-98119440D01*
X186954757Y-98182456D01*
X186832343Y-98242823D01*
X186832328Y-98242832D01*
X186826301Y-98246858D01*
X186819828Y-98250637D01*
X186810544Y-98255329D01*
X186697943Y-98332625D01*
X186633346Y-98375788D01*
X186587043Y-98406727D01*
X186579156Y-98413642D01*
X186573373Y-98418138D01*
X186562132Y-98425854D01*
X186463175Y-98515356D01*
X186365241Y-98601242D01*
X186356196Y-98611555D01*
X186351175Y-98616653D01*
X186338668Y-98627966D01*
X186254556Y-98727454D01*
X186170726Y-98823042D01*
X186161308Y-98837136D01*
X186157106Y-98842716D01*
X186144141Y-98858052D01*
X186144140Y-98858053D01*
X186075715Y-98965237D01*
X186006830Y-99068331D01*
X185997905Y-99086427D01*
X185994560Y-99092362D01*
X185982006Y-99112031D01*
X185929801Y-99224530D01*
X185876350Y-99332918D01*
X185876345Y-99332930D01*
X185868822Y-99355089D01*
X185866354Y-99361252D01*
X185859814Y-99375349D01*
X185855176Y-99385344D01*
X185855171Y-99385358D01*
X185819367Y-99500780D01*
X185781518Y-99612279D01*
X185781516Y-99612288D01*
X185776320Y-99638410D01*
X185774728Y-99644683D01*
X185765907Y-99673119D01*
X185751058Y-99761148D01*
X185746323Y-99789217D01*
X185731051Y-99866002D01*
X185723965Y-99901627D01*
X185723964Y-99901628D01*
X185722012Y-99931416D01*
X185721281Y-99937673D01*
X185716501Y-99966019D01*
X185715791Y-99970230D01*
X185712254Y-100076000D01*
X185711961Y-100084768D01*
X185704671Y-100196001D01*
X183482100Y-100196001D01*
X183482100Y-99868759D01*
X183501785Y-99801720D01*
X183518415Y-99781082D01*
X183782977Y-99516519D01*
X183789068Y-99511177D01*
X183817422Y-99489422D01*
X183841648Y-99457849D01*
X183841651Y-99457847D01*
X183913933Y-99363648D01*
X183932710Y-99318315D01*
X183974602Y-99217180D01*
X183990100Y-99099460D01*
X183990100Y-99099452D01*
X183995294Y-99060000D01*
X183994785Y-99056137D01*
X183990631Y-99024580D01*
X183990100Y-99016479D01*
X183990100Y-98849527D01*
X183990631Y-98841425D01*
X183992891Y-98824264D01*
X183995295Y-98806000D01*
X183992666Y-98786033D01*
X183974602Y-98648821D01*
X183974602Y-98648820D01*
X183919319Y-98515356D01*
X183913933Y-98502352D01*
X183840961Y-98407253D01*
X183840946Y-98407235D01*
X183817422Y-98376578D01*
X183817420Y-98376577D01*
X183817420Y-98376576D01*
X183799670Y-98362956D01*
X183789068Y-98354821D01*
X183782978Y-98349480D01*
X182542117Y-97108619D01*
X182536773Y-97102524D01*
X182530325Y-97094122D01*
X182515022Y-97074178D01*
X182515019Y-97074176D01*
X182515018Y-97074174D01*
X182483450Y-97049951D01*
X182462704Y-97034032D01*
X182389247Y-96977667D01*
X182389243Y-96977665D01*
X182389244Y-96977665D01*
X182242782Y-96916998D01*
X182240780Y-96916600D01*
X182238747Y-96916467D01*
X182170146Y-96907435D01*
X182121438Y-96901023D01*
X182121423Y-96901021D01*
X182093918Y-96897401D01*
X182085600Y-96896306D01*
X182085599Y-96896306D01*
X182085598Y-96896306D01*
X182085597Y-96896306D01*
X182055372Y-96900285D01*
X181986337Y-96889519D01*
X181934082Y-96843139D01*
X181930142Y-96836379D01*
X181859672Y-96706161D01*
X181711771Y-96516137D01*
X181711763Y-96516130D01*
X181711761Y-96516127D01*
X181670219Y-96477885D01*
X181634228Y-96417998D01*
X181636329Y-96348160D01*
X181666519Y-96298977D01*
X185306977Y-92658519D01*
X185313068Y-92653177D01*
X185341422Y-92631422D01*
X185365648Y-92599849D01*
X185365651Y-92599847D01*
X185437933Y-92505647D01*
X185498601Y-92359180D01*
X185519294Y-92202000D01*
X185498602Y-92044821D01*
X185437933Y-91898353D01*
X185419653Y-91874530D01*
X185400463Y-91849521D01*
X185364845Y-91803102D01*
X185364831Y-91803085D01*
X185341422Y-91772578D01*
X185341420Y-91772577D01*
X185341420Y-91772576D01*
X185313070Y-91750822D01*
X185306967Y-91745469D01*
X184116004Y-90554506D01*
X182914217Y-89352719D01*
X182908873Y-89346624D01*
X182902425Y-89338222D01*
X182887122Y-89318278D01*
X182887119Y-89318276D01*
X182887118Y-89318274D01*
X182855550Y-89294051D01*
X182813295Y-89261628D01*
X182761347Y-89221767D01*
X182761343Y-89221765D01*
X182761344Y-89221765D01*
X182614880Y-89161098D01*
X182614878Y-89161097D01*
X182493538Y-89145123D01*
X182493523Y-89145121D01*
X182466018Y-89141501D01*
X182457700Y-89140406D01*
X182457699Y-89140406D01*
X182457698Y-89140406D01*
X182422280Y-89145069D01*
X182414179Y-89145600D01*
X182125179Y-89145600D01*
X182058140Y-89125915D01*
X182012385Y-89073111D01*
X182002441Y-89003953D01*
X182007898Y-88981337D01*
X182052465Y-88851516D01*
X182056141Y-88829491D01*
X182092100Y-88613999D01*
X182092100Y-88373201D01*
X182052466Y-88135687D01*
X182052465Y-88135683D01*
X181996981Y-87974063D01*
X181993831Y-87904264D01*
X182028917Y-87843843D01*
X182091100Y-87811982D01*
X182114262Y-87809800D01*
X203439501Y-87809800D01*
X203506540Y-87829485D01*
X203552295Y-87882289D01*
X203563501Y-87933800D01*
X203563501Y-88376376D01*
X203569908Y-88435983D01*
X203620202Y-88570828D01*
X203620206Y-88570835D01*
X203706452Y-88686044D01*
X203706455Y-88686047D01*
X203821664Y-88772293D01*
X203821671Y-88772297D01*
X203956517Y-88822591D01*
X203956516Y-88822591D01*
X203963444Y-88823335D01*
X204016127Y-88829000D01*
X206111872Y-88828999D01*
X206171483Y-88822591D01*
X206306331Y-88772296D01*
X206421546Y-88686046D01*
X206507796Y-88570831D01*
X206558091Y-88435983D01*
X206564500Y-88376373D01*
X206564499Y-86375628D01*
X206558091Y-86316017D01*
X206557757Y-86315122D01*
X206507797Y-86181171D01*
X206507793Y-86181164D01*
X206421547Y-86065955D01*
X206421544Y-86065952D01*
X206306335Y-85979706D01*
X206306328Y-85979702D01*
X206275687Y-85968274D01*
X206219753Y-85926403D01*
X206195336Y-85860938D01*
X206210188Y-85792665D01*
X206221161Y-85775937D01*
X206332072Y-85633439D01*
X206446679Y-85421664D01*
X206524866Y-85193913D01*
X206564500Y-84956399D01*
X206564500Y-84715601D01*
X206524866Y-84478087D01*
X206518944Y-84460838D01*
X206458470Y-84284683D01*
X206446679Y-84250336D01*
X206332072Y-84038561D01*
X206184171Y-83848537D01*
X206007010Y-83685449D01*
X205805422Y-83553745D01*
X205805419Y-83553743D01*
X205805418Y-83553743D01*
X205584905Y-83457017D01*
X205458583Y-83425028D01*
X205351476Y-83397905D01*
X205351475Y-83397904D01*
X205351472Y-83397904D01*
X205207329Y-83385960D01*
X205171600Y-83383000D01*
X204956400Y-83383000D01*
X204923898Y-83385693D01*
X204776527Y-83397904D01*
X204543094Y-83457017D01*
X204322581Y-83553743D01*
X204120990Y-83685449D01*
X204048663Y-83752031D01*
X203943829Y-83848537D01*
X203914230Y-83886566D01*
X203795929Y-84038558D01*
X203681321Y-84250334D01*
X203681318Y-84250343D01*
X203603134Y-84478083D01*
X203582323Y-84602799D01*
X203563500Y-84715601D01*
X203563500Y-84956399D01*
X203569881Y-84994637D01*
X203603134Y-85193916D01*
X203681318Y-85421656D01*
X203681321Y-85421665D01*
X203795929Y-85633441D01*
X203795933Y-85633447D01*
X203906832Y-85775930D01*
X203932475Y-85840924D01*
X203918908Y-85909464D01*
X203870440Y-85959788D01*
X203852313Y-85968273D01*
X203821675Y-85979700D01*
X203821664Y-85979706D01*
X203706455Y-86065952D01*
X203706452Y-86065955D01*
X203620206Y-86181164D01*
X203620202Y-86181171D01*
X203569908Y-86316017D01*
X203564938Y-86362249D01*
X203563501Y-86375623D01*
X203563500Y-86375635D01*
X203563500Y-86481600D01*
X203543815Y-86548639D01*
X203491011Y-86594394D01*
X203439500Y-86605600D01*
X190122131Y-86605600D01*
X190055092Y-86585915D01*
X190009337Y-86533111D01*
X189999393Y-86463953D01*
X190027437Y-86401543D01*
X190036395Y-86390948D01*
X190109443Y-86304545D01*
X190193273Y-86208957D01*
X190202687Y-86194866D01*
X190206895Y-86189279D01*
X190213751Y-86181171D01*
X190219865Y-86173939D01*
X190288276Y-86066775D01*
X190357172Y-85963665D01*
X190366098Y-85945562D01*
X190369441Y-85939631D01*
X190381993Y-85919970D01*
X190434195Y-85807476D01*
X190487652Y-85699077D01*
X190495179Y-85676899D01*
X190497641Y-85670752D01*
X190508823Y-85646658D01*
X190544632Y-85531219D01*
X190582481Y-85419722D01*
X190583918Y-85412500D01*
X190587677Y-85393597D01*
X190589271Y-85387316D01*
X190591909Y-85378812D01*
X190598093Y-85358879D01*
X190617676Y-85242782D01*
X190640034Y-85130380D01*
X190641986Y-85100576D01*
X190642714Y-85094342D01*
X190648209Y-85061770D01*
X190652038Y-84947231D01*
X190654389Y-84911367D01*
X190659329Y-84836005D01*
X190659329Y-84836001D01*
X190659329Y-84836000D01*
X190657162Y-84802955D01*
X190657065Y-84796849D01*
X190658277Y-84760631D01*
X190647119Y-84649718D01*
X190640034Y-84541620D01*
X190632944Y-84505977D01*
X190632068Y-84500107D01*
X190632059Y-84500019D01*
X190628118Y-84460838D01*
X190603003Y-84355454D01*
X190582481Y-84252278D01*
X190569764Y-84214816D01*
X190568169Y-84209283D01*
X190558269Y-84167739D01*
X190549192Y-84144172D01*
X190520457Y-84069562D01*
X190509932Y-84038558D01*
X190487652Y-83972923D01*
X190468732Y-83934556D01*
X190466485Y-83929429D01*
X190449977Y-83886566D01*
X190418285Y-83828737D01*
X190400919Y-83797046D01*
X190357173Y-83708339D01*
X190357172Y-83708336D01*
X190331612Y-83670083D01*
X190328798Y-83665444D01*
X190305175Y-83622335D01*
X190247312Y-83543802D01*
X190245706Y-83541514D01*
X190193273Y-83463043D01*
X190193269Y-83463038D01*
X190160817Y-83426033D01*
X190157516Y-83421930D01*
X190139813Y-83397904D01*
X190126446Y-83379762D01*
X190093100Y-83345282D01*
X190060884Y-83311970D01*
X190058838Y-83309749D01*
X189998760Y-83241244D01*
X189959322Y-83206656D01*
X189955635Y-83203144D01*
X189916981Y-83163176D01*
X189845514Y-83106740D01*
X189843059Y-83104696D01*
X189776960Y-83046729D01*
X189730656Y-83015788D01*
X189726677Y-83012894D01*
X189680517Y-82976443D01*
X189648178Y-82957289D01*
X189604918Y-82931666D01*
X189602089Y-82929884D01*
X189531666Y-82882828D01*
X189478821Y-82856767D01*
X189474668Y-82854518D01*
X189421270Y-82822891D01*
X189421266Y-82822889D01*
X189421262Y-82822887D01*
X189390870Y-82810000D01*
X189343346Y-82789847D01*
X189340157Y-82788386D01*
X189267075Y-82752347D01*
X189208243Y-82732375D01*
X189203969Y-82730746D01*
X189165174Y-82714297D01*
X189143872Y-82705264D01*
X189143868Y-82705263D01*
X189143866Y-82705262D01*
X189065365Y-82683757D01*
X189061815Y-82682670D01*
X188987734Y-82657522D01*
X188987723Y-82657519D01*
X188987722Y-82657519D01*
X188923608Y-82644765D01*
X188919333Y-82643756D01*
X188853281Y-82625662D01*
X188853265Y-82625658D01*
X188775792Y-82615239D01*
X188771962Y-82614601D01*
X188724860Y-82605233D01*
X188698380Y-82599966D01*
X188698377Y-82599965D01*
X188698374Y-82599965D01*
X188629959Y-82595481D01*
X188625750Y-82595061D01*
X188591282Y-82590426D01*
X188554653Y-82585500D01*
X188554650Y-82585500D01*
X188479698Y-82585500D01*
X188475650Y-82585367D01*
X188443627Y-82583268D01*
X188404006Y-82580671D01*
X188404002Y-82580671D01*
X188404000Y-82580671D01*
X188355934Y-82583821D01*
X188331985Y-82585391D01*
X188328765Y-82585499D01*
X188255157Y-82590426D01*
X188109620Y-82599965D01*
X188108420Y-82600123D01*
X188104506Y-82600511D01*
X188103375Y-82600587D01*
X188103372Y-82600587D01*
X188103366Y-82600588D01*
X187960341Y-82629657D01*
X187960341Y-82629658D01*
X187820277Y-82657518D01*
X187820270Y-82657520D01*
X187819508Y-82657779D01*
X187811943Y-82659822D01*
X187808098Y-82660603D01*
X187744548Y-82682670D01*
X187673178Y-82707452D01*
X187627442Y-82722977D01*
X187540927Y-82752346D01*
X187540922Y-82752348D01*
X187537320Y-82754124D01*
X187530241Y-82757086D01*
X187523462Y-82759440D01*
X187398757Y-82822456D01*
X187276343Y-82882823D01*
X187276328Y-82882832D01*
X187270301Y-82886858D01*
X187263828Y-82890637D01*
X187254544Y-82895329D01*
X187141943Y-82972625D01*
X187077346Y-83015788D01*
X187031043Y-83046727D01*
X187023156Y-83053642D01*
X187017373Y-83058138D01*
X187006132Y-83065854D01*
X186907175Y-83155356D01*
X186809241Y-83241242D01*
X186800196Y-83251555D01*
X186795175Y-83256653D01*
X186782668Y-83267966D01*
X186698556Y-83367454D01*
X186614726Y-83463042D01*
X186605308Y-83477136D01*
X186601106Y-83482716D01*
X186588141Y-83498052D01*
X186588140Y-83498053D01*
X186519715Y-83605237D01*
X186450830Y-83708331D01*
X186441905Y-83726427D01*
X186438560Y-83732362D01*
X186426006Y-83752031D01*
X186373801Y-83864530D01*
X186320350Y-83972918D01*
X186320345Y-83972930D01*
X186312822Y-83995089D01*
X186310353Y-84001257D01*
X186299176Y-84025344D01*
X186299171Y-84025358D01*
X186263367Y-84140780D01*
X186225518Y-84252279D01*
X186225516Y-84252288D01*
X186220320Y-84278410D01*
X186218728Y-84284683D01*
X186209907Y-84313119D01*
X186190323Y-84429216D01*
X186187823Y-84441785D01*
X186173161Y-84515505D01*
X186167965Y-84541627D01*
X186167964Y-84541628D01*
X186166012Y-84571416D01*
X186165281Y-84577673D01*
X186161045Y-84602795D01*
X186159791Y-84610230D01*
X186155961Y-84724768D01*
X186148671Y-84836001D01*
X186150835Y-84869027D01*
X186150933Y-84875155D01*
X186149723Y-84911367D01*
X186149723Y-84911376D01*
X186160880Y-85022281D01*
X186167965Y-85130376D01*
X186167966Y-85130389D01*
X186175050Y-85166003D01*
X186175930Y-85171891D01*
X186179882Y-85211164D01*
X186204996Y-85316546D01*
X186225516Y-85419711D01*
X186225518Y-85419719D01*
X186238230Y-85457171D01*
X186239831Y-85462727D01*
X186249728Y-85504252D01*
X186249730Y-85504257D01*
X186249731Y-85504261D01*
X186287542Y-85602437D01*
X186320348Y-85699077D01*
X186322151Y-85702733D01*
X186339263Y-85737433D01*
X186341515Y-85742573D01*
X186358019Y-85785428D01*
X186358023Y-85785436D01*
X186407076Y-85874946D01*
X186450822Y-85963655D01*
X186450833Y-85963673D01*
X186476380Y-86001907D01*
X186479199Y-86006557D01*
X186502822Y-86049659D01*
X186502829Y-86049671D01*
X186560671Y-86128175D01*
X186562308Y-86130507D01*
X186603366Y-86191955D01*
X186614727Y-86208957D01*
X186647182Y-86245965D01*
X186650482Y-86250068D01*
X186681551Y-86292235D01*
X186747114Y-86360028D01*
X186749160Y-86362249D01*
X186782127Y-86399840D01*
X186811530Y-86463221D01*
X186802000Y-86532438D01*
X186756560Y-86585514D01*
X186689639Y-86605598D01*
X186688900Y-86605600D01*
X182125179Y-86605600D01*
X182058140Y-86585915D01*
X182012385Y-86533111D01*
X182002441Y-86463953D01*
X182007898Y-86441337D01*
X182052465Y-86311516D01*
X182053592Y-86304767D01*
X182092100Y-86073999D01*
X182092100Y-85833201D01*
X182052466Y-85595687D01*
X182041833Y-85564715D01*
X182001284Y-85446598D01*
X181974279Y-85367936D01*
X181859672Y-85156161D01*
X181711771Y-84966137D01*
X181534610Y-84803049D01*
X181333022Y-84671345D01*
X181333019Y-84671343D01*
X181333018Y-84671343D01*
X181112505Y-84574617D01*
X180879072Y-84515504D01*
X180734929Y-84503560D01*
X180699200Y-84500600D01*
X180484000Y-84500600D01*
X180454131Y-84503075D01*
X180304127Y-84515504D01*
X180070694Y-84574617D01*
X179850181Y-84671343D01*
X179648590Y-84803049D01*
X179489992Y-84949049D01*
X179471429Y-84966137D01*
X179449247Y-84994637D01*
X179323529Y-85156158D01*
X179208921Y-85367934D01*
X179208918Y-85367943D01*
X179130734Y-85595683D01*
X179106223Y-85742573D01*
X179091100Y-85833201D01*
X179091100Y-86073999D01*
X179106723Y-86167624D01*
X179130734Y-86311516D01*
X179175302Y-86441337D01*
X179178452Y-86511136D01*
X179143366Y-86571557D01*
X179081183Y-86603418D01*
X179058021Y-86605600D01*
X169296460Y-86605600D01*
X169229421Y-86585915D01*
X169208779Y-86569281D01*
X167661779Y-85022281D01*
X166064517Y-83425019D01*
X166059173Y-83418924D01*
X166042506Y-83397204D01*
X166037422Y-83390578D01*
X166037419Y-83390576D01*
X166037418Y-83390574D01*
X166005850Y-83366351D01*
X165938480Y-83314657D01*
X165911647Y-83294067D01*
X165911643Y-83294065D01*
X165911644Y-83294065D01*
X165765182Y-83233398D01*
X165763180Y-83233000D01*
X165761147Y-83232867D01*
X165692546Y-83223835D01*
X165643838Y-83217423D01*
X165643823Y-83217421D01*
X165616318Y-83213801D01*
X165608000Y-83212706D01*
X165607999Y-83212706D01*
X165607998Y-83212706D01*
X165572580Y-83217369D01*
X165564479Y-83217900D01*
X159555521Y-83217900D01*
X159547422Y-83217369D01*
X159526862Y-83214662D01*
X159512001Y-83212706D01*
X159512000Y-83212706D01*
X159506929Y-83213373D01*
X159476679Y-83217355D01*
X159476666Y-83217357D01*
X159472541Y-83217900D01*
X159472540Y-83217900D01*
X159454454Y-83220280D01*
X159354821Y-83233397D01*
X159354819Y-83233398D01*
X159208356Y-83294065D01*
X159117583Y-83363715D01*
X159117561Y-83363734D01*
X159082577Y-83390578D01*
X159060821Y-83418929D01*
X159055470Y-83425030D01*
X151751026Y-90729475D01*
X151744923Y-90734827D01*
X151716577Y-90756578D01*
X151692348Y-90788154D01*
X151666676Y-90821611D01*
X151655268Y-90836478D01*
X151643517Y-90851793D01*
X151620065Y-90882356D01*
X151559398Y-91028819D01*
X151559397Y-91028821D01*
X151543357Y-91150666D01*
X151543355Y-91150679D01*
X151538706Y-91186001D01*
X151543369Y-91221418D01*
X151543900Y-91229520D01*
X151543900Y-99592076D01*
X151524215Y-99659115D01*
X151471411Y-99704870D01*
X151402253Y-99714814D01*
X151338697Y-99685789D01*
X151321525Y-99667564D01*
X151315042Y-99659115D01*
X151305422Y-99646578D01*
X151305420Y-99646576D01*
X151305419Y-99646575D01*
X151289697Y-99634512D01*
X151277068Y-99624821D01*
X151270978Y-99619480D01*
X147388413Y-95736915D01*
X147354928Y-95675592D01*
X147352874Y-95663116D01*
X147343369Y-95578750D01*
X147343368Y-95578745D01*
X147283788Y-95408476D01*
X147187815Y-95255737D01*
X147060262Y-95128184D01*
X146907523Y-95032211D01*
X146737254Y-94972631D01*
X146737249Y-94972630D01*
X146558004Y-94952435D01*
X146557996Y-94952435D01*
X146378750Y-94972630D01*
X146378745Y-94972631D01*
X146208476Y-95032211D01*
X146055737Y-95128184D01*
X145928184Y-95255737D01*
X145832211Y-95408476D01*
X145772631Y-95578745D01*
X145772630Y-95578750D01*
X145752435Y-95757996D01*
X145752435Y-95758003D01*
X145772630Y-95937249D01*
X145772631Y-95937254D01*
X145832211Y-96107523D01*
X145903731Y-96221345D01*
X145928184Y-96260262D01*
X146055738Y-96387816D01*
X146146080Y-96444582D01*
X146171391Y-96460486D01*
X146208478Y-96483789D01*
X146300929Y-96516139D01*
X146378745Y-96543368D01*
X146378750Y-96543369D01*
X146463116Y-96552874D01*
X146527530Y-96579940D01*
X146536915Y-96588413D01*
X150237581Y-100289079D01*
X150271066Y-100350402D01*
X150273900Y-100376760D01*
X150273900Y-110700479D01*
X150273369Y-110708580D01*
X150268706Y-110743998D01*
X150273421Y-110779823D01*
X150273423Y-110779838D01*
X150287589Y-110887437D01*
X150289398Y-110901180D01*
X150345246Y-111036010D01*
X150350067Y-111047647D01*
X150375246Y-111080462D01*
X150422347Y-111141847D01*
X150422349Y-111141848D01*
X150446576Y-111173420D01*
X150446578Y-111173422D01*
X150474928Y-111195176D01*
X150481031Y-111200529D01*
X151181469Y-111900967D01*
X151186822Y-111907070D01*
X151208576Y-111935420D01*
X151208578Y-111935422D01*
X151239235Y-111958946D01*
X151239253Y-111958961D01*
X151334352Y-112031933D01*
X151395020Y-112057062D01*
X151480820Y-112092602D01*
X151533213Y-112099499D01*
X151637998Y-112113295D01*
X151638000Y-112113295D01*
X151638001Y-112113295D01*
X151648286Y-112111940D01*
X151673430Y-112108630D01*
X151681528Y-112108100D01*
X152102479Y-112108100D01*
X152110577Y-112108630D01*
X152131137Y-112111337D01*
X152145999Y-112113294D01*
X152146000Y-112113294D01*
X152146001Y-112113294D01*
X152181421Y-112108631D01*
X152183527Y-112108353D01*
X152183553Y-112108351D01*
X152185460Y-112108100D01*
X152303180Y-112092602D01*
X152449647Y-112031933D01*
X152488315Y-112002262D01*
X152543847Y-111959651D01*
X152543847Y-111959650D01*
X152551937Y-111953443D01*
X152551942Y-111953437D01*
X152557413Y-111949240D01*
X152622581Y-111924050D01*
X152691025Y-111938091D01*
X152731267Y-111972132D01*
X152752944Y-112000382D01*
X152809544Y-112074145D01*
X152826178Y-112095822D01*
X152951953Y-112192333D01*
X152951954Y-112192333D01*
X152953734Y-112193699D01*
X152994936Y-112250128D01*
X153001467Y-112305958D01*
X152991435Y-112394997D01*
X152991435Y-112395003D01*
X153011630Y-112574249D01*
X153011631Y-112574254D01*
X153071211Y-112744523D01*
X153110239Y-112806635D01*
X153129239Y-112873872D01*
X153108871Y-112940707D01*
X153055603Y-112985921D01*
X152991362Y-112995827D01*
X152908004Y-112986435D01*
X152907996Y-112986435D01*
X152728750Y-113006630D01*
X152728745Y-113006631D01*
X152558476Y-113066211D01*
X152405737Y-113162184D01*
X152278184Y-113289737D01*
X152182211Y-113442476D01*
X152122631Y-113612745D01*
X152122630Y-113612750D01*
X152102435Y-113791996D01*
X152102435Y-113792003D01*
X152122630Y-113971249D01*
X152122631Y-113971254D01*
X152182211Y-114141523D01*
X152221769Y-114204478D01*
X152278184Y-114294262D01*
X152405738Y-114421816D01*
X152558478Y-114517789D01*
X152723407Y-114575500D01*
X152728745Y-114577368D01*
X152728750Y-114577369D01*
X152834902Y-114589328D01*
X152907410Y-114597498D01*
X152940974Y-114606156D01*
X153004820Y-114632602D01*
X153004821Y-114632602D01*
X153005251Y-114632780D01*
X153059654Y-114676621D01*
X153081719Y-114742916D01*
X153064440Y-114810615D01*
X153045479Y-114835022D01*
X152694921Y-115185581D01*
X152633598Y-115219066D01*
X152607240Y-115221900D01*
X151163215Y-115221900D01*
X151096176Y-115202215D01*
X151058221Y-115163872D01*
X151051245Y-115152770D01*
X150997816Y-115067738D01*
X150870262Y-114940184D01*
X150854051Y-114929998D01*
X150717523Y-114844211D01*
X150547254Y-114784631D01*
X150547249Y-114784630D01*
X150368004Y-114764435D01*
X150367996Y-114764435D01*
X150188750Y-114784630D01*
X150188745Y-114784631D01*
X150018476Y-114844211D01*
X149865737Y-114940184D01*
X149738184Y-115067737D01*
X149642209Y-115220480D01*
X149587776Y-115376039D01*
X149547054Y-115432815D01*
X149482102Y-115458562D01*
X149413540Y-115445106D01*
X149383054Y-115422765D01*
X146578827Y-112618538D01*
X143640419Y-109680129D01*
X143606934Y-109618806D01*
X143604100Y-109592448D01*
X143604100Y-109026802D01*
X143623785Y-108959763D01*
X143676589Y-108914008D01*
X143745747Y-108904064D01*
X143769055Y-108909761D01*
X143815938Y-108926166D01*
X143815944Y-108926167D01*
X143815946Y-108926168D01*
X143815947Y-108926168D01*
X143815951Y-108926169D01*
X143995197Y-108946365D01*
X143995201Y-108946365D01*
X143995205Y-108946365D01*
X144174450Y-108926169D01*
X144174453Y-108926168D01*
X144174456Y-108926168D01*
X144344723Y-108866589D01*
X144497463Y-108770616D01*
X144625017Y-108643062D01*
X144637560Y-108623100D01*
X144653692Y-108597427D01*
X144706027Y-108551137D01*
X144758685Y-108539400D01*
X145095301Y-108539400D01*
X145162340Y-108559085D01*
X145208095Y-108611889D01*
X145219301Y-108663400D01*
X145219301Y-108721776D01*
X145225708Y-108781383D01*
X145276002Y-108916228D01*
X145276006Y-108916235D01*
X145362252Y-109031444D01*
X145362255Y-109031447D01*
X145477464Y-109117693D01*
X145477471Y-109117697D01*
X145612317Y-109167991D01*
X145612316Y-109167991D01*
X145619244Y-109168735D01*
X145671927Y-109174400D01*
X146885272Y-109174399D01*
X146944883Y-109167991D01*
X147079731Y-109117696D01*
X147106407Y-109097725D01*
X147171866Y-109073309D01*
X147240139Y-109088159D01*
X147255028Y-109097727D01*
X147281108Y-109117251D01*
X147415823Y-109167497D01*
X147415827Y-109167498D01*
X147475355Y-109173899D01*
X147475372Y-109173900D01*
X147832000Y-109173900D01*
X147832000Y-108200000D01*
X148332000Y-108200000D01*
X148332000Y-109173900D01*
X148688628Y-109173900D01*
X148688644Y-109173899D01*
X148748172Y-109167498D01*
X148748179Y-109167496D01*
X148882886Y-109117254D01*
X148882893Y-109117250D01*
X148997987Y-109031090D01*
X148997990Y-109031087D01*
X149084150Y-108915993D01*
X149084154Y-108915986D01*
X149134396Y-108781279D01*
X149134398Y-108781272D01*
X149140799Y-108721744D01*
X149140800Y-108721727D01*
X149140800Y-108200000D01*
X148332000Y-108200000D01*
X147832000Y-108200000D01*
X147832000Y-106726100D01*
X148332000Y-106726100D01*
X148332000Y-107700000D01*
X149140800Y-107700000D01*
X149140800Y-107178272D01*
X149140799Y-107178255D01*
X149134398Y-107118727D01*
X149134396Y-107118720D01*
X149084154Y-106984013D01*
X149084150Y-106984006D01*
X148997990Y-106868912D01*
X148997987Y-106868909D01*
X148882893Y-106782749D01*
X148882886Y-106782745D01*
X148748179Y-106732503D01*
X148748172Y-106732501D01*
X148688644Y-106726100D01*
X148332000Y-106726100D01*
X147832000Y-106726100D01*
X147475355Y-106726100D01*
X147415827Y-106732501D01*
X147415820Y-106732503D01*
X147281113Y-106782745D01*
X147281106Y-106782749D01*
X147255026Y-106802273D01*
X147189562Y-106826690D01*
X147121289Y-106811838D01*
X147106415Y-106802280D01*
X147079731Y-106782304D01*
X147079728Y-106782303D01*
X147079727Y-106782302D01*
X147079728Y-106782302D01*
X146944882Y-106732008D01*
X146944883Y-106732008D01*
X146885283Y-106725601D01*
X146885281Y-106725600D01*
X146885273Y-106725600D01*
X146885264Y-106725600D01*
X145671929Y-106725600D01*
X145671923Y-106725601D01*
X145612316Y-106732008D01*
X145477471Y-106782302D01*
X145477464Y-106782306D01*
X145362255Y-106868552D01*
X145362252Y-106868555D01*
X145276006Y-106983764D01*
X145276002Y-106983771D01*
X145225708Y-107118617D01*
X145219301Y-107178216D01*
X145219300Y-107178235D01*
X145219300Y-107236600D01*
X145199615Y-107303639D01*
X145146811Y-107349394D01*
X145095300Y-107360600D01*
X144694701Y-107360600D01*
X144627662Y-107340915D01*
X144581907Y-107288111D01*
X144570701Y-107236600D01*
X144570701Y-95002476D01*
X144590386Y-94935437D01*
X144607020Y-94914795D01*
X146008895Y-93512920D01*
X147437398Y-92084416D01*
X147443489Y-92079074D01*
X147470451Y-92058387D01*
X147480860Y-92044822D01*
X147487394Y-92036306D01*
X147487405Y-92036294D01*
X147562698Y-91938169D01*
X147585344Y-91883496D01*
X147620687Y-91798172D01*
X147624053Y-91772602D01*
X147624057Y-91772576D01*
X147632533Y-91708189D01*
X147635500Y-91685656D01*
X147635500Y-91685650D01*
X147640465Y-91647936D01*
X147636030Y-91614252D01*
X147635500Y-91606155D01*
X147635500Y-91273844D01*
X147636031Y-91265742D01*
X147640465Y-91232063D01*
X147639595Y-91225454D01*
X147635766Y-91196377D01*
X147635765Y-91196358D01*
X147635500Y-91194344D01*
X147620687Y-91081828D01*
X147562698Y-90941831D01*
X147562696Y-90941828D01*
X147559558Y-90937738D01*
X147492660Y-90850555D01*
X147492656Y-90850550D01*
X147470449Y-90821611D01*
X147453504Y-90808609D01*
X147443490Y-90800925D01*
X147437400Y-90795584D01*
X147202424Y-90560608D01*
X147197072Y-90554506D01*
X147186274Y-90540434D01*
X147176387Y-90527549D01*
X147176385Y-90527547D01*
X147176384Y-90527546D01*
X147147899Y-90505689D01*
X147147888Y-90505680D01*
X147056170Y-90435302D01*
X147034448Y-90426305D01*
X146972466Y-90400631D01*
X146916172Y-90377313D01*
X146850598Y-90368680D01*
X146800034Y-90362023D01*
X146800019Y-90362021D01*
X146773132Y-90358482D01*
X146765936Y-90357535D01*
X146765935Y-90357535D01*
X146765934Y-90357535D01*
X146746901Y-90360040D01*
X146732253Y-90361969D01*
X146724155Y-90362500D01*
X146391850Y-90362500D01*
X146383752Y-90361969D01*
X146350064Y-90357534D01*
X146312344Y-90362500D01*
X146274838Y-90367437D01*
X146199826Y-90377313D01*
X146172492Y-90388635D01*
X146158824Y-90394297D01*
X146143530Y-90400632D01*
X146059832Y-90435300D01*
X146059830Y-90435301D01*
X145970913Y-90503530D01*
X145970888Y-90503549D01*
X145939612Y-90527550D01*
X145918925Y-90554507D01*
X145913574Y-90560608D01*
X142321008Y-94153174D01*
X142314907Y-94158525D01*
X142287950Y-94179212D01*
X142287949Y-94179213D01*
X142282197Y-94186707D01*
X142263949Y-94210488D01*
X142263934Y-94210509D01*
X142227877Y-94257500D01*
X142195700Y-94299433D01*
X142137713Y-94439427D01*
X142137713Y-94439428D01*
X142122357Y-94556070D01*
X142122355Y-94556083D01*
X142117935Y-94589664D01*
X142122369Y-94623342D01*
X142122900Y-94631444D01*
X142122900Y-107710257D01*
X142103215Y-107777296D01*
X142086581Y-107797938D01*
X141885381Y-107999138D01*
X141824058Y-108032623D01*
X141754366Y-108027639D01*
X141698433Y-107985767D01*
X141674016Y-107920303D01*
X141673700Y-107911457D01*
X141673700Y-86477042D01*
X141693385Y-86410003D01*
X141746189Y-86364248D01*
X141754345Y-86360868D01*
X141904761Y-86304767D01*
X142155915Y-86167626D01*
X142384995Y-85996139D01*
X142587339Y-85793795D01*
X142758826Y-85564715D01*
X142895967Y-85313561D01*
X142995969Y-85045446D01*
X143025136Y-84911367D01*
X143056795Y-84765833D01*
X143056795Y-84765832D01*
X143056796Y-84765828D01*
X143077210Y-84480400D01*
X143056796Y-84194972D01*
X143050869Y-84167728D01*
X142995971Y-83915362D01*
X142995970Y-83915360D01*
X142995969Y-83915354D01*
X142895967Y-83647239D01*
X142882368Y-83622335D01*
X142758829Y-83396090D01*
X142758824Y-83396082D01*
X142587345Y-83167012D01*
X142587329Y-83166994D01*
X142385005Y-82964670D01*
X142384987Y-82964654D01*
X142155917Y-82793175D01*
X142155909Y-82793170D01*
X141904766Y-82656035D01*
X141904759Y-82656032D01*
X141799944Y-82616937D01*
X141744011Y-82575066D01*
X141719595Y-82509601D01*
X141734447Y-82441328D01*
X141738286Y-82434783D01*
X141787122Y-82357062D01*
X141797389Y-82340722D01*
X141856968Y-82170455D01*
X141856968Y-82170450D01*
X141856970Y-82170446D01*
X141858520Y-82163659D01*
X141860936Y-82164210D01*
X141883534Y-82110415D01*
X141941123Y-82070852D01*
X141979697Y-82064700D01*
X145430028Y-82064700D01*
X145497067Y-82084385D01*
X145539012Y-82131810D01*
X145539306Y-82131626D01*
X145540426Y-82133409D01*
X145541753Y-82134909D01*
X145543012Y-82137524D01*
X145632094Y-82279296D01*
X145651100Y-82345268D01*
X145651100Y-82432956D01*
X145631415Y-82499995D01*
X145578611Y-82545750D01*
X145570434Y-82549138D01*
X145420033Y-82605235D01*
X145168890Y-82742370D01*
X145168882Y-82742375D01*
X144939812Y-82913854D01*
X144939794Y-82913870D01*
X144737470Y-83116194D01*
X144737454Y-83116212D01*
X144565975Y-83345282D01*
X144565970Y-83345290D01*
X144428835Y-83596433D01*
X144328828Y-83864562D01*
X144268004Y-84144166D01*
X144247590Y-84429598D01*
X144247590Y-84429601D01*
X144268004Y-84715033D01*
X144328828Y-84994637D01*
X144328830Y-84994643D01*
X144328831Y-84994646D01*
X144401923Y-85190612D01*
X144428835Y-85262766D01*
X144565970Y-85513909D01*
X144565975Y-85513917D01*
X144737454Y-85742987D01*
X144737470Y-85743005D01*
X144939794Y-85945329D01*
X144939812Y-85945345D01*
X145168882Y-86116824D01*
X145168890Y-86116829D01*
X145420033Y-86253964D01*
X145420032Y-86253964D01*
X145420036Y-86253965D01*
X145420039Y-86253967D01*
X145688154Y-86353969D01*
X145688160Y-86353970D01*
X145688162Y-86353971D01*
X145967766Y-86414795D01*
X145967768Y-86414795D01*
X145967772Y-86414796D01*
X146221420Y-86432937D01*
X146253199Y-86435210D01*
X146253200Y-86435210D01*
X146253201Y-86435210D01*
X146281795Y-86433164D01*
X146538628Y-86414796D01*
X146560662Y-86410003D01*
X146818237Y-86353971D01*
X146818237Y-86353970D01*
X146818246Y-86353969D01*
X147086361Y-86253967D01*
X147337515Y-86116826D01*
X147566595Y-85945339D01*
X147768939Y-85742995D01*
X147940426Y-85513915D01*
X148077567Y-85262761D01*
X148177569Y-84994646D01*
X148187488Y-84949049D01*
X148238395Y-84715033D01*
X148238395Y-84715032D01*
X148238396Y-84715028D01*
X148258810Y-84429600D01*
X148238396Y-84144172D01*
X148201142Y-83972919D01*
X148177571Y-83864562D01*
X148177570Y-83864560D01*
X148177569Y-83864554D01*
X148077567Y-83596439D01*
X148071866Y-83585999D01*
X147940429Y-83345290D01*
X147940424Y-83345282D01*
X147768945Y-83116212D01*
X147768929Y-83116194D01*
X147566605Y-82913870D01*
X147566587Y-82913854D01*
X147337517Y-82742375D01*
X147337509Y-82742370D01*
X147086366Y-82605235D01*
X147073904Y-82600587D01*
X146939619Y-82550500D01*
X146883686Y-82508629D01*
X146859270Y-82443164D01*
X146860014Y-82418140D01*
X146868055Y-82357059D01*
X146894956Y-82296248D01*
X146894275Y-82295705D01*
X146898609Y-82290268D01*
X146898616Y-82290262D01*
X146994589Y-82137522D01*
X147054168Y-81967255D01*
X147054169Y-81967249D01*
X147074365Y-81788003D01*
X147074365Y-81787996D01*
X147054169Y-81608750D01*
X147054168Y-81608745D01*
X146994588Y-81438476D01*
X146898615Y-81285737D01*
X146771062Y-81158184D01*
X146618321Y-81062210D01*
X146448049Y-81002630D01*
X146347469Y-80991298D01*
X146285867Y-80966454D01*
X146247047Y-80936667D01*
X146247044Y-80936665D01*
X146100582Y-80875998D01*
X146098580Y-80875600D01*
X146096547Y-80875467D01*
X146027946Y-80866435D01*
X145979238Y-80860023D01*
X145979223Y-80860021D01*
X145951718Y-80856401D01*
X145943400Y-80855306D01*
X145943399Y-80855306D01*
X145943398Y-80855306D01*
X145907980Y-80859969D01*
X145899879Y-80860500D01*
X140896166Y-80860500D01*
X140888067Y-80859969D01*
X140866333Y-80857107D01*
X140852647Y-80855306D01*
X140852642Y-80855306D01*
X140816378Y-80860080D01*
X140816363Y-80860082D01*
X140813188Y-80860500D01*
X140813186Y-80860500D01*
X140785148Y-80864191D01*
X140695468Y-80875997D01*
X140591897Y-80918897D01*
X140548998Y-80936666D01*
X140456432Y-81007696D01*
X140423223Y-81033178D01*
X140401467Y-81061529D01*
X140396116Y-81067630D01*
X138875026Y-82588721D01*
X138868923Y-82594073D01*
X138840577Y-82615824D01*
X138816348Y-82647400D01*
X138775806Y-82700236D01*
X138744065Y-82741601D01*
X138683398Y-82888065D01*
X138683397Y-82888067D01*
X138667357Y-83009912D01*
X138667355Y-83009925D01*
X138662706Y-83045247D01*
X138667369Y-83080664D01*
X138667900Y-83088766D01*
X138667900Y-100687039D01*
X138648215Y-100754078D01*
X138595411Y-100799833D01*
X138526253Y-100809777D01*
X138462697Y-100780752D01*
X138456219Y-100774720D01*
X122181500Y-84500001D01*
X128574500Y-84500001D01*
X128574501Y-84500019D01*
X128585000Y-84602796D01*
X128585001Y-84602799D01*
X128640185Y-84769331D01*
X128640187Y-84769336D01*
X128660941Y-84802984D01*
X128732288Y-84918656D01*
X128856344Y-85042712D01*
X128933859Y-85090523D01*
X128980583Y-85142469D01*
X128991806Y-85211432D01*
X128983323Y-85243513D01*
X128939314Y-85349760D01*
X128939313Y-85349764D01*
X128924812Y-85459915D01*
X128923957Y-85466406D01*
X128923955Y-85466419D01*
X128919535Y-85500000D01*
X128923969Y-85533678D01*
X128924500Y-85541780D01*
X128924500Y-89958219D01*
X128923969Y-89966321D01*
X128919535Y-89999998D01*
X128924021Y-90034083D01*
X128924023Y-90034098D01*
X128939312Y-90150235D01*
X128939313Y-90150237D01*
X128950450Y-90177123D01*
X128997302Y-90290233D01*
X129067680Y-90381952D01*
X129067689Y-90381963D01*
X129089546Y-90410448D01*
X129089547Y-90410449D01*
X129089549Y-90410451D01*
X129110210Y-90426305D01*
X129116506Y-90431136D01*
X129122609Y-90436489D01*
X130164808Y-91478688D01*
X130198293Y-91540011D01*
X130200347Y-91552485D01*
X130214630Y-91679249D01*
X130274210Y-91849521D01*
X130326450Y-91932660D01*
X130370184Y-92002262D01*
X130497738Y-92129816D01*
X130570668Y-92175641D01*
X130612619Y-92202001D01*
X130650478Y-92225789D01*
X130706332Y-92245333D01*
X130820745Y-92285368D01*
X130820750Y-92285369D01*
X130999996Y-92305565D01*
X131000000Y-92305565D01*
X131000004Y-92305565D01*
X131179249Y-92285369D01*
X131179252Y-92285368D01*
X131179255Y-92285368D01*
X131349522Y-92225789D01*
X131502262Y-92129816D01*
X131629816Y-92002262D01*
X131725789Y-91849522D01*
X131785368Y-91679255D01*
X131785369Y-91679249D01*
X131805565Y-91500003D01*
X131805565Y-91499996D01*
X131785369Y-91320750D01*
X131785368Y-91320745D01*
X131738219Y-91186001D01*
X131725789Y-91150478D01*
X131629816Y-90997738D01*
X131502262Y-90870184D01*
X131399683Y-90805729D01*
X131349521Y-90774210D01*
X131179249Y-90714630D01*
X131052485Y-90700347D01*
X130988071Y-90673280D01*
X130978688Y-90664808D01*
X130111819Y-89797939D01*
X130078334Y-89736616D01*
X130075500Y-89710258D01*
X130075500Y-85761416D01*
X130088999Y-85711031D01*
X130087089Y-85710240D01*
X130100892Y-85676917D01*
X130124167Y-85620723D01*
X130148187Y-85562736D01*
X130163000Y-85450220D01*
X130167966Y-85412500D01*
X130165477Y-85393597D01*
X130163531Y-85378812D01*
X130163000Y-85370711D01*
X130163000Y-85207927D01*
X130182685Y-85140888D01*
X130221901Y-85102390D01*
X130318656Y-85042712D01*
X130412318Y-84949049D01*
X130473642Y-84915564D01*
X130543334Y-84920548D01*
X130587680Y-84949048D01*
X130681344Y-85042712D01*
X130712240Y-85061769D01*
X130778095Y-85102388D01*
X130824820Y-85154336D01*
X130836999Y-85207927D01*
X130836999Y-85370719D01*
X130836468Y-85378818D01*
X130832035Y-85412499D01*
X130836521Y-85446583D01*
X130836523Y-85446598D01*
X130839131Y-85466406D01*
X130847987Y-85533678D01*
X130851813Y-85562735D01*
X130851813Y-85562736D01*
X130888057Y-85650237D01*
X130912912Y-85710243D01*
X130910997Y-85711036D01*
X130924500Y-85761416D01*
X130924499Y-87958219D01*
X130923968Y-87966318D01*
X130919535Y-87999999D01*
X130924021Y-88034083D01*
X130924023Y-88034098D01*
X130935127Y-88118437D01*
X130939312Y-88150233D01*
X130939313Y-88150235D01*
X130997302Y-88290234D01*
X131067680Y-88381952D01*
X131067689Y-88381963D01*
X131089546Y-88410448D01*
X131089547Y-88410449D01*
X131089549Y-88410451D01*
X131113053Y-88428486D01*
X131116506Y-88431136D01*
X131122609Y-88436488D01*
X134563520Y-91877400D01*
X134568861Y-91883490D01*
X134589549Y-91910451D01*
X134591293Y-91911789D01*
X134618486Y-91932656D01*
X134618490Y-91932660D01*
X134668934Y-91971366D01*
X134668937Y-91971368D01*
X134709767Y-92002698D01*
X134849764Y-92060687D01*
X134962280Y-92075500D01*
X134962281Y-92075500D01*
X134964294Y-92075765D01*
X134964313Y-92075766D01*
X135000000Y-92080465D01*
X135000001Y-92080465D01*
X135013265Y-92078718D01*
X135033682Y-92076030D01*
X135041781Y-92075500D01*
X136392060Y-92075500D01*
X136459099Y-92095185D01*
X136479741Y-92111819D01*
X136497738Y-92129816D01*
X136570668Y-92175641D01*
X136612619Y-92202001D01*
X136650478Y-92225789D01*
X136706332Y-92245333D01*
X136820745Y-92285368D01*
X136820750Y-92285369D01*
X136999996Y-92305565D01*
X137000000Y-92305565D01*
X137000004Y-92305565D01*
X137179249Y-92285369D01*
X137179252Y-92285368D01*
X137179255Y-92285368D01*
X137349522Y-92225789D01*
X137502262Y-92129816D01*
X137629816Y-92002262D01*
X137725789Y-91849522D01*
X137785368Y-91679255D01*
X137785369Y-91679249D01*
X137805565Y-91500003D01*
X137805565Y-91499996D01*
X137785369Y-91320750D01*
X137785368Y-91320745D01*
X137738219Y-91186001D01*
X137725789Y-91150478D01*
X137629816Y-90997738D01*
X137502262Y-90870184D01*
X137471015Y-90850550D01*
X137349523Y-90774211D01*
X137179254Y-90714631D01*
X137179249Y-90714630D01*
X137000004Y-90694435D01*
X136999996Y-90694435D01*
X136820750Y-90714630D01*
X136820745Y-90714631D01*
X136650476Y-90774211D01*
X136497737Y-90870184D01*
X136479741Y-90888181D01*
X136418418Y-90921666D01*
X136392060Y-90924500D01*
X135289742Y-90924500D01*
X135222703Y-90904815D01*
X135202061Y-90888181D01*
X133660504Y-89346624D01*
X132111816Y-87797936D01*
X132078333Y-87736616D01*
X132075500Y-87710267D01*
X132075500Y-85541770D01*
X132076028Y-85533706D01*
X132080466Y-85500000D01*
X132060687Y-85349765D01*
X132016675Y-85243511D01*
X132009207Y-85174044D01*
X132040482Y-85111565D01*
X132066133Y-85090527D01*
X132143656Y-85042712D01*
X132267712Y-84918656D01*
X132359814Y-84769334D01*
X132414999Y-84602797D01*
X132425500Y-84500009D01*
X132425499Y-83499992D01*
X132421724Y-83463041D01*
X132414999Y-83397203D01*
X132414998Y-83397200D01*
X132403902Y-83363715D01*
X132359814Y-83230666D01*
X132267712Y-83081344D01*
X132143656Y-82957288D01*
X132035597Y-82890637D01*
X131994336Y-82865187D01*
X131994331Y-82865185D01*
X131968927Y-82856767D01*
X131827797Y-82810001D01*
X131827795Y-82810000D01*
X131725010Y-82799500D01*
X131099998Y-82799500D01*
X131099980Y-82799501D01*
X130997203Y-82810000D01*
X130997200Y-82810001D01*
X130830668Y-82865185D01*
X130830663Y-82865187D01*
X130681342Y-82957289D01*
X130587681Y-83050951D01*
X130526358Y-83084436D01*
X130456666Y-83079452D01*
X130412319Y-83050951D01*
X130318657Y-82957289D01*
X130318656Y-82957289D01*
X130318656Y-82957288D01*
X130210597Y-82890637D01*
X130169336Y-82865187D01*
X130169331Y-82865185D01*
X130143927Y-82856767D01*
X130002797Y-82810001D01*
X130002795Y-82810000D01*
X129900010Y-82799500D01*
X129274998Y-82799500D01*
X129274980Y-82799501D01*
X129172203Y-82810000D01*
X129172200Y-82810001D01*
X129005668Y-82865185D01*
X129005663Y-82865187D01*
X128856342Y-82957289D01*
X128732289Y-83081342D01*
X128640187Y-83230663D01*
X128640185Y-83230668D01*
X128633264Y-83251555D01*
X128585001Y-83397203D01*
X128585001Y-83397204D01*
X128585000Y-83397204D01*
X128574500Y-83499983D01*
X128574500Y-84500001D01*
X122181500Y-84500001D01*
X119777852Y-82096353D01*
X119777845Y-82096347D01*
X119749280Y-82074429D01*
X119683647Y-82024067D01*
X119683643Y-82024065D01*
X119683644Y-82024065D01*
X119563982Y-81974500D01*
X119537180Y-81963398D01*
X119458590Y-81953052D01*
X119380001Y-81942706D01*
X119379999Y-81942706D01*
X119222820Y-81963398D01*
X119222814Y-81963400D01*
X119218807Y-81965060D01*
X119171353Y-81974500D01*
X116066648Y-81974500D01*
X116019195Y-81965061D01*
X116015180Y-81963398D01*
X115897469Y-81947901D01*
X115897466Y-81947900D01*
X115897460Y-81947900D01*
X115897453Y-81947900D01*
X110424499Y-81947900D01*
X110357460Y-81928215D01*
X110311705Y-81875411D01*
X110300499Y-81823900D01*
X110300499Y-81695998D01*
X110300498Y-81695981D01*
X110289999Y-81593203D01*
X110289998Y-81593200D01*
X110238727Y-81438476D01*
X110234814Y-81426666D01*
X110142712Y-81277344D01*
X110018656Y-81153288D01*
X109925888Y-81096069D01*
X109869336Y-81061187D01*
X109869331Y-81061185D01*
X109867862Y-81060698D01*
X109702797Y-81006001D01*
X109702795Y-81006000D01*
X109600010Y-80995500D01*
X108399998Y-80995500D01*
X108399981Y-80995501D01*
X108297203Y-81006000D01*
X108297200Y-81006001D01*
X108130668Y-81061185D01*
X108130663Y-81061187D01*
X107981342Y-81153289D01*
X107857289Y-81277342D01*
X107765187Y-81426663D01*
X107765185Y-81426668D01*
X107761272Y-81438478D01*
X107710001Y-81593203D01*
X107710001Y-81593204D01*
X107710000Y-81593204D01*
X107699500Y-81695983D01*
X107699500Y-82896001D01*
X107339500Y-82896001D01*
X107339500Y-78696002D01*
X107695034Y-78696002D01*
X107714858Y-78922599D01*
X107714860Y-78922610D01*
X107773730Y-79142317D01*
X107773734Y-79142326D01*
X107869865Y-79348481D01*
X107869866Y-79348483D01*
X107920973Y-79421471D01*
X107920973Y-79421472D01*
X108536879Y-78805566D01*
X108598202Y-78772081D01*
X108667893Y-78777065D01*
X108723827Y-78818936D01*
X108735560Y-78837974D01*
X108756448Y-78879922D01*
X108839334Y-78955484D01*
X108845488Y-78957868D01*
X108900890Y-79000441D01*
X108924481Y-79066207D01*
X108908770Y-79134288D01*
X108888376Y-79161176D01*
X108274526Y-79775025D01*
X108274526Y-79775026D01*
X108347512Y-79826131D01*
X108347516Y-79826133D01*
X108553673Y-79922265D01*
X108553682Y-79922269D01*
X108773389Y-79981139D01*
X108773400Y-79981141D01*
X108999998Y-80000966D01*
X109000002Y-80000966D01*
X109226599Y-79981141D01*
X109226610Y-79981139D01*
X109446317Y-79922269D01*
X109446331Y-79922264D01*
X109652478Y-79826136D01*
X109725472Y-79775025D01*
X109110263Y-79159816D01*
X109076778Y-79098493D01*
X109081762Y-79028801D01*
X109123634Y-78972868D01*
X109132658Y-78966713D01*
X109205610Y-78921543D01*
X109273201Y-78832038D01*
X109273200Y-78832038D01*
X109280126Y-78822868D01*
X109283540Y-78825446D01*
X109315721Y-78790673D01*
X109383368Y-78773190D01*
X109449728Y-78795056D01*
X109466995Y-78809443D01*
X110079025Y-79421472D01*
X110130136Y-79348478D01*
X110226264Y-79142331D01*
X110226269Y-79142317D01*
X110285139Y-78922610D01*
X110285141Y-78922599D01*
X110304966Y-78696002D01*
X110304966Y-78695997D01*
X110285141Y-78469400D01*
X110285139Y-78469389D01*
X110226269Y-78249682D01*
X110226265Y-78249673D01*
X110130133Y-78043516D01*
X110130131Y-78043512D01*
X110079026Y-77970526D01*
X110079025Y-77970526D01*
X109463119Y-78586432D01*
X109401796Y-78619917D01*
X109332104Y-78614933D01*
X109276171Y-78573061D01*
X109264440Y-78554028D01*
X109243552Y-78512078D01*
X109197896Y-78470456D01*
X109160666Y-78436515D01*
X109154510Y-78434131D01*
X109099107Y-78391559D01*
X109075516Y-78325793D01*
X109091226Y-78257712D01*
X109111621Y-78230823D01*
X109725472Y-77616973D01*
X109652483Y-77565866D01*
X109652481Y-77565865D01*
X109446326Y-77469734D01*
X109446317Y-77469730D01*
X109226610Y-77410860D01*
X109226599Y-77410858D01*
X109000002Y-77391034D01*
X108999998Y-77391034D01*
X108773400Y-77410858D01*
X108773389Y-77410860D01*
X108553682Y-77469730D01*
X108553673Y-77469734D01*
X108347513Y-77565868D01*
X108274526Y-77616973D01*
X108889736Y-78232183D01*
X108923221Y-78293506D01*
X108918237Y-78363198D01*
X108876365Y-78419131D01*
X108867334Y-78425290D01*
X108794390Y-78470456D01*
X108719874Y-78569132D01*
X108716476Y-78566566D01*
X108684097Y-78601435D01*
X108616420Y-78618803D01*
X108550098Y-78596824D01*
X108533004Y-78582557D01*
X107920973Y-77970526D01*
X107920972Y-77970527D01*
X107869868Y-78043513D01*
X107773734Y-78249673D01*
X107773730Y-78249682D01*
X107714860Y-78469389D01*
X107714858Y-78469400D01*
X107695034Y-78695997D01*
X107695034Y-78696002D01*
X107339500Y-78696002D01*
X107339500Y-75324500D01*
X107359185Y-75257461D01*
X107411989Y-75211706D01*
X107463500Y-75200500D01*
X213745500Y-75200500D01*
X213812539Y-75220185D01*
G37*
%TD.AperFunction*%
%TD*%
M02*
